<svg width="405" height="470" viewBox="0 0 405 470" fill="none" xmlns="http://www.w3.org/2000/svg">
<rect x="0.5" y="0.5" width="404" height="469" rx="23.5" stroke="#B3B3B3"/>
<path d="M66.414 58.48V73H63.07V66.334L63.18 61.868H63.136L59.55 73H56.492L52.906 61.868H52.862L52.972 66.334V73H49.606V58.48H54.996L57.284 65.872L58.098 68.952H58.142L58.978 65.894L61.244 58.48H66.414ZM80.4314 62L76.4274 73C76.0168 74.1587 75.5694 75.0827 75.0854 75.772C74.6014 76.4613 74.0294 76.96 73.3694 77.268C72.7094 77.576 71.9174 77.73 70.9934 77.73C70.3774 77.73 69.8128 77.664 69.2994 77.532C68.7861 77.4 68.3388 77.2167 67.9574 76.982L68.7054 74.452C68.9694 74.6427 69.2481 74.7747 69.5414 74.848C69.8348 74.936 70.2088 74.98 70.6634 74.98C71.0888 74.98 71.4334 74.9067 71.6974 74.76C71.9761 74.6133 72.1961 74.3347 72.3574 73.924L72.6434 73.242L71.3674 70.25L68.0674 62H72.1814L73.8754 68.27L74.4034 70.602L75.0194 68.182L76.7134 62H80.4314ZM94.7567 58.48C96.4874 58.48 97.8294 58.8907 98.7827 59.712C99.7507 60.5187 100.235 61.5967 100.235 62.946C100.235 64.4273 99.758 65.5567 98.8047 66.334C97.8514 67.1113 96.5094 67.5 94.7787 67.5L94.4267 67.698H91.5447V73H87.8267V58.48H94.7567ZM94.2287 65.014C94.962 65.014 95.512 64.8673 95.8787 64.574C96.2454 64.2807 96.4287 63.8113 96.4287 63.166C96.4287 62.5353 96.2454 62.0733 95.8787 61.78C95.512 61.4867 94.962 61.34 94.2287 61.34H91.5447V65.014H94.2287ZM96.4507 65.806L101.093 73H96.9127L93.1947 66.642L96.4507 65.806ZM107.816 61.78C108.975 61.78 109.987 62.0073 110.852 62.462C111.732 62.902 112.414 63.5547 112.898 64.42C113.397 65.2707 113.646 66.2973 113.646 67.5C113.646 68.7027 113.397 69.7367 112.898 70.602C112.414 71.4527 111.732 72.1053 110.852 72.56C109.987 73 108.975 73.22 107.816 73.22C106.687 73.22 105.682 73 104.802 72.56C103.922 72.1053 103.233 71.4527 102.734 70.602C102.25 69.7367 102.008 68.7027 102.008 67.5C102.008 66.2973 102.25 65.2707 102.734 64.42C103.233 63.5547 103.922 62.902 104.802 62.462C105.682 62.0073 106.687 61.78 107.816 61.78ZM107.816 64.442C107.391 64.442 107.024 64.5447 106.716 64.75C106.408 64.9553 106.174 65.2853 106.012 65.74C105.851 66.1947 105.77 66.7813 105.77 67.5C105.77 68.2187 105.851 68.8053 106.012 69.26C106.174 69.7 106.408 70.03 106.716 70.25C107.024 70.4553 107.391 70.558 107.816 70.558C108.256 70.558 108.63 70.4553 108.938 70.25C109.246 70.03 109.481 69.7 109.642 69.26C109.804 68.8053 109.884 68.2187 109.884 67.5C109.884 66.7813 109.804 66.1947 109.642 65.74C109.481 65.2853 109.246 64.9553 108.938 64.75C108.63 64.5447 108.256 64.442 107.816 64.442ZM119.446 57.336V69.26C119.446 69.744 119.527 70.0887 119.688 70.294C119.85 70.4993 120.121 70.602 120.502 70.602C120.722 70.602 120.906 70.5873 121.052 70.558C121.199 70.5287 121.375 70.4847 121.58 70.426L121.338 72.67C121.074 72.8313 120.73 72.9633 120.304 73.066C119.879 73.1687 119.461 73.22 119.05 73.22C117.877 73.22 117.026 72.9487 116.498 72.406C115.97 71.8633 115.706 70.976 115.706 69.744V57.336H119.446ZM128.315 73.22C127.098 73.22 126.042 72.9927 125.147 72.538C124.267 72.0833 123.585 71.4307 123.101 70.58C122.617 69.7293 122.375 68.7027 122.375 67.5C122.375 66.2973 122.617 65.2707 123.101 64.42C123.585 63.5693 124.26 62.9167 125.125 62.462C126.005 62.0073 127.01 61.78 128.139 61.78C129.298 61.78 130.281 62.0073 131.087 62.462C131.909 62.902 132.532 63.518 132.957 64.31C133.383 65.0873 133.595 65.982 133.595 66.994C133.595 67.258 133.588 67.522 133.573 67.786C133.559 68.05 133.537 68.27 133.507 68.446H124.795V66.444H131.857L130.075 67.126C130.075 66.246 129.914 65.5713 129.591 65.102C129.283 64.6327 128.799 64.398 128.139 64.398C127.67 64.398 127.267 64.508 126.929 64.728C126.607 64.948 126.357 65.2927 126.181 65.762C126.02 66.2313 125.939 66.8327 125.939 67.566C125.939 68.2847 126.035 68.8713 126.225 69.326C126.416 69.766 126.687 70.0887 127.039 70.294C127.391 70.4847 127.817 70.58 128.315 70.58C128.873 70.58 129.313 70.47 129.635 70.25C129.973 70.03 130.222 69.722 130.383 69.326L133.375 70.316C133.17 70.9467 132.811 71.482 132.297 71.922C131.799 72.3473 131.197 72.67 130.493 72.89C129.804 73.11 129.078 73.22 128.315 73.22ZM137.668 61.78C138.357 61.78 138.892 61.956 139.274 62.308C139.67 62.66 139.868 63.1513 139.868 63.782C139.868 64.398 139.67 64.882 139.274 65.234C138.892 65.586 138.357 65.762 137.668 65.762C136.993 65.762 136.458 65.586 136.062 65.234C135.666 64.882 135.468 64.398 135.468 63.782C135.468 63.1513 135.666 62.66 136.062 62.308C136.458 61.956 136.993 61.78 137.668 61.78ZM137.668 69.216C138.357 69.216 138.892 69.392 139.274 69.744C139.67 70.096 139.868 70.5873 139.868 71.218C139.868 71.834 139.67 72.318 139.274 72.67C138.892 73.022 138.357 73.198 137.668 73.198C136.993 73.198 136.458 73.022 136.062 72.67C135.666 72.318 135.468 71.834 135.468 71.218C135.468 70.5873 135.666 70.096 136.062 69.744C136.458 69.392 136.993 69.216 137.668 69.216ZM154.819 58.26C156.168 58.26 157.356 58.4727 158.383 58.898C159.424 59.3087 160.326 59.9173 161.089 60.724L159.263 63.166C158.632 62.506 157.95 62.0147 157.217 61.692C156.498 61.3547 155.677 61.186 154.753 61.186C154.21 61.186 153.77 61.2447 153.433 61.362C153.096 61.4793 152.854 61.6407 152.707 61.846C152.56 62.0513 152.487 62.286 152.487 62.55C152.487 62.858 152.626 63.122 152.905 63.342C153.198 63.5473 153.668 63.7233 154.313 63.87L156.755 64.42C158.207 64.7573 159.27 65.2487 159.945 65.894C160.62 66.5393 160.957 67.3973 160.957 68.468C160.957 69.4947 160.693 70.3673 160.165 71.086C159.637 71.79 158.911 72.3253 157.987 72.692C157.063 73.044 156.007 73.22 154.819 73.22C153.851 73.22 152.927 73.1173 152.047 72.912C151.167 72.692 150.375 72.384 149.671 71.988C148.967 71.592 148.373 71.1373 147.889 70.624L149.715 68.094C150.082 68.5193 150.529 68.9007 151.057 69.238C151.6 69.5607 152.186 69.8173 152.817 70.008C153.462 70.1987 154.115 70.294 154.775 70.294C155.288 70.294 155.714 70.2427 156.051 70.14C156.403 70.0373 156.66 69.8833 156.821 69.678C156.982 69.4727 157.063 69.2307 157.063 68.952C157.063 68.644 156.953 68.3873 156.733 68.182C156.513 67.962 156.095 67.7787 155.479 67.632L152.795 67.038C151.974 66.8473 151.24 66.598 150.595 66.29C149.964 65.9673 149.466 65.542 149.099 65.014C148.732 64.4713 148.549 63.7967 148.549 62.99C148.549 62.0807 148.798 61.274 149.297 60.57C149.796 59.8513 150.514 59.2867 151.453 58.876C152.392 58.4653 153.514 58.26 154.819 58.26ZM168.427 73.22C167.209 73.22 166.153 72.9927 165.259 72.538C164.379 72.0833 163.697 71.4307 163.213 70.58C162.729 69.7293 162.487 68.7027 162.487 67.5C162.487 66.2973 162.729 65.2707 163.213 64.42C163.697 63.5693 164.371 62.9167 165.237 62.462C166.117 62.0073 167.121 61.78 168.251 61.78C169.409 61.78 170.392 62.0073 171.199 62.462C172.02 62.902 172.643 63.518 173.069 64.31C173.494 65.0873 173.707 65.982 173.707 66.994C173.707 67.258 173.699 67.522 173.685 67.786C173.67 68.05 173.648 68.27 173.619 68.446H164.907V66.444H171.969L170.187 67.126C170.187 66.246 170.025 65.5713 169.703 65.102C169.395 64.6327 168.911 64.398 168.251 64.398C167.781 64.398 167.378 64.508 167.041 64.728C166.718 64.948 166.469 65.2927 166.293 65.762C166.131 66.2313 166.051 66.8327 166.051 67.566C166.051 68.2847 166.146 68.8713 166.337 69.326C166.527 69.766 166.799 70.0887 167.151 70.294C167.503 70.4847 167.928 70.58 168.427 70.58C168.984 70.58 169.424 70.47 169.747 70.25C170.084 70.03 170.333 69.722 170.495 69.326L173.487 70.316C173.281 70.9467 172.922 71.482 172.409 71.922C171.91 72.3473 171.309 72.67 170.605 72.89C169.915 73.11 169.189 73.22 168.427 73.22ZM175.799 73V62H179.143L179.341 65.784L178.923 65.366C179.07 64.574 179.326 63.914 179.693 63.386C180.074 62.858 180.544 62.462 181.101 62.198C181.673 61.9193 182.311 61.78 183.015 61.78C183.778 61.78 184.438 61.9267 184.995 62.22C185.567 62.5133 186.014 62.946 186.337 63.518C186.66 64.09 186.821 64.8087 186.821 65.674V73H183.081V66.664C183.081 65.9013 182.934 65.3733 182.641 65.08C182.348 64.7867 181.974 64.64 181.519 64.64C181.167 64.64 180.837 64.728 180.529 64.904C180.221 65.0653 179.979 65.3293 179.803 65.696C179.627 66.0627 179.539 66.554 179.539 67.17V73H175.799ZM191.312 60.724C190.549 60.724 189.992 60.5847 189.64 60.306C189.302 60.0127 189.134 59.558 189.134 58.942C189.134 58.3113 189.302 57.8567 189.64 57.578C189.992 57.2847 190.549 57.138 191.312 57.138C192.06 57.138 192.61 57.2847 192.962 57.578C193.314 57.8567 193.49 58.3113 193.49 58.942C193.49 59.558 193.314 60.0127 192.962 60.306C192.61 60.5847 192.06 60.724 191.312 60.724ZM193.182 62V73H189.442V62H193.182ZM201.08 61.78C202.239 61.78 203.251 62.0073 204.116 62.462C204.996 62.902 205.678 63.5547 206.162 64.42C206.661 65.2707 206.91 66.2973 206.91 67.5C206.91 68.7027 206.661 69.7367 206.162 70.602C205.678 71.4527 204.996 72.1053 204.116 72.56C203.251 73 202.239 73.22 201.08 73.22C199.951 73.22 198.946 73 198.066 72.56C197.186 72.1053 196.497 71.4527 195.998 70.602C195.514 69.7367 195.272 68.7027 195.272 67.5C195.272 66.2973 195.514 65.2707 195.998 64.42C196.497 63.5547 197.186 62.902 198.066 62.462C198.946 62.0073 199.951 61.78 201.08 61.78ZM201.08 64.442C200.655 64.442 200.288 64.5447 199.98 64.75C199.672 64.9553 199.437 65.2853 199.276 65.74C199.115 66.1947 199.034 66.7813 199.034 67.5C199.034 68.2187 199.115 68.8053 199.276 69.26C199.437 69.7 199.672 70.03 199.98 70.25C200.288 70.4553 200.655 70.558 201.08 70.558C201.52 70.558 201.894 70.4553 202.202 70.25C202.51 70.03 202.745 69.7 202.906 69.26C203.067 68.8053 203.148 68.2187 203.148 67.5C203.148 66.7813 203.067 66.1947 202.906 65.74C202.745 65.2853 202.51 64.9553 202.202 64.75C201.894 64.5447 201.52 64.442 201.08 64.442ZM209.014 73V62H212.314L212.468 64.376C212.747 63.5547 213.157 62.9167 213.7 62.462C214.257 62.0073 214.961 61.78 215.812 61.78C216.091 61.78 216.325 61.802 216.516 61.846C216.721 61.89 216.883 61.9487 217 62.022L216.626 65.102C216.479 65.0433 216.289 64.9993 216.054 64.97C215.834 64.926 215.563 64.904 215.24 64.904C214.8 64.904 214.389 64.9993 214.008 65.19C213.627 65.3807 213.319 65.6667 213.084 66.048C212.864 66.4147 212.754 66.884 212.754 67.456V73H209.014ZM237.376 58.48V67.082C237.376 69.1353 236.826 70.6753 235.726 71.702C234.641 72.714 233.028 73.22 230.886 73.22C228.76 73.22 227.146 72.714 226.046 71.702C224.946 70.6753 224.396 69.1353 224.396 67.082V58.48H228.202V67.148C228.202 68.1893 228.422 68.9667 228.862 69.48C229.317 69.9933 229.992 70.25 230.886 70.25C231.796 70.25 232.47 69.9933 232.91 69.48C233.365 68.9667 233.592 68.1893 233.592 67.148V58.48H237.376ZM253.105 73H248.595L245.867 68.358L243.227 73H238.937L243.865 65.696L239.223 58.48H243.689L246.175 62.924L248.683 58.48H252.797L248.155 65.586L253.105 73ZM263.249 57.336L257.089 74.54H253.613L259.773 57.336H263.249ZM277.874 58.48V67.082C277.874 69.1353 277.324 70.6753 276.224 71.702C275.139 72.714 273.526 73.22 271.384 73.22C269.258 73.22 267.644 72.714 266.544 71.702C265.444 70.6753 264.894 69.1353 264.894 67.082V58.48H268.7V67.148C268.7 68.1893 268.92 68.9667 269.36 69.48C269.815 69.9933 270.49 70.25 271.384 70.25C272.294 70.25 272.968 69.9933 273.408 69.48C273.863 68.9667 274.09 68.1893 274.09 67.148V58.48H277.874ZM284.583 58.48V73H280.799V58.48H284.583ZM55.766 92.48C58.0393 92.48 59.7773 93.1107 60.98 94.372C62.1973 95.6333 62.806 97.4227 62.806 99.74C62.806 102.057 62.1973 103.847 60.98 105.108C59.7773 106.369 58.0393 107 55.766 107H49.606V92.48H55.766ZM55.392 104.14C56.624 104.14 57.5187 103.773 58.076 103.04C58.648 102.292 58.934 101.192 58.934 99.74C58.934 98.288 58.648 97.1953 58.076 96.462C57.5187 95.714 56.624 95.34 55.392 95.34H53.39V104.14H55.392ZM70.501 107.22C69.2837 107.22 68.2277 106.993 67.333 106.538C66.453 106.083 65.771 105.431 65.287 104.58C64.803 103.729 64.561 102.703 64.561 101.5C64.561 100.297 64.803 99.2707 65.287 98.42C65.771 97.5693 66.4457 96.9167 67.311 96.462C68.191 96.0073 69.1957 95.78 70.325 95.78C71.4837 95.78 72.4663 96.0073 73.273 96.462C74.0943 96.902 74.7177 97.518 75.143 98.31C75.5683 99.0873 75.781 99.982 75.781 100.994C75.781 101.258 75.7737 101.522 75.759 101.786C75.7443 102.05 75.7223 102.27 75.693 102.446H66.981V100.444H74.043L72.261 101.126C72.261 100.246 72.0997 99.5713 71.777 99.102C71.469 98.6327 70.985 98.398 70.325 98.398C69.8557 98.398 69.4523 98.508 69.115 98.728C68.7923 98.948 68.543 99.2927 68.367 99.762C68.2057 100.231 68.125 100.833 68.125 101.566C68.125 102.285 68.2203 102.871 68.411 103.326C68.6017 103.766 68.873 104.089 69.225 104.294C69.577 104.485 70.0023 104.58 70.501 104.58C71.0583 104.58 71.4983 104.47 71.821 104.25C72.1583 104.03 72.4077 103.722 72.569 103.326L75.561 104.316C75.3557 104.947 74.9963 105.482 74.483 105.922C73.9843 106.347 73.383 106.67 72.679 106.89C71.9897 107.11 71.2637 107.22 70.501 107.22ZM82.4933 107.22C81.3933 107.22 80.3666 107.044 79.4133 106.692C78.4746 106.325 77.6973 105.805 77.0813 105.13L78.8413 103.062C79.2079 103.531 79.6919 103.927 80.2933 104.25C80.9093 104.558 81.5913 104.712 82.3392 104.712C82.7939 104.712 83.1679 104.646 83.4613 104.514C83.7546 104.382 83.9013 104.177 83.9013 103.898C83.9013 103.693 83.8279 103.531 83.6813 103.414C83.5346 103.282 83.2413 103.172 82.8013 103.084L81.2613 102.776C79.8826 102.497 78.8999 102.087 78.3133 101.544C77.7413 100.987 77.4553 100.261 77.4553 99.366C77.4553 98.7647 77.6386 98.1927 78.0053 97.65C78.3719 97.0927 78.9366 96.6453 79.6993 96.308C80.4619 95.956 81.4373 95.78 82.6253 95.78C83.7399 95.78 84.7226 95.9413 85.5733 96.264C86.4239 96.5867 87.0986 97.056 87.5973 97.672L85.8153 99.696C85.4633 99.256 85.0086 98.9113 84.4513 98.662C83.8939 98.4127 83.3366 98.288 82.7793 98.288C82.4273 98.288 82.1266 98.3247 81.8773 98.398C81.6426 98.4567 81.4666 98.5447 81.3493 98.662C81.2319 98.7793 81.1733 98.926 81.1733 99.102C81.1733 99.2927 81.2613 99.4613 81.4373 99.608C81.6279 99.74 81.9726 99.8573 82.4713 99.96L84.4733 100.356C85.6026 100.561 86.4166 100.935 86.9153 101.478C87.4139 102.021 87.6633 102.673 87.6633 103.436C87.6633 104.155 87.4726 104.8 87.0913 105.372C86.7099 105.944 86.1379 106.399 85.3753 106.736C84.6126 107.059 83.6519 107.22 82.4933 107.22ZM91.4737 94.724C90.7111 94.724 90.1537 94.5847 89.8017 94.306C89.4644 94.0127 89.2957 93.558 89.2957 92.942C89.2957 92.3113 89.4644 91.8567 89.8017 91.578C90.1537 91.2847 90.7111 91.138 91.4737 91.138C92.2217 91.138 92.7717 91.2847 93.1237 91.578C93.4757 91.8567 93.6517 92.3113 93.6517 92.942C93.6517 93.558 93.4757 94.0127 93.1237 94.306C92.7717 94.5847 92.2217 94.724 91.4737 94.724ZM93.3437 96V107H89.6037V96H93.3437ZM106.654 93.052L106.962 95.56C106.874 95.5307 106.786 95.516 106.698 95.516C106.61 95.5013 106.522 95.494 106.434 95.494C105.789 95.494 105.305 95.6553 104.982 95.978C104.674 96.286 104.52 96.6747 104.52 97.144L103.2 96.66C103.2 96.0587 103.31 95.4793 103.53 94.922C103.75 94.3647 104.087 93.91 104.542 93.558C105.011 93.206 105.598 93.03 106.302 93.03C106.346 93.03 106.397 93.03 106.456 93.03C106.529 93.03 106.595 93.0373 106.654 93.052ZM102.87 104.558C104.146 104.558 105.121 104.829 105.796 105.372C106.485 105.9 106.83 106.663 106.83 107.66C106.83 108.569 106.581 109.325 106.082 109.926C105.583 110.527 104.879 110.975 103.97 111.268C103.075 111.576 102.012 111.73 100.78 111.73C98.7854 111.73 97.3481 111.481 96.4681 110.982C95.5881 110.483 95.1481 109.809 95.1481 108.958C95.1481 108.342 95.3974 107.843 95.8961 107.462C96.3947 107.081 97.2234 106.875 98.3821 106.846L98.2941 107.198C97.3994 107.081 96.7321 106.817 96.2921 106.406C95.8521 105.995 95.6321 105.438 95.6321 104.734C95.6321 104.03 95.9107 103.458 96.4681 103.018C97.0254 102.578 97.7661 102.336 98.6901 102.292L100.054 102.93H99.7021C99.1301 102.959 98.7267 103.055 98.4921 103.216C98.2574 103.377 98.1401 103.575 98.1401 103.81C98.1401 104.059 98.2427 104.25 98.4481 104.382C98.6534 104.499 98.9614 104.558 99.3721 104.558H102.87ZM100.802 109.31C101.506 109.31 102.085 109.259 102.54 109.156C103.009 109.068 103.361 108.936 103.596 108.76C103.831 108.599 103.948 108.408 103.948 108.188C103.948 107.968 103.867 107.792 103.706 107.66C103.545 107.543 103.251 107.484 102.826 107.484H98.8881C98.6094 107.484 98.3821 107.557 98.2061 107.704C98.0447 107.851 97.9641 108.034 97.9641 108.254C97.9641 108.591 98.2134 108.848 98.7121 109.024C99.2107 109.215 99.9074 109.31 100.802 109.31ZM100.934 95.78C102.049 95.78 103.002 95.9267 103.794 96.22C104.586 96.5133 105.187 96.9387 105.598 97.496C106.023 98.0387 106.236 98.7133 106.236 99.52C106.236 100.312 106.023 100.987 105.598 101.544C105.187 102.101 104.586 102.527 103.794 102.82C103.002 103.099 102.049 103.238 100.934 103.238C99.1887 103.238 97.8614 102.915 96.9521 102.27C96.0574 101.625 95.6101 100.708 95.6101 99.52C95.6101 98.7133 95.8154 98.0387 96.2261 97.496C96.6514 96.9387 97.2601 96.5133 98.0521 96.22C98.8441 95.9267 99.8047 95.78 100.934 95.78ZM100.934 97.914C100.45 97.914 100.054 98.0533 99.7461 98.332C99.4527 98.6107 99.3061 99.0067 99.3061 99.52C99.3061 100.019 99.4527 100.407 99.7461 100.686C100.054 100.965 100.45 101.104 100.934 101.104C101.403 101.104 101.792 100.965 102.1 100.686C102.408 100.407 102.562 100.019 102.562 99.52C102.562 99.0067 102.408 98.6107 102.1 98.332C101.792 98.0533 101.403 97.914 100.934 97.914ZM108.317 107V96H111.661L111.859 99.784L111.441 99.366C111.587 98.574 111.844 97.914 112.211 97.386C112.592 96.858 113.061 96.462 113.619 96.198C114.191 95.9193 114.829 95.78 115.533 95.78C116.295 95.78 116.955 95.9267 117.513 96.22C118.085 96.5133 118.532 96.946 118.855 97.518C119.177 98.09 119.339 98.8087 119.339 99.674V107H115.599V100.664C115.599 99.9013 115.452 99.3733 115.159 99.08C114.865 98.7867 114.491 98.64 114.037 98.64C113.685 98.64 113.355 98.728 113.047 98.904C112.739 99.0653 112.497 99.3293 112.321 99.696C112.145 100.063 112.057 100.554 112.057 101.17V107H108.317ZM127.327 107.22C126.11 107.22 125.054 106.993 124.159 106.538C123.279 106.083 122.597 105.431 122.113 104.58C121.629 103.729 121.387 102.703 121.387 101.5C121.387 100.297 121.629 99.2707 122.113 98.42C122.597 97.5693 123.272 96.9167 124.137 96.462C125.017 96.0073 126.022 95.78 127.151 95.78C128.31 95.78 129.293 96.0073 130.099 96.462C130.921 96.902 131.544 97.518 131.969 98.31C132.395 99.0873 132.607 99.982 132.607 100.994C132.607 101.258 132.6 101.522 132.585 101.786C132.571 102.05 132.549 102.27 132.519 102.446H123.807V100.444H130.869L129.087 101.126C129.087 100.246 128.926 99.5713 128.603 99.102C128.295 98.6327 127.811 98.398 127.151 98.398C126.682 98.398 126.279 98.508 125.941 98.728C125.619 98.948 125.369 99.2927 125.193 99.762C125.032 100.231 124.951 100.833 124.951 101.566C124.951 102.285 125.047 102.871 125.237 103.326C125.428 103.766 125.699 104.089 126.051 104.294C126.403 104.485 126.829 104.58 127.327 104.58C127.885 104.58 128.325 104.47 128.647 104.25C128.985 104.03 129.234 103.722 129.395 103.326L132.387 104.316C132.182 104.947 131.823 105.482 131.309 105.922C130.811 106.347 130.209 106.67 129.505 106.89C128.816 107.11 128.09 107.22 127.327 107.22ZM134.699 107V96H137.999L138.153 98.376C138.432 97.5547 138.843 96.9167 139.385 96.462C139.943 96.0073 140.647 95.78 141.497 95.78C141.776 95.78 142.011 95.802 142.201 95.846C142.407 95.89 142.568 95.9487 142.685 96.022L142.311 99.102C142.165 99.0433 141.974 98.9993 141.739 98.97C141.519 98.926 141.248 98.904 140.925 98.904C140.485 98.904 140.075 98.9993 139.693 99.19C139.312 99.3807 139.004 99.6667 138.769 100.048C138.549 100.415 138.439 100.884 138.439 101.456V107H134.699ZM64.5034 170.248C63.7114 170.248 63.0514 169.999 62.5234 169.5C62.0101 168.987 61.7534 168.349 61.7534 167.586C61.7534 166.809 62.0101 166.171 62.5234 165.672C63.0514 165.173 63.7114 164.924 64.5034 164.924C65.3101 164.924 65.9701 165.173 66.4834 165.672C66.9968 166.171 67.2534 166.809 67.2534 167.586C67.2534 168.349 66.9968 168.987 66.4834 169.5C65.9701 169.999 65.3101 170.248 64.5034 170.248ZM88.062 160.48C90.3353 160.48 92.1173 161.111 93.408 162.372C94.7133 163.619 95.366 165.408 95.366 167.74C95.366 170.072 94.7133 171.869 93.408 173.13C92.1173 174.377 90.3353 175 88.062 175H83.376V160.48H88.062ZM88.238 173.35C89.8953 173.35 91.186 172.859 92.11 171.876C93.0487 170.879 93.518 169.5 93.518 167.74C93.518 165.98 93.0487 164.609 92.11 163.626C91.186 162.629 89.8953 162.13 88.238 162.13H85.136V173.35H88.238ZM99.674 161.888C99.278 161.888 98.9554 161.771 98.706 161.536C98.4714 161.287 98.354 160.964 98.354 160.568C98.354 160.172 98.4714 159.857 98.706 159.622C98.9554 159.373 99.278 159.248 99.674 159.248C100.07 159.248 100.385 159.373 100.62 159.622C100.869 159.857 100.994 160.172 100.994 160.568C100.994 160.964 100.869 161.287 100.62 161.536C100.385 161.771 100.07 161.888 99.674 161.888ZM100.554 164V175H98.794V164H100.554ZM108.598 175.22C107.527 175.22 106.537 174.993 105.628 174.538C104.733 174.083 104.044 173.438 103.56 172.602L105.056 171.524C105.378 172.199 105.848 172.727 106.464 173.108C107.094 173.489 107.85 173.68 108.73 173.68C109.507 173.68 110.116 173.533 110.556 173.24C110.996 172.932 111.216 172.536 111.216 172.052C111.216 171.744 111.113 171.465 110.908 171.216C110.717 170.952 110.343 170.761 109.786 170.644L107.146 170.094C106.075 169.874 105.305 169.507 104.836 168.994C104.381 168.481 104.154 167.843 104.154 167.08C104.154 166.479 104.322 165.929 104.66 165.43C105.012 164.931 105.503 164.535 106.134 164.242C106.779 163.934 107.534 163.78 108.4 163.78C109.485 163.78 110.402 163.993 111.15 164.418C111.898 164.843 112.455 165.445 112.822 166.222L111.348 167.19C111.098 166.545 110.695 166.075 110.138 165.782C109.58 165.474 109.001 165.32 108.4 165.32C107.872 165.32 107.417 165.393 107.036 165.54C106.669 165.687 106.383 165.892 106.178 166.156C105.987 166.405 105.892 166.691 105.892 167.014C105.892 167.337 106.002 167.637 106.222 167.916C106.442 168.18 106.852 168.371 107.454 168.488L110.204 169.06C111.23 169.265 111.949 169.603 112.36 170.072C112.77 170.541 112.976 171.113 112.976 171.788C112.976 172.477 112.792 173.086 112.426 173.614C112.059 174.127 111.546 174.523 110.886 174.802C110.226 175.081 109.463 175.22 108.598 175.22ZM120.793 163.78C121.556 163.78 122.223 163.897 122.795 164.132C123.382 164.367 123.888 164.704 124.313 165.144C124.739 165.584 125.083 166.105 125.347 166.706L123.675 167.498C123.441 166.794 123.081 166.259 122.597 165.892C122.128 165.511 121.512 165.32 120.749 165.32C120.016 165.32 119.385 165.489 118.857 165.826C118.329 166.149 117.926 166.625 117.647 167.256C117.369 167.872 117.229 168.62 117.229 169.5C117.229 170.365 117.369 171.113 117.647 171.744C117.926 172.375 118.329 172.859 118.857 173.196C119.385 173.519 120.016 173.68 120.749 173.68C121.321 173.68 121.813 173.592 122.223 173.416C122.649 173.24 122.993 172.983 123.257 172.646C123.536 172.309 123.727 171.898 123.829 171.414L125.457 171.986C125.208 172.661 124.863 173.24 124.423 173.724C123.998 174.208 123.477 174.582 122.861 174.846C122.26 175.095 121.571 175.22 120.793 175.22C119.767 175.22 118.85 174.993 118.043 174.538C117.237 174.083 116.606 173.431 116.151 172.58C115.697 171.715 115.469 170.688 115.469 169.5C115.469 168.312 115.697 167.293 116.151 166.442C116.606 165.577 117.237 164.917 118.043 164.462C118.85 164.007 119.767 163.78 120.793 163.78ZM133.104 163.78C134.145 163.78 135.062 164.007 135.854 164.462C136.661 164.917 137.291 165.577 137.746 166.442C138.201 167.293 138.428 168.312 138.428 169.5C138.428 170.688 138.201 171.715 137.746 172.58C137.291 173.431 136.661 174.083 135.854 174.538C135.062 174.993 134.145 175.22 133.104 175.22C132.077 175.22 131.161 174.993 130.354 174.538C129.547 174.083 128.917 173.431 128.462 172.58C128.007 171.715 127.78 170.688 127.78 169.5C127.78 168.312 128.007 167.293 128.462 166.442C128.917 165.577 129.547 164.917 130.354 164.462C131.161 164.007 132.077 163.78 133.104 163.78ZM133.104 165.298C132.356 165.298 131.718 165.467 131.19 165.804C130.662 166.141 130.251 166.625 129.958 167.256C129.679 167.872 129.54 168.62 129.54 169.5C129.54 170.365 129.679 171.113 129.958 171.744C130.251 172.375 130.662 172.859 131.19 173.196C131.718 173.533 132.356 173.702 133.104 173.702C133.852 173.702 134.49 173.533 135.018 173.196C135.546 172.859 135.949 172.375 136.228 171.744C136.521 171.113 136.668 170.365 136.668 169.5C136.668 168.62 136.521 167.872 136.228 167.256C135.949 166.625 135.546 166.141 135.018 165.804C134.49 165.467 133.852 165.298 133.104 165.298ZM149.023 164H150.871L146.295 175H144.535L139.959 164H141.961L145.437 173.218L149.023 164ZM157.769 175.22C156.728 175.22 155.796 174.993 154.975 174.538C154.168 174.083 153.538 173.431 153.083 172.58C152.628 171.715 152.401 170.688 152.401 169.5C152.401 168.312 152.628 167.293 153.083 166.442C153.538 165.577 154.161 164.917 154.953 164.462C155.745 164.007 156.647 163.78 157.659 163.78C158.686 163.78 159.558 164 160.277 164.44C161.01 164.88 161.568 165.481 161.949 166.244C162.33 166.992 162.521 167.835 162.521 168.774C162.521 169.023 162.514 169.251 162.499 169.456C162.484 169.661 162.462 169.845 162.433 170.006H153.545V168.444H161.663L160.761 168.62C160.761 167.564 160.468 166.75 159.881 166.178C159.309 165.606 158.554 165.32 157.615 165.32C156.896 165.32 156.273 165.489 155.745 165.826C155.232 166.149 154.828 166.625 154.535 167.256C154.256 167.872 154.117 168.62 154.117 169.5C154.117 170.365 154.264 171.113 154.557 171.744C154.85 172.375 155.261 172.859 155.789 173.196C156.332 173.519 156.977 173.68 157.725 173.68C158.532 173.68 159.184 173.526 159.683 173.218C160.196 172.91 160.607 172.492 160.915 171.964L162.301 172.778C162.022 173.277 161.663 173.709 161.223 174.076C160.798 174.443 160.292 174.729 159.705 174.934C159.133 175.125 158.488 175.22 157.769 175.22ZM165.868 175V164H167.298L167.54 165.804C167.848 165.129 168.296 164.623 168.882 164.286C169.484 163.949 170.21 163.78 171.06 163.78C171.251 163.78 171.456 163.795 171.676 163.824C171.911 163.853 172.109 163.912 172.27 164L171.962 165.606C171.801 165.547 171.625 165.503 171.434 165.474C171.244 165.445 170.972 165.43 170.62 165.43C170.166 165.43 169.704 165.562 169.234 165.826C168.78 166.09 168.398 166.493 168.09 167.036C167.782 167.564 167.628 168.239 167.628 169.06V175H165.868ZM183.891 164L178.721 176.848C178.442 177.567 178.134 178.131 177.797 178.542C177.474 178.967 177.107 179.268 176.697 179.444C176.301 179.635 175.839 179.73 175.311 179.73C174.812 179.73 174.35 179.657 173.925 179.51C173.514 179.378 173.147 179.195 172.825 178.96L173.309 177.42C173.602 177.684 173.91 177.875 174.233 177.992C174.57 178.124 174.9 178.19 175.223 178.19C175.604 178.19 175.963 178.073 176.301 177.838C176.638 177.603 176.946 177.127 177.225 176.408L177.797 174.978L176.697 172.36L173.199 164H175.201L177.951 171.172L178.633 173.13L179.425 170.952L181.999 164H183.891ZM64.5034 204.248C63.7114 204.248 63.0514 203.999 62.5234 203.5C62.0101 202.987 61.7534 202.349 61.7534 201.586C61.7534 200.809 62.0101 200.171 62.5234 199.672C63.0514 199.173 63.7114 198.924 64.5034 198.924C65.3101 198.924 65.9701 199.173 66.4834 199.672C66.9968 200.171 67.2534 200.809 67.2534 201.586C67.2534 202.349 66.9968 202.987 66.4834 203.5C65.9701 203.999 65.3101 204.248 64.5034 204.248ZM94.486 194.48V203.588C94.486 205.451 93.9947 206.859 93.012 207.812C92.0293 208.751 90.6213 209.22 88.788 209.22C86.9693 209.22 85.5613 208.751 84.564 207.812C83.5813 206.859 83.09 205.451 83.09 203.588V194.48H84.85V203.148C84.85 204.659 85.1653 205.773 85.796 206.492C86.4413 207.211 87.4387 207.57 88.788 207.57C90.1373 207.57 91.1273 207.211 91.758 206.492C92.4033 205.773 92.726 204.659 92.726 203.148V194.48H94.486ZM102.389 209.22C101.318 209.22 100.328 208.993 99.4188 208.538C98.5241 208.083 97.8348 207.438 97.3508 206.602L98.8468 205.524C99.1695 206.199 99.6388 206.727 100.255 207.108C100.885 207.489 101.641 207.68 102.521 207.68C103.298 207.68 103.907 207.533 104.347 207.24C104.787 206.932 105.007 206.536 105.007 206.052C105.007 205.744 104.904 205.465 104.699 205.216C104.508 204.952 104.134 204.761 103.577 204.644L100.937 204.094C99.8661 203.874 99.0961 203.507 98.6268 202.994C98.1721 202.481 97.9448 201.843 97.9448 201.08C97.9448 200.479 98.1135 199.929 98.4508 199.43C98.8028 198.931 99.2941 198.535 99.9248 198.242C100.57 197.934 101.325 197.78 102.191 197.78C103.276 197.78 104.193 197.993 104.941 198.418C105.689 198.843 106.246 199.445 106.613 200.222L105.139 201.19C104.889 200.545 104.486 200.075 103.929 199.782C103.371 199.474 102.792 199.32 102.191 199.32C101.663 199.32 101.208 199.393 100.827 199.54C100.46 199.687 100.174 199.892 99.9688 200.156C99.7781 200.405 99.6828 200.691 99.6828 201.014C99.6828 201.337 99.7928 201.637 100.013 201.916C100.233 202.18 100.643 202.371 101.245 202.488L103.995 203.06C105.021 203.265 105.74 203.603 106.151 204.072C106.561 204.541 106.767 205.113 106.767 205.788C106.767 206.477 106.583 207.086 106.217 207.614C105.85 208.127 105.337 208.523 104.677 208.802C104.017 209.081 103.254 209.22 102.389 209.22ZM114.628 209.22C113.587 209.22 112.656 208.993 111.834 208.538C111.028 208.083 110.397 207.431 109.942 206.58C109.488 205.715 109.26 204.688 109.26 203.5C109.26 202.312 109.488 201.293 109.942 200.442C110.397 199.577 111.02 198.917 111.812 198.462C112.604 198.007 113.506 197.78 114.518 197.78C115.545 197.78 116.418 198 117.136 198.44C117.87 198.88 118.427 199.481 118.808 200.244C119.19 200.992 119.38 201.835 119.38 202.774C119.38 203.023 119.373 203.251 119.358 203.456C119.344 203.661 119.322 203.845 119.292 204.006H110.404V202.444H118.522L117.62 202.62C117.62 201.564 117.327 200.75 116.74 200.178C116.168 199.606 115.413 199.32 114.474 199.32C113.756 199.32 113.132 199.489 112.604 199.826C112.091 200.149 111.688 200.625 111.394 201.256C111.116 201.872 110.976 202.62 110.976 203.5C110.976 204.365 111.123 205.113 111.416 205.744C111.71 206.375 112.12 206.859 112.648 207.196C113.191 207.519 113.836 207.68 114.584 207.68C115.391 207.68 116.044 207.526 116.542 207.218C117.056 206.91 117.466 206.492 117.774 205.964L119.16 206.778C118.882 207.277 118.522 207.709 118.082 208.076C117.657 208.443 117.151 208.729 116.564 208.934C115.992 209.125 115.347 209.22 114.628 209.22ZM122.728 209V198H124.158L124.4 199.804C124.708 199.129 125.155 198.623 125.742 198.286C126.343 197.949 127.069 197.78 127.92 197.78C128.11 197.78 128.316 197.795 128.536 197.824C128.77 197.853 128.968 197.912 129.13 198L128.822 199.606C128.66 199.547 128.484 199.503 128.294 199.474C128.103 199.445 127.832 199.43 127.48 199.43C127.025 199.43 126.563 199.562 126.094 199.826C125.639 200.09 125.258 200.493 124.95 201.036C124.642 201.564 124.488 202.239 124.488 203.06V209H122.728ZM144.521 194.48C146.002 194.48 147.19 194.861 148.085 195.624C148.979 196.387 149.427 197.421 149.427 198.726C149.427 200.031 148.972 201.051 148.063 201.784C147.168 202.503 145.98 202.862 144.499 202.862L144.345 202.972H140.781V209H139.021V194.48H144.521ZM144.499 201.322C145.54 201.322 146.31 201.109 146.809 200.684C147.322 200.244 147.579 199.591 147.579 198.726C147.579 197.861 147.322 197.215 146.809 196.79C146.31 196.35 145.54 196.13 144.499 196.13H140.781V201.322H144.499ZM145.511 201.674L150.307 209H148.217L144.037 202.642L145.511 201.674ZM157.554 209.22C156.513 209.22 155.581 208.993 154.76 208.538C153.953 208.083 153.323 207.431 152.868 206.58C152.413 205.715 152.186 204.688 152.186 203.5C152.186 202.312 152.413 201.293 152.868 200.442C153.323 199.577 153.946 198.917 154.738 198.462C155.53 198.007 156.432 197.78 157.444 197.78C158.471 197.78 159.343 198 160.062 198.44C160.795 198.88 161.353 199.481 161.734 200.244C162.115 200.992 162.306 201.835 162.306 202.774C162.306 203.023 162.299 203.251 162.284 203.456C162.269 203.661 162.247 203.845 162.218 204.006H153.33V202.444H161.448L160.546 202.62C160.546 201.564 160.253 200.75 159.666 200.178C159.094 199.606 158.339 199.32 157.4 199.32C156.681 199.32 156.058 199.489 155.53 199.826C155.017 200.149 154.613 200.625 154.32 201.256C154.041 201.872 153.902 202.62 153.902 203.5C153.902 204.365 154.049 205.113 154.342 205.744C154.635 206.375 155.046 206.859 155.574 207.196C156.117 207.519 156.762 207.68 157.51 207.68C158.317 207.68 158.969 207.526 159.468 207.218C159.981 206.91 160.392 206.492 160.7 205.964L162.086 206.778C161.807 207.277 161.448 207.709 161.008 208.076C160.583 208.443 160.077 208.729 159.49 208.934C158.918 209.125 158.273 209.22 157.554 209.22ZM169.613 209.22C168.543 209.22 167.553 208.993 166.643 208.538C165.749 208.083 165.059 207.438 164.575 206.602L166.071 205.524C166.394 206.199 166.863 206.727 167.479 207.108C168.11 207.489 168.865 207.68 169.745 207.68C170.523 207.68 171.131 207.533 171.571 207.24C172.011 206.932 172.231 206.536 172.231 206.052C172.231 205.744 172.129 205.465 171.923 205.216C171.733 204.952 171.359 204.761 170.801 204.644L168.161 204.094C167.091 203.874 166.321 203.507 165.851 202.994C165.397 202.481 165.169 201.843 165.169 201.08C165.169 200.479 165.338 199.929 165.675 199.43C166.027 198.931 166.519 198.535 167.149 198.242C167.795 197.934 168.55 197.78 169.415 197.78C170.501 197.78 171.417 197.993 172.165 198.418C172.913 198.843 173.471 199.445 173.837 200.222L172.363 201.19C172.114 200.545 171.711 200.075 171.153 199.782C170.596 199.474 170.017 199.32 169.415 199.32C168.887 199.32 168.433 199.393 168.051 199.54C167.685 199.687 167.399 199.892 167.193 200.156C167.003 200.405 166.907 200.691 166.907 201.014C166.907 201.337 167.017 201.637 167.237 201.916C167.457 202.18 167.868 202.371 168.469 202.488L171.219 203.06C172.246 203.265 172.965 203.603 173.375 204.072C173.786 204.541 173.991 205.113 173.991 205.788C173.991 206.477 173.808 207.086 173.441 207.614C173.075 208.127 172.561 208.523 171.901 208.802C171.241 209.081 170.479 209.22 169.613 209.22ZM181.853 209.22C180.812 209.22 179.88 208.993 179.059 208.538C178.252 208.083 177.622 207.431 177.167 206.58C176.712 205.715 176.485 204.688 176.485 203.5C176.485 202.312 176.712 201.293 177.167 200.442C177.622 199.577 178.245 198.917 179.037 198.462C179.829 198.007 180.731 197.78 181.743 197.78C182.77 197.78 183.642 198 184.361 198.44C185.094 198.88 185.652 199.481 186.033 200.244C186.414 200.992 186.605 201.835 186.605 202.774C186.605 203.023 186.598 203.251 186.583 203.456C186.568 203.661 186.546 203.845 186.517 204.006H177.629V202.444H185.747L184.845 202.62C184.845 201.564 184.552 200.75 183.965 200.178C183.393 199.606 182.638 199.32 181.699 199.32C180.98 199.32 180.357 199.489 179.829 199.826C179.316 200.149 178.912 200.625 178.619 201.256C178.34 201.872 178.201 202.62 178.201 203.5C178.201 204.365 178.348 205.113 178.641 205.744C178.934 206.375 179.345 206.859 179.873 207.196C180.416 207.519 181.061 207.68 181.809 207.68C182.616 207.68 183.268 207.526 183.767 207.218C184.28 206.91 184.691 206.492 184.999 205.964L186.385 206.778C186.106 207.277 185.747 207.709 185.307 208.076C184.882 208.443 184.376 208.729 183.789 208.934C183.217 209.125 182.572 209.22 181.853 209.22ZM196.376 201.894C196.376 201.073 196.156 200.442 195.716 200.002C195.276 199.547 194.653 199.32 193.846 199.32C193.084 199.32 192.438 199.489 191.91 199.826C191.382 200.149 190.994 200.677 190.744 201.41L189.314 200.53C189.608 199.709 190.15 199.049 190.942 198.55C191.734 198.037 192.717 197.78 193.89 197.78C194.682 197.78 195.401 197.919 196.046 198.198C196.692 198.462 197.198 198.873 197.564 199.43C197.946 199.973 198.136 200.677 198.136 201.542V206.866C198.136 207.394 198.415 207.658 198.972 207.658C199.251 207.658 199.522 207.621 199.786 207.548L199.698 208.934C199.405 209.081 199.024 209.154 198.554 209.154C198.129 209.154 197.748 209.073 197.41 208.912C197.073 208.751 196.809 208.509 196.618 208.186C196.428 207.849 196.332 207.431 196.332 206.932V206.712L196.772 206.778C196.596 207.35 196.296 207.819 195.87 208.186C195.445 208.538 194.968 208.802 194.44 208.978C193.912 209.139 193.392 209.22 192.878 209.22C192.233 209.22 191.632 209.11 191.074 208.89C190.517 208.67 190.07 208.34 189.732 207.9C189.41 207.445 189.248 206.888 189.248 206.228C189.248 205.407 189.52 204.732 190.062 204.204C190.62 203.661 191.39 203.295 192.372 203.104L196.728 202.246V203.698L193.186 204.424C192.468 204.571 191.932 204.776 191.58 205.04C191.228 205.304 191.052 205.671 191.052 206.14C191.052 206.595 191.228 206.969 191.58 207.262C191.947 207.541 192.46 207.68 193.12 207.68C193.546 207.68 193.949 207.629 194.33 207.526C194.726 207.409 195.078 207.24 195.386 207.02C195.694 206.785 195.936 206.499 196.112 206.162C196.288 205.81 196.376 205.399 196.376 204.93V201.894ZM202.413 209V198H203.843L204.085 199.804C204.393 199.129 204.841 198.623 205.427 198.286C206.029 197.949 206.755 197.78 207.605 197.78C207.796 197.78 208.001 197.795 208.221 197.824C208.456 197.853 208.654 197.912 208.815 198L208.507 199.606C208.346 199.547 208.17 199.503 207.979 199.474C207.789 199.445 207.517 199.43 207.165 199.43C206.711 199.43 206.249 199.562 205.779 199.826C205.325 200.09 204.943 200.493 204.635 201.036C204.327 201.564 204.173 202.239 204.173 203.06V209H202.413ZM215.604 197.78C216.367 197.78 217.034 197.897 217.606 198.132C218.193 198.367 218.699 198.704 219.124 199.144C219.549 199.584 219.894 200.105 220.158 200.706L218.486 201.498C218.251 200.794 217.892 200.259 217.408 199.892C216.939 199.511 216.323 199.32 215.56 199.32C214.827 199.32 214.196 199.489 213.668 199.826C213.14 200.149 212.737 200.625 212.458 201.256C212.179 201.872 212.04 202.62 212.04 203.5C212.04 204.365 212.179 205.113 212.458 205.744C212.737 206.375 213.14 206.859 213.668 207.196C214.196 207.519 214.827 207.68 215.56 207.68C216.132 207.68 216.623 207.592 217.034 207.416C217.459 207.24 217.804 206.983 218.068 206.646C218.347 206.309 218.537 205.898 218.64 205.414L220.268 205.986C220.019 206.661 219.674 207.24 219.234 207.724C218.809 208.208 218.288 208.582 217.672 208.846C217.071 209.095 216.381 209.22 215.604 209.22C214.577 209.22 213.661 208.993 212.854 208.538C212.047 208.083 211.417 207.431 210.962 206.58C210.507 205.715 210.28 204.688 210.28 203.5C210.28 202.312 210.507 201.293 210.962 200.442C211.417 199.577 212.047 198.917 212.854 198.462C213.661 198.007 214.577 197.78 215.604 197.78ZM223.36 209V192.94H225.12V199.65C225.502 198.99 226.008 198.513 226.638 198.22C227.269 197.927 227.958 197.78 228.706 197.78C229.498 197.78 230.217 197.934 230.862 198.242C231.508 198.535 232.021 198.99 232.402 199.606C232.798 200.222 232.996 201.007 232.996 201.96V209H231.236V202.576C231.236 201.359 230.972 200.515 230.444 200.046C229.931 199.562 229.293 199.32 228.53 199.32C228.002 199.32 227.474 199.445 226.946 199.694C226.418 199.943 225.978 200.354 225.626 200.926C225.289 201.483 225.12 202.231 225.12 203.17V209H223.36ZM64.5034 238.248C63.7114 238.248 63.0514 237.999 62.5234 237.5C62.0101 236.987 61.7534 236.349 61.7534 235.586C61.7534 234.809 62.0101 234.171 62.5234 233.672C63.0514 233.173 63.7114 232.924 64.5034 232.924C65.3101 232.924 65.9701 233.173 66.4834 233.672C66.9968 234.171 67.2534 234.809 67.2534 235.586C67.2534 236.349 66.9968 236.987 66.4834 237.5C65.9701 237.999 65.3101 238.248 64.5034 238.248ZM93.584 228.48V230.13H88.524V243H86.764V230.13H81.704V228.48H93.584ZM98.4936 243.22C97.4523 243.22 96.5209 242.993 95.6996 242.538C94.8929 242.083 94.2623 241.431 93.8076 240.58C93.3529 239.715 93.1256 238.688 93.1256 237.5C93.1256 236.312 93.3529 235.293 93.8076 234.442C94.2623 233.577 94.8856 232.917 95.6776 232.462C96.4696 232.007 97.3716 231.78 98.3836 231.78C99.4103 231.78 100.283 232 101.002 232.44C101.735 232.88 102.292 233.481 102.674 234.244C103.055 234.992 103.246 235.835 103.246 236.774C103.246 237.023 103.238 237.251 103.224 237.456C103.209 237.661 103.187 237.845 103.158 238.006H94.2696V236.444H102.388L101.486 236.62C101.486 235.564 101.192 234.75 100.606 234.178C100.034 233.606 99.2783 233.32 98.3396 233.32C97.6209 233.32 96.9976 233.489 96.4696 233.826C95.9563 234.149 95.5529 234.625 95.2596 235.256C94.9809 235.872 94.8416 236.62 94.8416 237.5C94.8416 238.365 94.9883 239.113 95.2816 239.744C95.5749 240.375 95.9856 240.859 96.5136 241.196C97.0563 241.519 97.7016 241.68 98.4496 241.68C99.2563 241.68 99.9089 241.526 100.408 241.218C100.921 240.91 101.332 240.492 101.64 239.964L103.026 240.778C102.747 241.277 102.388 241.709 101.948 242.076C101.522 242.443 101.016 242.729 100.43 242.934C99.8576 243.125 99.2123 243.22 98.4936 243.22ZM110.553 243.22C109.482 243.22 108.492 242.993 107.583 242.538C106.688 242.083 105.999 241.438 105.515 240.602L107.011 239.524C107.334 240.199 107.803 240.727 108.419 241.108C109.05 241.489 109.805 241.68 110.685 241.68C111.462 241.68 112.071 241.533 112.511 241.24C112.951 240.932 113.171 240.536 113.171 240.052C113.171 239.744 113.068 239.465 112.863 239.216C112.672 238.952 112.298 238.761 111.741 238.644L109.101 238.094C108.03 237.874 107.26 237.507 106.791 236.994C106.336 236.481 106.109 235.843 106.109 235.08C106.109 234.479 106.278 233.929 106.615 233.43C106.967 232.931 107.458 232.535 108.089 232.242C108.734 231.934 109.49 231.78 110.355 231.78C111.44 231.78 112.357 231.993 113.105 232.418C113.853 232.843 114.41 233.445 114.777 234.222L113.303 235.19C113.054 234.545 112.65 234.075 112.093 233.782C111.536 233.474 110.956 233.32 110.355 233.32C109.827 233.32 109.372 233.393 108.991 233.54C108.624 233.687 108.338 233.892 108.133 234.156C107.942 234.405 107.847 234.691 107.847 235.014C107.847 235.337 107.957 235.637 108.177 235.916C108.397 236.18 108.808 236.371 109.409 236.488L112.159 237.06C113.186 237.265 113.904 237.603 114.315 238.072C114.726 238.541 114.931 239.113 114.931 239.788C114.931 240.477 114.748 241.086 114.381 241.614C114.014 242.127 113.501 242.523 112.841 242.802C112.181 243.081 111.418 243.22 110.553 243.22ZM120.79 228.876V239.964C120.79 240.507 120.944 240.91 121.252 241.174C121.56 241.438 121.956 241.57 122.44 241.57C122.866 241.57 123.232 241.497 123.54 241.35C123.848 241.203 124.127 241.005 124.376 240.756L124.992 242.23C124.655 242.538 124.252 242.78 123.782 242.956C123.328 243.132 122.8 243.22 122.198 243.22C121.641 243.22 121.12 243.125 120.636 242.934C120.152 242.729 119.764 242.413 119.47 241.988C119.192 241.548 119.045 240.976 119.03 240.272V229.36L120.79 228.876ZM124.794 232V233.518H116.83V232H124.794ZM128.291 229.888C127.895 229.888 127.573 229.771 127.323 229.536C127.089 229.287 126.971 228.964 126.971 228.568C126.971 228.172 127.089 227.857 127.323 227.622C127.573 227.373 127.895 227.248 128.291 227.248C128.687 227.248 129.003 227.373 129.237 227.622C129.487 227.857 129.611 228.172 129.611 228.568C129.611 228.964 129.487 229.287 129.237 229.536C129.003 229.771 128.687 229.888 128.291 229.888ZM129.171 232V243H127.411V232H129.171ZM133.255 243V232H134.795L134.949 234.464L134.663 234.222C134.898 233.635 135.213 233.166 135.609 232.814C136.005 232.447 136.46 232.183 136.973 232.022C137.501 231.861 138.044 231.78 138.601 231.78C139.393 231.78 140.112 231.934 140.757 232.242C141.402 232.535 141.916 232.99 142.297 233.606C142.693 234.222 142.891 235.007 142.891 235.96V243H141.131V236.576C141.131 235.359 140.867 234.515 140.339 234.046C139.826 233.562 139.188 233.32 138.425 233.32C137.897 233.32 137.369 233.445 136.841 233.694C136.313 233.943 135.873 234.347 135.521 234.904C135.184 235.461 135.015 236.209 135.015 237.148V243H133.255ZM156.138 229.976L156.534 231.538C156.519 231.538 156.497 231.538 156.468 231.538C156.439 231.538 156.409 231.538 156.38 231.538C155.661 231.538 155.104 231.685 154.708 231.978C154.327 232.257 154.136 232.711 154.136 233.342L153.058 232.792C153.058 232.22 153.19 231.721 153.454 231.296C153.718 230.871 154.077 230.548 154.532 230.328C154.987 230.093 155.485 229.976 156.028 229.976C156.043 229.976 156.057 229.976 156.072 229.976C156.101 229.976 156.123 229.976 156.138 229.976ZM152.794 241.592C153.835 241.592 154.649 241.834 155.236 242.318C155.823 242.787 156.116 243.418 156.116 244.21C156.116 244.929 155.874 245.552 155.39 246.08C154.921 246.608 154.283 247.011 153.476 247.29C152.684 247.583 151.789 247.73 150.792 247.73C149.061 247.73 147.763 247.437 146.898 246.85C146.047 246.263 145.622 245.559 145.622 244.738C145.622 244.151 145.813 243.623 146.194 243.154C146.59 242.699 147.25 242.443 148.174 242.384L148.02 242.714C147.521 242.582 147.096 242.362 146.744 242.054C146.407 241.731 146.238 241.269 146.238 240.668C146.238 240.067 146.458 239.553 146.898 239.128C147.353 238.688 148.02 238.417 148.9 238.314L150.066 238.908H149.846C149.127 238.981 148.614 239.165 148.306 239.458C148.013 239.737 147.866 240.045 147.866 240.382C147.866 240.793 148.013 241.101 148.306 241.306C148.614 241.497 149.039 241.592 149.582 241.592H152.794ZM150.77 246.256C151.621 246.256 152.317 246.168 152.86 245.992C153.417 245.816 153.828 245.589 154.092 245.31C154.356 245.031 154.488 244.731 154.488 244.408C154.488 244.012 154.327 243.697 154.004 243.462C153.696 243.227 153.131 243.11 152.31 243.11H148.922C148.453 243.11 148.057 243.227 147.734 243.462C147.411 243.711 147.25 244.049 147.25 244.474C147.25 245.017 147.558 245.449 148.174 245.772C148.805 246.095 149.67 246.256 150.77 246.256ZM150.616 231.78C151.496 231.78 152.273 231.941 152.948 232.264C153.637 232.572 154.173 233.005 154.554 233.562C154.935 234.119 155.126 234.765 155.126 235.498C155.126 236.217 154.935 236.862 154.554 237.434C154.173 237.991 153.637 238.431 152.948 238.754C152.273 239.062 151.496 239.216 150.616 239.216C149.164 239.216 148.049 238.871 147.272 238.182C146.495 237.478 146.106 236.583 146.106 235.498C146.106 234.765 146.297 234.119 146.678 233.562C147.074 233.005 147.609 232.572 148.284 232.264C148.959 231.941 149.736 231.78 150.616 231.78ZM150.616 233.21C149.853 233.21 149.215 233.423 148.702 233.848C148.189 234.259 147.932 234.809 147.932 235.498C147.932 236.173 148.189 236.723 148.702 237.148C149.215 237.573 149.853 237.786 150.616 237.786C151.379 237.786 152.017 237.573 152.53 237.148C153.043 236.723 153.3 236.173 153.3 235.498C153.3 234.809 153.043 234.259 152.53 233.848C152.017 233.423 151.379 233.21 150.616 233.21ZM64.5034 272.248C63.7114 272.248 63.0514 271.999 62.5234 271.5C62.0101 270.987 61.7534 270.349 61.7534 269.586C61.7534 268.809 62.0101 268.171 62.5234 267.672C63.0514 267.173 63.7114 266.924 64.5034 266.924C65.3101 266.924 65.9701 267.173 66.4834 267.672C66.9968 268.171 67.2534 268.809 67.2534 269.586C67.2534 270.349 66.9968 270.987 66.4834 271.5C65.9701 271.999 65.3101 272.248 64.5034 272.248ZM85.136 262.48V277H83.376V262.48H85.136ZM92.1518 262.876V273.964C92.1518 274.507 92.3058 274.91 92.6138 275.174C92.9218 275.438 93.3178 275.57 93.8018 275.57C94.2271 275.57 94.5938 275.497 94.9018 275.35C95.2098 275.203 95.4884 275.005 95.7378 274.756L96.3538 276.23C96.0164 276.538 95.6131 276.78 95.1438 276.956C94.6891 277.132 94.1611 277.22 93.5598 277.22C93.0024 277.22 92.4818 277.125 91.9978 276.934C91.5138 276.729 91.1251 276.413 90.8318 275.988C90.5531 275.548 90.4064 274.976 90.3918 274.272V263.36L92.1518 262.876ZM96.1558 266V267.518H88.1918V266H96.1558ZM103.371 277.22C102.329 277.22 101.398 276.993 100.577 276.538C99.7699 276.083 99.1392 275.431 98.6846 274.58C98.2299 273.715 98.0026 272.688 98.0026 271.5C98.0026 270.312 98.2299 269.293 98.6846 268.442C99.1392 267.577 99.7626 266.917 100.555 266.462C101.347 266.007 102.249 265.78 103.261 265.78C104.287 265.78 105.16 266 105.879 266.44C106.612 266.88 107.169 267.481 107.551 268.244C107.932 268.992 108.123 269.835 108.123 270.774C108.123 271.023 108.115 271.251 108.101 271.456C108.086 271.661 108.064 271.845 108.035 272.006H99.1466V270.444H107.265L106.363 270.62C106.363 269.564 106.069 268.75 105.483 268.178C104.911 267.606 104.155 267.32 103.217 267.32C102.498 267.32 101.875 267.489 101.347 267.826C100.833 268.149 100.43 268.625 100.137 269.256C99.8579 269.872 99.7186 270.62 99.7186 271.5C99.7186 272.365 99.8652 273.113 100.159 273.744C100.452 274.375 100.863 274.859 101.391 275.196C101.933 275.519 102.579 275.68 103.327 275.68C104.133 275.68 104.786 275.526 105.285 275.218C105.798 274.91 106.209 274.492 106.517 273.964L107.903 274.778C107.624 275.277 107.265 275.709 106.825 276.076C106.399 276.443 105.893 276.729 105.307 276.934C104.735 277.125 104.089 277.22 103.371 277.22ZM111.47 277V266H112.9L113.142 267.804C113.45 267.129 113.897 266.623 114.484 266.286C115.085 265.949 115.811 265.78 116.662 265.78C116.852 265.78 117.058 265.795 117.278 265.824C117.512 265.853 117.71 265.912 117.872 266L117.564 267.606C117.402 267.547 117.226 267.503 117.036 267.474C116.845 267.445 116.574 267.43 116.222 267.43C115.767 267.43 115.305 267.562 114.836 267.826C114.381 268.09 114 268.493 113.692 269.036C113.384 269.564 113.23 270.239 113.23 271.06V277H111.47ZM126.574 269.894C126.574 269.073 126.354 268.442 125.914 268.002C125.474 267.547 124.85 267.32 124.044 267.32C123.281 267.32 122.636 267.489 122.108 267.826C121.58 268.149 121.191 268.677 120.942 269.41L119.512 268.53C119.805 267.709 120.348 267.049 121.14 266.55C121.932 266.037 122.914 265.78 124.088 265.78C124.88 265.78 125.598 265.919 126.244 266.198C126.889 266.462 127.395 266.873 127.762 267.43C128.143 267.973 128.334 268.677 128.334 269.542V274.866C128.334 275.394 128.612 275.658 129.17 275.658C129.448 275.658 129.72 275.621 129.984 275.548L129.896 276.934C129.602 277.081 129.221 277.154 128.752 277.154C128.326 277.154 127.945 277.073 127.608 276.912C127.27 276.751 127.006 276.509 126.816 276.186C126.625 275.849 126.53 275.431 126.53 274.932V274.712L126.97 274.778C126.794 275.35 126.493 275.819 126.068 276.186C125.642 276.538 125.166 276.802 124.638 276.978C124.11 277.139 123.589 277.22 123.076 277.22C122.43 277.22 121.829 277.11 121.272 276.89C120.714 276.67 120.267 276.34 119.93 275.9C119.607 275.445 119.446 274.888 119.446 274.228C119.446 273.407 119.717 272.732 120.26 272.204C120.817 271.661 121.587 271.295 122.57 271.104L126.926 270.246V271.698L123.384 272.424C122.665 272.571 122.13 272.776 121.778 273.04C121.426 273.304 121.25 273.671 121.25 274.14C121.25 274.595 121.426 274.969 121.778 275.262C122.144 275.541 122.658 275.68 123.318 275.68C123.743 275.68 124.146 275.629 124.528 275.526C124.924 275.409 125.276 275.24 125.584 275.02C125.892 274.785 126.134 274.499 126.31 274.162C126.486 273.81 126.574 273.399 126.574 272.93V269.894ZM134.777 262.876V273.964C134.777 274.507 134.931 274.91 135.239 275.174C135.547 275.438 135.943 275.57 136.427 275.57C136.852 275.57 137.219 275.497 137.527 275.35C137.835 275.203 138.113 275.005 138.363 274.756L138.979 276.23C138.641 276.538 138.238 276.78 137.769 276.956C137.314 277.132 136.786 277.22 136.185 277.22C135.627 277.22 135.107 277.125 134.623 276.934C134.139 276.729 133.75 276.413 133.457 275.988C133.178 275.548 133.031 274.976 133.017 274.272V263.36L134.777 262.876ZM138.781 266V267.518H130.817V266H138.781ZM142.278 263.888C141.882 263.888 141.559 263.771 141.31 263.536C141.075 263.287 140.958 262.964 140.958 262.568C140.958 262.172 141.075 261.857 141.31 261.622C141.559 261.373 141.882 261.248 142.278 261.248C142.674 261.248 142.989 261.373 143.224 261.622C143.473 261.857 143.598 262.172 143.598 262.568C143.598 262.964 143.473 263.287 143.224 263.536C142.989 263.771 142.674 263.888 142.278 263.888ZM143.158 266V277H141.398V266H143.158ZM147.241 277V266H148.781L148.935 268.464L148.649 268.222C148.884 267.635 149.199 267.166 149.595 266.814C149.991 266.447 150.446 266.183 150.959 266.022C151.487 265.861 152.03 265.78 152.587 265.78C153.379 265.78 154.098 265.934 154.743 266.242C155.389 266.535 155.902 266.99 156.283 267.606C156.679 268.222 156.877 269.007 156.877 269.96V277H155.117V270.576C155.117 269.359 154.853 268.515 154.325 268.046C153.812 267.562 153.174 267.32 152.411 267.32C151.883 267.32 151.355 267.445 150.827 267.694C150.299 267.943 149.859 268.347 149.507 268.904C149.17 269.461 149.001 270.209 149.001 271.148V277H147.241ZM170.124 263.976L170.52 265.538C170.506 265.538 170.484 265.538 170.454 265.538C170.425 265.538 170.396 265.538 170.366 265.538C169.648 265.538 169.09 265.685 168.694 265.978C168.313 266.257 168.122 266.711 168.122 267.342L167.044 266.792C167.044 266.22 167.176 265.721 167.44 265.296C167.704 264.871 168.064 264.548 168.518 264.328C168.973 264.093 169.472 263.976 170.014 263.976C170.029 263.976 170.044 263.976 170.058 263.976C170.088 263.976 170.11 263.976 170.124 263.976ZM166.78 275.592C167.822 275.592 168.636 275.834 169.222 276.318C169.809 276.787 170.102 277.418 170.102 278.21C170.102 278.929 169.86 279.552 169.376 280.08C168.907 280.608 168.269 281.011 167.462 281.29C166.67 281.583 165.776 281.73 164.778 281.73C163.048 281.73 161.75 281.437 160.884 280.85C160.034 280.263 159.608 279.559 159.608 278.738C159.608 278.151 159.799 277.623 160.18 277.154C160.576 276.699 161.236 276.443 162.16 276.384L162.006 276.714C161.508 276.582 161.082 276.362 160.73 276.054C160.393 275.731 160.224 275.269 160.224 274.668C160.224 274.067 160.444 273.553 160.884 273.128C161.339 272.688 162.006 272.417 162.886 272.314L164.052 272.908H163.832C163.114 272.981 162.6 273.165 162.292 273.458C161.999 273.737 161.852 274.045 161.852 274.382C161.852 274.793 161.999 275.101 162.292 275.306C162.6 275.497 163.026 275.592 163.568 275.592H166.78ZM164.756 280.256C165.607 280.256 166.304 280.168 166.846 279.992C167.404 279.816 167.814 279.589 168.078 279.31C168.342 279.031 168.474 278.731 168.474 278.408C168.474 278.012 168.313 277.697 167.99 277.462C167.682 277.227 167.118 277.11 166.296 277.11H162.908C162.439 277.11 162.043 277.227 161.72 277.462C161.398 277.711 161.236 278.049 161.236 278.474C161.236 279.017 161.544 279.449 162.16 279.772C162.791 280.095 163.656 280.256 164.756 280.256ZM164.602 265.78C165.482 265.78 166.26 265.941 166.934 266.264C167.624 266.572 168.159 267.005 168.54 267.562C168.922 268.119 169.112 268.765 169.112 269.498C169.112 270.217 168.922 270.862 168.54 271.434C168.159 271.991 167.624 272.431 166.934 272.754C166.26 273.062 165.482 273.216 164.602 273.216C163.15 273.216 162.036 272.871 161.258 272.182C160.481 271.478 160.092 270.583 160.092 269.498C160.092 268.765 160.283 268.119 160.664 267.562C161.06 267.005 161.596 266.572 162.27 266.264C162.945 265.941 163.722 265.78 164.602 265.78ZM164.602 267.21C163.84 267.21 163.202 267.423 162.688 267.848C162.175 268.259 161.918 268.809 161.918 269.498C161.918 270.173 162.175 270.723 162.688 271.148C163.202 271.573 163.84 271.786 164.602 271.786C165.365 271.786 166.003 271.573 166.516 271.148C167.03 270.723 167.286 270.173 167.286 269.498C167.286 268.809 167.03 268.259 166.516 267.848C166.003 267.423 165.365 267.21 164.602 267.21ZM64.5034 306.248C63.7114 306.248 63.0514 305.999 62.5234 305.5C62.0101 304.987 61.7534 304.349 61.7534 303.586C61.7534 302.809 62.0101 302.171 62.5234 301.672C63.0514 301.173 63.7114 300.924 64.5034 300.924C65.3101 300.924 65.9701 301.173 66.4834 301.672C66.9968 302.171 67.2534 302.809 67.2534 303.586C67.2534 304.349 66.9968 304.987 66.4834 305.5C65.9701 305.999 65.3101 306.248 64.5034 306.248ZM88.062 296.48C90.3353 296.48 92.1173 297.111 93.408 298.372C94.7133 299.619 95.366 301.408 95.366 303.74C95.366 306.072 94.7133 307.869 93.408 309.13C92.1173 310.377 90.3353 311 88.062 311H83.376V296.48H88.062ZM88.238 309.35C89.8953 309.35 91.186 308.859 92.11 307.876C93.0487 306.879 93.518 305.5 93.518 303.74C93.518 301.98 93.0487 300.609 92.11 299.626C91.186 298.629 89.8953 298.13 88.238 298.13H85.136V309.35H88.238ZM103.499 311.22C102.458 311.22 101.527 310.993 100.705 310.538C99.8988 310.083 99.2681 309.431 98.8135 308.58C98.3588 307.715 98.1315 306.688 98.1315 305.5C98.1315 304.312 98.3588 303.293 98.8135 302.442C99.2681 301.577 99.8915 300.917 100.683 300.462C101.475 300.007 102.377 299.78 103.389 299.78C104.416 299.78 105.289 300 106.007 300.44C106.741 300.88 107.298 301.481 107.679 302.244C108.061 302.992 108.251 303.835 108.251 304.774C108.251 305.023 108.244 305.251 108.229 305.456C108.215 305.661 108.193 305.845 108.163 306.006H99.2755V304.444H107.393L106.491 304.62C106.491 303.564 106.198 302.75 105.611 302.178C105.039 301.606 104.284 301.32 103.345 301.32C102.627 301.32 102.003 301.489 101.475 301.826C100.962 302.149 100.559 302.625 100.265 303.256C99.9868 303.872 99.8475 304.62 99.8475 305.5C99.8475 306.365 99.9941 307.113 100.287 307.744C100.581 308.375 100.991 308.859 101.519 309.196C102.062 309.519 102.707 309.68 103.455 309.68C104.262 309.68 104.915 309.526 105.413 309.218C105.927 308.91 106.337 308.492 106.645 307.964L108.031 308.778C107.753 309.277 107.393 309.709 106.953 310.076C106.528 310.443 106.022 310.729 105.435 310.934C104.863 311.125 104.218 311.22 103.499 311.22ZM115.559 311.22C114.488 311.22 113.498 310.993 112.589 310.538C111.694 310.083 111.005 309.438 110.521 308.602L112.017 307.524C112.339 308.199 112.809 308.727 113.425 309.108C114.055 309.489 114.811 309.68 115.691 309.68C116.468 309.68 117.077 309.533 117.517 309.24C117.957 308.932 118.177 308.536 118.177 308.052C118.177 307.744 118.074 307.465 117.869 307.216C117.678 306.952 117.304 306.761 116.747 306.644L114.107 306.094C113.036 305.874 112.266 305.507 111.797 304.994C111.342 304.481 111.115 303.843 111.115 303.08C111.115 302.479 111.283 301.929 111.621 301.43C111.973 300.931 112.464 300.535 113.095 300.242C113.74 299.934 114.495 299.78 115.361 299.78C116.446 299.78 117.363 299.993 118.111 300.418C118.859 300.843 119.416 301.445 119.783 302.222L118.309 303.19C118.059 302.545 117.656 302.075 117.099 301.782C116.541 301.474 115.962 301.32 115.361 301.32C114.833 301.32 114.378 301.393 113.997 301.54C113.63 301.687 113.344 301.892 113.139 302.156C112.948 302.405 112.853 302.691 112.853 303.014C112.853 303.337 112.963 303.637 113.183 303.916C113.403 304.18 113.813 304.371 114.415 304.488L117.165 305.06C118.191 305.265 118.91 305.603 119.321 306.072C119.731 306.541 119.937 307.113 119.937 307.788C119.937 308.477 119.753 309.086 119.387 309.614C119.02 310.127 118.507 310.523 117.847 310.802C117.187 311.081 116.424 311.22 115.559 311.22ZM124.08 297.888C123.684 297.888 123.362 297.771 123.112 297.536C122.878 297.287 122.76 296.964 122.76 296.568C122.76 296.172 122.878 295.857 123.112 295.622C123.362 295.373 123.684 295.248 124.08 295.248C124.476 295.248 124.792 295.373 125.026 295.622C125.276 295.857 125.4 296.172 125.4 296.568C125.4 296.964 125.276 297.287 125.026 297.536C124.792 297.771 124.476 297.888 124.08 297.888ZM124.96 300V311H123.2V300H124.96ZM138.306 297.976L138.702 299.538C138.687 299.538 138.665 299.538 138.636 299.538C138.607 299.538 138.577 299.538 138.548 299.538C137.829 299.538 137.272 299.685 136.876 299.978C136.495 300.257 136.304 300.711 136.304 301.342L135.226 300.792C135.226 300.22 135.358 299.721 135.622 299.296C135.886 298.871 136.245 298.548 136.7 298.328C137.155 298.093 137.653 297.976 138.196 297.976C138.211 297.976 138.225 297.976 138.24 297.976C138.269 297.976 138.291 297.976 138.306 297.976ZM134.962 309.592C136.003 309.592 136.817 309.834 137.404 310.318C137.991 310.787 138.284 311.418 138.284 312.21C138.284 312.929 138.042 313.552 137.558 314.08C137.089 314.608 136.451 315.011 135.644 315.29C134.852 315.583 133.957 315.73 132.96 315.73C131.229 315.73 129.931 315.437 129.066 314.85C128.215 314.263 127.79 313.559 127.79 312.738C127.79 312.151 127.981 311.623 128.362 311.154C128.758 310.699 129.418 310.443 130.342 310.384L130.188 310.714C129.689 310.582 129.264 310.362 128.912 310.054C128.575 309.731 128.406 309.269 128.406 308.668C128.406 308.067 128.626 307.553 129.066 307.128C129.521 306.688 130.188 306.417 131.068 306.314L132.234 306.908H132.014C131.295 306.981 130.782 307.165 130.474 307.458C130.181 307.737 130.034 308.045 130.034 308.382C130.034 308.793 130.181 309.101 130.474 309.306C130.782 309.497 131.207 309.592 131.75 309.592H134.962ZM132.938 314.256C133.789 314.256 134.485 314.168 135.028 313.992C135.585 313.816 135.996 313.589 136.26 313.31C136.524 313.031 136.656 312.731 136.656 312.408C136.656 312.012 136.495 311.697 136.172 311.462C135.864 311.227 135.299 311.11 134.478 311.11H131.09C130.621 311.11 130.225 311.227 129.902 311.462C129.579 311.711 129.418 312.049 129.418 312.474C129.418 313.017 129.726 313.449 130.342 313.772C130.973 314.095 131.838 314.256 132.938 314.256ZM132.784 299.78C133.664 299.78 134.441 299.941 135.116 300.264C135.805 300.572 136.341 301.005 136.722 301.562C137.103 302.119 137.294 302.765 137.294 303.498C137.294 304.217 137.103 304.862 136.722 305.434C136.341 305.991 135.805 306.431 135.116 306.754C134.441 307.062 133.664 307.216 132.784 307.216C131.332 307.216 130.217 306.871 129.44 306.182C128.663 305.478 128.274 304.583 128.274 303.498C128.274 302.765 128.465 302.119 128.846 301.562C129.242 301.005 129.777 300.572 130.452 300.264C131.127 299.941 131.904 299.78 132.784 299.78ZM132.784 301.21C132.021 301.21 131.383 301.423 130.87 301.848C130.357 302.259 130.1 302.809 130.1 303.498C130.1 304.173 130.357 304.723 130.87 305.148C131.383 305.573 132.021 305.786 132.784 305.786C133.547 305.786 134.185 305.573 134.698 305.148C135.211 304.723 135.468 304.173 135.468 303.498C135.468 302.809 135.211 302.259 134.698 301.848C134.185 301.423 133.547 301.21 132.784 301.21ZM140.753 311V300H142.293L142.447 302.464L142.161 302.222C142.396 301.635 142.711 301.166 143.107 300.814C143.503 300.447 143.958 300.183 144.471 300.022C144.999 299.861 145.542 299.78 146.099 299.78C146.891 299.78 147.61 299.934 148.255 300.242C148.9 300.535 149.414 300.99 149.795 301.606C150.191 302.222 150.389 303.007 150.389 303.96V311H148.629V304.576C148.629 303.359 148.365 302.515 147.837 302.046C147.324 301.562 146.686 301.32 145.923 301.32C145.395 301.32 144.867 301.445 144.339 301.694C143.811 301.943 143.371 302.347 143.019 302.904C142.682 303.461 142.513 304.209 142.513 305.148V311H140.753ZM161.568 304.334V306.16H154.308V304.334H161.568ZM170.605 296.48C172.878 296.48 174.66 297.111 175.951 298.372C177.256 299.619 177.909 301.408 177.909 303.74C177.909 306.072 177.256 307.869 175.951 309.13C174.66 310.377 172.878 311 170.605 311H165.919V296.48H170.605ZM170.781 309.35C172.438 309.35 173.729 308.859 174.653 307.876C175.592 306.879 176.061 305.5 176.061 303.74C176.061 301.98 175.592 300.609 174.653 299.626C173.729 298.629 172.438 298.13 170.781 298.13H167.679V309.35H170.781ZM186.042 311.22C185.001 311.22 184.07 310.993 183.248 310.538C182.442 310.083 181.811 309.431 181.356 308.58C180.902 307.715 180.674 306.688 180.674 305.5C180.674 304.312 180.902 303.293 181.356 302.442C181.811 301.577 182.434 300.917 183.226 300.462C184.018 300.007 184.92 299.78 185.932 299.78C186.959 299.78 187.832 300 188.55 300.44C189.284 300.88 189.841 301.481 190.222 302.244C190.604 302.992 190.794 303.835 190.794 304.774C190.794 305.023 190.787 305.251 190.772 305.456C190.758 305.661 190.736 305.845 190.706 306.006H181.818V304.444H189.936L189.034 304.62C189.034 303.564 188.741 302.75 188.154 302.178C187.582 301.606 186.827 301.32 185.888 301.32C185.17 301.32 184.546 301.489 184.018 301.826C183.505 302.149 183.102 302.625 182.808 303.256C182.53 303.872 182.39 304.62 182.39 305.5C182.39 306.365 182.537 307.113 182.83 307.744C183.124 308.375 183.534 308.859 184.062 309.196C184.605 309.519 185.25 309.68 185.998 309.68C186.805 309.68 187.458 309.526 187.956 309.218C188.47 308.91 188.88 308.492 189.188 307.964L190.574 308.778C190.296 309.277 189.936 309.709 189.496 310.076C189.071 310.443 188.565 310.729 187.978 310.934C187.406 311.125 186.761 311.22 186.042 311.22ZM201.123 300H202.971L198.395 311H196.635L192.059 300H194.061L197.537 309.218L201.123 300ZM223.936 296.48V311H222.176V296.48H223.936ZM214.3 296.48V311H212.54V296.48H214.3ZM222.99 302.816V304.466H213.464V302.816H222.99ZM234.661 303.894C234.661 303.073 234.441 302.442 234.001 302.002C233.561 301.547 232.938 301.32 232.131 301.32C231.369 301.32 230.723 301.489 230.195 301.826C229.667 302.149 229.279 302.677 229.029 303.41L227.599 302.53C227.893 301.709 228.435 301.049 229.227 300.55C230.019 300.037 231.002 299.78 232.175 299.78C232.967 299.78 233.686 299.919 234.331 300.198C234.977 300.462 235.483 300.873 235.849 301.43C236.231 301.973 236.421 302.677 236.421 303.542V308.866C236.421 309.394 236.7 309.658 237.257 309.658C237.536 309.658 237.807 309.621 238.071 309.548L237.983 310.934C237.69 311.081 237.309 311.154 236.839 311.154C236.414 311.154 236.033 311.073 235.695 310.912C235.358 310.751 235.094 310.509 234.903 310.186C234.713 309.849 234.617 309.431 234.617 308.932V308.712L235.057 308.778C234.881 309.35 234.581 309.819 234.155 310.186C233.73 310.538 233.253 310.802 232.725 310.978C232.197 311.139 231.677 311.22 231.163 311.22C230.518 311.22 229.917 311.11 229.359 310.89C228.802 310.67 228.355 310.34 228.017 309.9C227.695 309.445 227.533 308.888 227.533 308.228C227.533 307.407 227.805 306.732 228.347 306.204C228.905 305.661 229.675 305.295 230.657 305.104L235.013 304.246V305.698L231.471 306.424C230.753 306.571 230.217 306.776 229.865 307.04C229.513 307.304 229.337 307.671 229.337 308.14C229.337 308.595 229.513 308.969 229.865 309.262C230.232 309.541 230.745 309.68 231.405 309.68C231.831 309.68 232.234 309.629 232.615 309.526C233.011 309.409 233.363 309.24 233.671 309.02C233.979 308.785 234.221 308.499 234.397 308.162C234.573 307.81 234.661 307.399 234.661 306.93V303.894ZM240.698 311V300H242.238L242.392 302.464L242.106 302.222C242.341 301.635 242.656 301.166 243.052 300.814C243.448 300.447 243.903 300.183 244.416 300.022C244.944 299.861 245.487 299.78 246.044 299.78C246.836 299.78 247.555 299.934 248.2 300.242C248.846 300.535 249.359 300.99 249.74 301.606C250.136 302.222 250.334 303.007 250.334 303.96V311H248.574V304.576C248.574 303.359 248.31 302.515 247.782 302.046C247.269 301.562 246.631 301.32 245.868 301.32C245.34 301.32 244.812 301.445 244.284 301.694C243.756 301.943 243.316 302.347 242.964 302.904C242.627 303.461 242.458 304.209 242.458 305.148V311H240.698ZM258.873 299.78C259.915 299.78 260.831 300.007 261.623 300.462C262.43 300.917 263.061 301.577 263.515 302.442C263.97 303.293 264.197 304.312 264.197 305.5C264.197 306.688 263.97 307.715 263.515 308.58C263.061 309.431 262.43 310.083 261.623 310.538C260.831 310.993 259.915 311.22 258.873 311.22C257.847 311.22 256.93 310.993 256.123 310.538C255.317 310.083 254.686 309.431 254.231 308.58C253.777 307.715 253.549 306.688 253.549 305.5C253.549 304.312 253.777 303.293 254.231 302.442C254.686 301.577 255.317 300.917 256.123 300.462C256.93 300.007 257.847 299.78 258.873 299.78ZM258.873 301.298C258.125 301.298 257.487 301.467 256.959 301.804C256.431 302.141 256.021 302.625 255.727 303.256C255.449 303.872 255.309 304.62 255.309 305.5C255.309 306.365 255.449 307.113 255.727 307.744C256.021 308.375 256.431 308.859 256.959 309.196C257.487 309.533 258.125 309.702 258.873 309.702C259.621 309.702 260.259 309.533 260.787 309.196C261.315 308.859 261.719 308.375 261.997 307.744C262.291 307.113 262.437 306.365 262.437 305.5C262.437 304.62 262.291 303.872 261.997 303.256C261.719 302.625 261.315 302.141 260.787 301.804C260.259 301.467 259.621 301.298 258.873 301.298ZM271.783 294.83C272.165 294.83 272.524 294.874 272.861 294.962C273.199 295.05 273.463 295.175 273.653 295.336L273.191 296.766C273.015 296.649 272.825 296.568 272.619 296.524C272.414 296.465 272.187 296.436 271.937 296.436C271.307 296.436 270.815 296.59 270.463 296.898C270.111 297.191 269.935 297.668 269.935 298.328V300V300.572V311H268.175V298.152C268.175 297.668 268.249 297.221 268.395 296.81C268.542 296.399 268.762 296.047 269.055 295.754C269.363 295.461 269.745 295.233 270.199 295.072C270.654 294.911 271.182 294.83 271.783 294.83ZM273.609 300V301.518H265.975V300H273.609ZM280.429 294.83C280.811 294.83 281.17 294.874 281.507 294.962C281.845 295.05 282.109 295.175 282.299 295.336L281.837 296.766C281.661 296.649 281.471 296.568 281.265 296.524C281.06 296.465 280.833 296.436 280.583 296.436C279.953 296.436 279.461 296.59 279.109 296.898C278.757 297.191 278.581 297.668 278.581 298.328V300V300.572V311H276.821V298.152C276.821 297.668 276.895 297.221 277.041 296.81C277.188 296.399 277.408 296.047 277.701 295.754C278.009 295.461 278.391 295.233 278.845 295.072C279.3 294.911 279.828 294.83 280.429 294.83ZM282.255 300V301.518H274.621V300H282.255ZM64.5034 340.248C63.7114 340.248 63.0514 339.999 62.5234 339.5C62.0101 338.987 61.7534 338.349 61.7534 337.586C61.7534 336.809 62.0101 336.171 62.5234 335.672C63.0514 335.173 63.7114 334.924 64.5034 334.924C65.3101 334.924 65.9701 335.173 66.4834 335.672C66.9968 336.171 67.2534 336.809 67.2534 337.586C67.2534 338.349 66.9968 338.987 66.4834 339.5C65.9701 339.999 65.3101 340.248 64.5034 340.248ZM92.748 349.29C92 349.29 91.296 349.151 90.636 348.872C89.976 348.593 89.4333 348.117 89.008 347.442C88.5973 346.767 88.392 345.843 88.392 344.67C88.392 344.538 88.392 344.399 88.392 344.252C88.4067 344.091 88.4213 343.937 88.436 343.79L89.998 343.834C89.9833 343.981 89.9687 344.12 89.954 344.252C89.954 344.369 89.954 344.487 89.954 344.604C89.954 345.44 90.086 346.063 90.35 346.474C90.614 346.885 90.9587 347.156 91.384 347.288C91.824 347.435 92.2933 347.508 92.792 347.508C93.3347 347.508 93.8333 347.435 94.288 347.288C94.7427 347.141 95.1093 346.943 95.388 346.694L95.96 348.322C95.608 348.63 95.1167 348.865 94.486 349.026C93.87 349.202 93.2907 349.29 92.748 349.29ZM89.228 330.26C90.6067 330.26 91.7947 330.568 92.792 331.184C93.804 331.785 94.5813 332.643 95.124 333.758C95.6813 334.873 95.96 336.2 95.96 337.74C95.96 339.28 95.6813 340.607 95.124 341.722C94.5813 342.837 93.804 343.702 92.792 344.318C91.7947 344.919 90.6067 345.22 89.228 345.22C87.8493 345.22 86.654 344.919 85.642 344.318C84.6447 343.702 83.8673 342.837 83.31 341.722C82.7673 340.607 82.496 339.28 82.496 337.74C82.496 336.2 82.7673 334.873 83.31 333.758C83.8673 332.643 84.6447 331.785 85.642 331.184C86.654 330.568 87.8493 330.26 89.228 330.26ZM89.228 331.91C88.2307 331.91 87.3653 332.145 86.632 332.614C85.8987 333.069 85.334 333.736 84.938 334.616C84.542 335.481 84.344 336.523 84.344 337.74C84.344 338.957 84.542 340.006 84.938 340.886C85.334 341.751 85.8987 342.419 86.632 342.888C87.3653 343.343 88.2307 343.57 89.228 343.57C90.24 343.57 91.1053 343.343 91.824 342.888C92.5573 342.419 93.122 341.751 93.518 340.886C93.914 340.006 94.112 338.957 94.112 337.74C94.112 336.523 93.914 335.481 93.518 334.616C93.122 333.736 92.5573 333.069 91.824 332.614C91.1053 332.145 90.24 331.91 89.228 331.91ZM103.485 345.22C102.781 345.22 102.114 345.088 101.483 344.824C100.867 344.56 100.361 344.135 99.965 343.548C99.5837 342.947 99.393 342.169 99.393 341.216V334H101.153V340.754C101.153 341.869 101.395 342.639 101.879 343.064C102.363 343.475 103.045 343.68 103.925 343.68C104.336 343.68 104.739 343.614 105.135 343.482C105.531 343.335 105.883 343.115 106.191 342.822C106.514 342.514 106.763 342.125 106.939 341.656C107.13 341.187 107.225 340.629 107.225 339.984V334H108.985V345H107.445L107.335 343.328C106.954 343.988 106.433 344.472 105.773 344.78C105.128 345.073 104.365 345.22 103.485 345.22ZM119.505 337.894C119.505 337.073 119.285 336.442 118.845 336.002C118.405 335.547 117.782 335.32 116.975 335.32C116.212 335.32 115.567 335.489 115.039 335.826C114.511 336.149 114.122 336.677 113.873 337.41L112.443 336.53C112.736 335.709 113.279 335.049 114.071 334.55C114.863 334.037 115.846 333.78 117.019 333.78C117.811 333.78 118.53 333.919 119.175 334.198C119.82 334.462 120.326 334.873 120.693 335.43C121.074 335.973 121.265 336.677 121.265 337.542V342.866C121.265 343.394 121.544 343.658 122.101 343.658C122.38 343.658 122.651 343.621 122.915 343.548L122.827 344.934C122.534 345.081 122.152 345.154 121.683 345.154C121.258 345.154 120.876 345.073 120.539 344.912C120.202 344.751 119.938 344.509 119.747 344.186C119.556 343.849 119.461 343.431 119.461 342.932V342.712L119.901 342.778C119.725 343.35 119.424 343.819 118.999 344.186C118.574 344.538 118.097 344.802 117.569 344.978C117.041 345.139 116.52 345.22 116.007 345.22C115.362 345.22 114.76 345.11 114.203 344.89C113.646 344.67 113.198 344.34 112.861 343.9C112.538 343.445 112.377 342.888 112.377 342.228C112.377 341.407 112.648 340.732 113.191 340.204C113.748 339.661 114.518 339.295 115.501 339.104L119.857 338.246V339.698L116.315 340.424C115.596 340.571 115.061 340.776 114.709 341.04C114.357 341.304 114.181 341.671 114.181 342.14C114.181 342.595 114.357 342.969 114.709 343.262C115.076 343.541 115.589 343.68 116.249 343.68C116.674 343.68 117.078 343.629 117.459 343.526C117.855 343.409 118.207 343.24 118.515 343.02C118.823 342.785 119.065 342.499 119.241 342.162C119.417 341.81 119.505 341.399 119.505 340.93V337.894ZM127.214 328.94V342.206C127.214 342.763 127.317 343.152 127.522 343.372C127.727 343.577 128.057 343.68 128.512 343.68C128.805 343.68 129.047 343.658 129.238 343.614C129.429 343.57 129.685 343.489 130.008 343.372L129.722 344.912C129.487 345.015 129.231 345.088 128.952 345.132C128.673 345.191 128.387 345.22 128.094 345.22C127.199 345.22 126.532 344.978 126.092 344.494C125.667 344.01 125.454 343.269 125.454 342.272V328.94H127.214ZM133.147 331.888C132.751 331.888 132.428 331.771 132.179 331.536C131.944 331.287 131.827 330.964 131.827 330.568C131.827 330.172 131.944 329.857 132.179 329.622C132.428 329.373 132.751 329.248 133.147 329.248C133.543 329.248 133.858 329.373 134.093 329.622C134.342 329.857 134.467 330.172 134.467 330.568C134.467 330.964 134.342 331.287 134.093 331.536C133.858 331.771 133.543 331.888 133.147 331.888ZM134.027 334V345H132.267V334H134.027ZM140.706 330.876V341.964C140.706 342.507 140.86 342.91 141.168 343.174C141.476 343.438 141.872 343.57 142.356 343.57C142.782 343.57 143.148 343.497 143.456 343.35C143.764 343.203 144.043 343.005 144.292 342.756L144.908 344.23C144.571 344.538 144.168 344.78 143.698 344.956C143.244 345.132 142.716 345.22 142.114 345.22C141.557 345.22 141.036 345.125 140.552 344.934C140.068 344.729 139.68 344.413 139.386 343.988C139.108 343.548 138.961 342.976 138.946 342.272V331.36L140.706 330.876ZM144.71 334V335.518H136.746V334H144.71ZM156.369 334L151.199 346.848C150.921 347.567 150.613 348.131 150.275 348.542C149.953 348.967 149.586 349.268 149.175 349.444C148.779 349.635 148.317 349.73 147.789 349.73C147.291 349.73 146.829 349.657 146.403 349.51C145.993 349.378 145.626 349.195 145.303 348.96L145.787 347.42C146.081 347.684 146.389 347.875 146.711 347.992C147.049 348.124 147.379 348.19 147.701 348.19C148.083 348.19 148.442 348.073 148.779 347.838C149.117 347.603 149.425 347.127 149.703 346.408L150.275 344.978L149.175 342.36L145.677 334H147.679L150.429 341.172L151.111 343.13L151.903 340.952L154.477 334H156.369ZM176.632 345H174.762L173.222 340.974H166.644L165.104 345H163.256L168.91 330.48H171L176.632 345ZM167.282 339.324H172.584L169.922 332.174L167.282 339.324ZM183.106 345.22C182.035 345.22 181.045 344.993 180.136 344.538C179.241 344.083 178.552 343.438 178.068 342.602L179.564 341.524C179.886 342.199 180.356 342.727 180.972 343.108C181.602 343.489 182.358 343.68 183.238 343.68C184.015 343.68 184.624 343.533 185.064 343.24C185.504 342.932 185.724 342.536 185.724 342.052C185.724 341.744 185.621 341.465 185.416 341.216C185.225 340.952 184.851 340.761 184.294 340.644L181.654 340.094C180.583 339.874 179.813 339.507 179.344 338.994C178.889 338.481 178.662 337.843 178.662 337.08C178.662 336.479 178.83 335.929 179.168 335.43C179.52 334.931 180.011 334.535 180.642 334.242C181.287 333.934 182.042 333.78 182.908 333.78C183.993 333.78 184.91 333.993 185.658 334.418C186.406 334.843 186.963 335.445 187.33 336.222L185.856 337.19C185.606 336.545 185.203 336.075 184.646 335.782C184.088 335.474 183.509 335.32 182.908 335.32C182.38 335.32 181.925 335.393 181.544 335.54C181.177 335.687 180.891 335.892 180.686 336.156C180.495 336.405 180.4 336.691 180.4 337.014C180.4 337.337 180.51 337.637 180.73 337.916C180.95 338.18 181.36 338.371 181.962 338.488L184.712 339.06C185.738 339.265 186.457 339.603 186.868 340.072C187.278 340.541 187.484 341.113 187.484 341.788C187.484 342.477 187.3 343.086 186.934 343.614C186.567 344.127 186.054 344.523 185.394 344.802C184.734 345.081 183.971 345.22 183.106 345.22ZM194.707 345.22C193.637 345.22 192.647 344.993 191.737 344.538C190.843 344.083 190.153 343.438 189.669 342.602L191.165 341.524C191.488 342.199 191.957 342.727 192.573 343.108C193.204 343.489 193.959 343.68 194.839 343.68C195.617 343.68 196.225 343.533 196.665 343.24C197.105 342.932 197.325 342.536 197.325 342.052C197.325 341.744 197.223 341.465 197.017 341.216C196.827 340.952 196.453 340.761 195.895 340.644L193.255 340.094C192.185 339.874 191.415 339.507 190.945 338.994C190.491 338.481 190.263 337.843 190.263 337.08C190.263 336.479 190.432 335.929 190.769 335.43C191.121 334.931 191.613 334.535 192.243 334.242C192.889 333.934 193.644 333.78 194.509 333.78C195.595 333.78 196.511 333.993 197.259 334.418C198.007 334.843 198.565 335.445 198.931 336.222L197.457 337.19C197.208 336.545 196.805 336.075 196.247 335.782C195.69 335.474 195.111 335.32 194.509 335.32C193.981 335.32 193.527 335.393 193.145 335.54C192.779 335.687 192.493 335.892 192.287 336.156C192.097 336.405 192.001 336.691 192.001 337.014C192.001 337.337 192.111 337.637 192.331 337.916C192.551 338.18 192.962 338.371 193.563 338.488L196.313 339.06C197.34 339.265 198.059 339.603 198.469 340.072C198.88 340.541 199.085 341.113 199.085 341.788C199.085 342.477 198.902 343.086 198.535 343.614C198.169 344.127 197.655 344.523 196.995 344.802C196.335 345.081 195.573 345.22 194.707 345.22ZM206.331 345.22C205.627 345.22 204.959 345.088 204.329 344.824C203.713 344.56 203.207 344.135 202.811 343.548C202.429 342.947 202.239 342.169 202.239 341.216V334H203.999V340.754C203.999 341.869 204.241 342.639 204.725 343.064C205.209 343.475 205.891 343.68 206.771 343.68C207.181 343.68 207.585 343.614 207.981 343.482C208.377 343.335 208.729 343.115 209.037 342.822C209.359 342.514 209.609 342.125 209.785 341.656C209.975 341.187 210.071 340.629 210.071 339.984V334H211.831V345H210.291L210.181 343.328C209.799 343.988 209.279 344.472 208.619 344.78C207.973 345.073 207.211 345.22 206.331 345.22ZM215.927 345V334H217.357L217.599 335.804C217.907 335.129 218.354 334.623 218.941 334.286C219.542 333.949 220.268 333.78 221.119 333.78C221.31 333.78 221.515 333.795 221.735 333.824C221.97 333.853 222.168 333.912 222.329 334L222.021 335.606C221.86 335.547 221.684 335.503 221.493 335.474C221.302 335.445 221.031 335.43 220.679 335.43C220.224 335.43 219.762 335.562 219.293 335.826C218.838 336.09 218.457 336.493 218.149 337.036C217.841 337.564 217.687 338.239 217.687 339.06V345H215.927ZM231.031 337.894C231.031 337.073 230.811 336.442 230.371 336.002C229.931 335.547 229.307 335.32 228.501 335.32C227.738 335.32 227.093 335.489 226.565 335.826C226.037 336.149 225.648 336.677 225.399 337.41L223.969 336.53C224.262 335.709 224.805 335.049 225.597 334.55C226.389 334.037 227.371 333.78 228.545 333.78C229.337 333.78 230.055 333.919 230.701 334.198C231.346 334.462 231.852 334.873 232.219 335.43C232.6 335.973 232.791 336.677 232.791 337.542V342.866C232.791 343.394 233.069 343.658 233.627 343.658C233.905 343.658 234.177 343.621 234.441 343.548L234.353 344.934C234.059 345.081 233.678 345.154 233.209 345.154C232.783 345.154 232.402 345.073 232.065 344.912C231.727 344.751 231.463 344.509 231.273 344.186C231.082 343.849 230.987 343.431 230.987 342.932V342.712L231.427 342.778C231.251 343.35 230.95 343.819 230.525 344.186C230.099 344.538 229.623 344.802 229.095 344.978C228.567 345.139 228.046 345.22 227.533 345.22C226.887 345.22 226.286 345.11 225.729 344.89C225.171 344.67 224.724 344.34 224.387 343.9C224.064 343.445 223.903 342.888 223.903 342.228C223.903 341.407 224.174 340.732 224.717 340.204C225.274 339.661 226.044 339.295 227.027 339.104L231.383 338.246V339.698L227.841 340.424C227.122 340.571 226.587 340.776 226.235 341.04C225.883 341.304 225.707 341.671 225.707 342.14C225.707 342.595 225.883 342.969 226.235 343.262C226.601 343.541 227.115 343.68 227.775 343.68C228.2 343.68 228.603 343.629 228.985 343.526C229.381 343.409 229.733 343.24 230.041 343.02C230.349 342.785 230.591 342.499 230.767 342.162C230.943 341.81 231.031 341.399 231.031 340.93V337.894ZM237.067 345V334H238.607L238.761 336.464L238.475 336.222C238.71 335.635 239.025 335.166 239.421 334.814C239.817 334.447 240.272 334.183 240.785 334.022C241.313 333.861 241.856 333.78 242.413 333.78C243.205 333.78 243.924 333.934 244.569 334.242C245.215 334.535 245.728 334.99 246.109 335.606C246.505 336.222 246.703 337.007 246.703 337.96V345H244.943V338.576C244.943 337.359 244.679 336.515 244.151 336.046C243.638 335.562 243 335.32 242.237 335.32C241.709 335.32 241.181 335.445 240.653 335.694C240.125 335.943 239.685 336.347 239.333 336.904C238.996 337.461 238.827 338.209 238.827 339.148V345H237.067ZM255.243 333.78C256.005 333.78 256.673 333.897 257.245 334.132C257.831 334.367 258.337 334.704 258.763 335.144C259.188 335.584 259.533 336.105 259.797 336.706L258.125 337.498C257.89 336.794 257.531 336.259 257.047 335.892C256.577 335.511 255.961 335.32 255.199 335.32C254.465 335.32 253.835 335.489 253.307 335.826C252.779 336.149 252.375 336.625 252.097 337.256C251.818 337.872 251.679 338.62 251.679 339.5C251.679 340.365 251.818 341.113 252.097 341.744C252.375 342.375 252.779 342.859 253.307 343.196C253.835 343.519 254.465 343.68 255.199 343.68C255.771 343.68 256.262 343.592 256.673 343.416C257.098 343.24 257.443 342.983 257.707 342.646C257.985 342.309 258.176 341.898 258.279 341.414L259.907 341.986C259.657 342.661 259.313 343.24 258.873 343.724C258.447 344.208 257.927 344.582 257.311 344.846C256.709 345.095 256.02 345.22 255.243 345.22C254.216 345.22 253.299 344.993 252.493 344.538C251.686 344.083 251.055 343.431 250.601 342.58C250.146 341.715 249.919 340.688 249.919 339.5C249.919 338.312 250.146 337.293 250.601 336.442C251.055 335.577 251.686 334.917 252.493 334.462C253.299 334.007 254.216 333.78 255.243 333.78ZM267.597 345.22C266.556 345.22 265.624 344.993 264.803 344.538C263.996 344.083 263.366 343.431 262.911 342.58C262.456 341.715 262.229 340.688 262.229 339.5C262.229 338.312 262.456 337.293 262.911 336.442C263.366 335.577 263.989 334.917 264.781 334.462C265.573 334.007 266.475 333.78 267.487 333.78C268.514 333.78 269.386 334 270.105 334.44C270.838 334.88 271.396 335.481 271.777 336.244C272.158 336.992 272.349 337.835 272.349 338.774C272.349 339.023 272.342 339.251 272.327 339.456C272.312 339.661 272.29 339.845 272.261 340.006H263.373V338.444H271.491L270.589 338.62C270.589 337.564 270.296 336.75 269.709 336.178C269.137 335.606 268.382 335.32 267.443 335.32C266.724 335.32 266.101 335.489 265.573 335.826C265.06 336.149 264.656 336.625 264.363 337.256C264.084 337.872 263.945 338.62 263.945 339.5C263.945 340.365 264.092 341.113 264.385 341.744C264.678 342.375 265.089 342.859 265.617 343.196C266.16 343.519 266.805 343.68 267.553 343.68C268.36 343.68 269.012 343.526 269.511 343.218C270.024 342.91 270.435 342.492 270.743 341.964L272.129 342.778C271.85 343.277 271.491 343.709 271.051 344.076C270.626 344.443 270.12 344.729 269.533 344.934C268.961 345.125 268.316 345.22 267.597 345.22ZM64.5034 374.248C63.7114 374.248 63.0514 373.999 62.5234 373.5C62.0101 372.987 61.7534 372.349 61.7534 371.586C61.7534 370.809 62.0101 370.171 62.5234 369.672C63.0514 369.173 63.7114 368.924 64.5034 368.924C65.3101 368.924 65.9701 369.173 66.4834 369.672C66.9968 370.171 67.2534 370.809 67.2534 371.586C67.2534 372.349 66.9968 372.987 66.4834 373.5C65.9701 373.999 65.3101 374.248 64.5034 374.248ZM93.584 364.48V366.13H88.524V379H86.764V366.13H81.704V364.48H93.584ZM94.798 379V368H96.228L96.47 369.804C96.778 369.129 97.2253 368.623 97.812 368.286C98.4133 367.949 99.1393 367.78 99.99 367.78C100.181 367.78 100.386 367.795 100.606 367.824C100.841 367.853 101.039 367.912 101.2 368L100.892 369.606C100.731 369.547 100.555 369.503 100.364 369.474C100.173 369.445 99.902 369.43 99.55 369.43C99.0953 369.43 98.6333 369.562 98.164 369.826C97.7093 370.09 97.328 370.493 97.02 371.036C96.712 371.564 96.558 372.239 96.558 373.06V379H94.798ZM109.902 371.894C109.902 371.073 109.682 370.442 109.242 370.002C108.802 369.547 108.178 369.32 107.372 369.32C106.609 369.32 105.964 369.489 105.436 369.826C104.908 370.149 104.519 370.677 104.27 371.41L102.84 370.53C103.133 369.709 103.676 369.049 104.468 368.55C105.26 368.037 106.242 367.78 107.416 367.78C108.208 367.78 108.926 367.919 109.572 368.198C110.217 368.462 110.723 368.873 111.09 369.43C111.471 369.973 111.662 370.677 111.662 371.542V376.866C111.662 377.394 111.94 377.658 112.498 377.658C112.776 377.658 113.048 377.621 113.312 377.548L113.224 378.934C112.93 379.081 112.549 379.154 112.08 379.154C111.654 379.154 111.273 379.073 110.936 378.912C110.598 378.751 110.334 378.509 110.144 378.186C109.953 377.849 109.858 377.431 109.858 376.932V376.712L110.298 376.778C110.122 377.35 109.821 377.819 109.396 378.186C108.97 378.538 108.494 378.802 107.966 378.978C107.438 379.139 106.917 379.22 106.404 379.22C105.758 379.22 105.157 379.11 104.6 378.89C104.042 378.67 103.595 378.34 103.258 377.9C102.935 377.445 102.774 376.888 102.774 376.228C102.774 375.407 103.045 374.732 103.588 374.204C104.145 373.661 104.915 373.295 105.898 373.104L110.254 372.246V373.698L106.712 374.424C105.993 374.571 105.458 374.776 105.106 375.04C104.754 375.304 104.578 375.671 104.578 376.14C104.578 376.595 104.754 376.969 105.106 377.262C105.472 377.541 105.986 377.68 106.646 377.68C107.071 377.68 107.474 377.629 107.856 377.526C108.252 377.409 108.604 377.24 108.912 377.02C109.22 376.785 109.462 376.499 109.638 376.162C109.814 375.81 109.902 375.399 109.902 374.93V371.894ZM120.493 367.78C121.255 367.78 121.923 367.897 122.495 368.132C123.081 368.367 123.587 368.704 124.013 369.144C124.438 369.584 124.783 370.105 125.047 370.706L123.375 371.498C123.14 370.794 122.781 370.259 122.297 369.892C121.827 369.511 121.211 369.32 120.449 369.32C119.715 369.32 119.085 369.489 118.557 369.826C118.029 370.149 117.625 370.625 117.347 371.256C117.068 371.872 116.929 372.62 116.929 373.5C116.929 374.365 117.068 375.113 117.347 375.744C117.625 376.375 118.029 376.859 118.557 377.196C119.085 377.519 119.715 377.68 120.449 377.68C121.021 377.68 121.512 377.592 121.923 377.416C122.348 377.24 122.693 376.983 122.957 376.646C123.235 376.309 123.426 375.898 123.529 375.414L125.157 375.986C124.907 376.661 124.563 377.24 124.123 377.724C123.697 378.208 123.177 378.582 122.561 378.846C121.959 379.095 121.27 379.22 120.493 379.22C119.466 379.22 118.549 378.993 117.743 378.538C116.936 378.083 116.305 377.431 115.851 376.58C115.396 375.715 115.169 374.688 115.169 373.5C115.169 372.312 115.396 371.293 115.851 370.442C116.305 369.577 116.936 368.917 117.743 368.462C118.549 368.007 119.466 367.78 120.493 367.78ZM137.907 368L133.155 372.752L132.737 373.17L129.129 376.778V374.578L135.685 368H137.907ZM130.009 362.94V379H128.249V362.94H130.009ZM133.309 371.85L138.171 379H136.037L131.835 372.84L133.309 371.85ZM141.612 365.888C141.216 365.888 140.893 365.771 140.644 365.536C140.409 365.287 140.292 364.964 140.292 364.568C140.292 364.172 140.409 363.857 140.644 363.622C140.893 363.373 141.216 363.248 141.612 363.248C142.008 363.248 142.323 363.373 142.558 363.622C142.807 363.857 142.932 364.172 142.932 364.568C142.932 364.964 142.807 365.287 142.558 365.536C142.323 365.771 142.008 365.888 141.612 365.888ZM142.492 368V379H140.732V368H142.492ZM146.575 379V368H148.115L148.269 370.464L147.983 370.222C148.218 369.635 148.533 369.166 148.929 368.814C149.325 368.447 149.78 368.183 150.293 368.022C150.821 367.861 151.364 367.78 151.921 367.78C152.713 367.78 153.432 367.934 154.077 368.242C154.723 368.535 155.236 368.99 155.617 369.606C156.013 370.222 156.211 371.007 156.211 371.96V379H154.451V372.576C154.451 371.359 154.187 370.515 153.659 370.046C153.146 369.562 152.508 369.32 151.745 369.32C151.217 369.32 150.689 369.445 150.161 369.694C149.633 369.943 149.193 370.347 148.841 370.904C148.504 371.461 148.335 372.209 148.335 373.148V379H146.575ZM169.458 365.976L169.854 367.538C169.84 367.538 169.818 367.538 169.788 367.538C169.759 367.538 169.73 367.538 169.7 367.538C168.982 367.538 168.424 367.685 168.028 367.978C167.647 368.257 167.456 368.711 167.456 369.342L166.378 368.792C166.378 368.22 166.51 367.721 166.774 367.296C167.038 366.871 167.398 366.548 167.852 366.328C168.307 366.093 168.806 365.976 169.348 365.976C169.363 365.976 169.378 365.976 169.392 365.976C169.422 365.976 169.444 365.976 169.458 365.976ZM166.114 377.592C167.156 377.592 167.97 377.834 168.556 378.318C169.143 378.787 169.436 379.418 169.436 380.21C169.436 380.929 169.194 381.552 168.71 382.08C168.241 382.608 167.603 383.011 166.796 383.29C166.004 383.583 165.11 383.73 164.112 383.73C162.382 383.73 161.084 383.437 160.218 382.85C159.368 382.263 158.942 381.559 158.942 380.738C158.942 380.151 159.133 379.623 159.514 379.154C159.91 378.699 160.57 378.443 161.494 378.384L161.34 378.714C160.842 378.582 160.416 378.362 160.064 378.054C159.727 377.731 159.558 377.269 159.558 376.668C159.558 376.067 159.778 375.553 160.218 375.128C160.673 374.688 161.34 374.417 162.22 374.314L163.386 374.908H163.166C162.448 374.981 161.934 375.165 161.626 375.458C161.333 375.737 161.186 376.045 161.186 376.382C161.186 376.793 161.333 377.101 161.626 377.306C161.934 377.497 162.36 377.592 162.902 377.592H166.114ZM164.09 382.256C164.941 382.256 165.638 382.168 166.18 381.992C166.738 381.816 167.148 381.589 167.412 381.31C167.676 381.031 167.808 380.731 167.808 380.408C167.808 380.012 167.647 379.697 167.324 379.462C167.016 379.227 166.452 379.11 165.63 379.11H162.242C161.773 379.11 161.377 379.227 161.054 379.462C160.732 379.711 160.57 380.049 160.57 380.474C160.57 381.017 160.878 381.449 161.494 381.772C162.125 382.095 162.99 382.256 164.09 382.256ZM163.936 367.78C164.816 367.78 165.594 367.941 166.268 368.264C166.958 368.572 167.493 369.005 167.874 369.562C168.256 370.119 168.446 370.765 168.446 371.498C168.446 372.217 168.256 372.862 167.874 373.434C167.493 373.991 166.958 374.431 166.268 374.754C165.594 375.062 164.816 375.216 163.936 375.216C162.484 375.216 161.37 374.871 160.592 374.182C159.815 373.478 159.426 372.583 159.426 371.498C159.426 370.765 159.617 370.119 159.998 369.562C160.394 369.005 160.93 368.572 161.604 368.264C162.279 367.941 163.056 367.78 163.936 367.78ZM163.936 369.21C163.174 369.21 162.536 369.423 162.022 369.848C161.509 370.259 161.252 370.809 161.252 371.498C161.252 372.173 161.509 372.723 162.022 373.148C162.536 373.573 163.174 373.786 163.936 373.786C164.699 373.786 165.337 373.573 165.85 373.148C166.364 372.723 166.62 372.173 166.62 371.498C166.62 370.809 166.364 370.259 165.85 369.848C165.337 369.423 164.699 369.21 163.936 369.21ZM179.403 379V368H180.833L181.075 369.804C181.383 369.129 181.831 368.623 182.417 368.286C183.019 367.949 183.745 367.78 184.595 367.78C184.786 367.78 184.991 367.795 185.211 367.824C185.446 367.853 185.644 367.912 185.805 368L185.497 369.606C185.336 369.547 185.16 369.503 184.969 369.474C184.779 369.445 184.507 369.43 184.155 369.43C183.701 369.43 183.239 369.562 182.769 369.826C182.315 370.09 181.933 370.493 181.625 371.036C181.317 371.564 181.163 372.239 181.163 373.06V379H179.403ZM192.638 379.22C191.597 379.22 190.665 378.993 189.844 378.538C189.037 378.083 188.407 377.431 187.952 376.58C187.497 375.715 187.27 374.688 187.27 373.5C187.27 372.312 187.497 371.293 187.952 370.442C188.407 369.577 189.03 368.917 189.822 368.462C190.614 368.007 191.516 367.78 192.528 367.78C193.555 367.78 194.427 368 195.146 368.44C195.879 368.88 196.437 369.481 196.818 370.244C197.199 370.992 197.39 371.835 197.39 372.774C197.39 373.023 197.383 373.251 197.368 373.456C197.353 373.661 197.331 373.845 197.302 374.006H188.414V372.444H196.532L195.63 372.62C195.63 371.564 195.337 370.75 194.75 370.178C194.178 369.606 193.423 369.32 192.484 369.32C191.765 369.32 191.142 369.489 190.614 369.826C190.101 370.149 189.697 370.625 189.404 371.256C189.125 371.872 188.986 372.62 188.986 373.5C188.986 374.365 189.133 375.113 189.426 375.744C189.719 376.375 190.13 376.859 190.658 377.196C191.201 377.519 191.846 377.68 192.594 377.68C193.401 377.68 194.053 377.526 194.552 377.218C195.065 376.91 195.476 376.492 195.784 375.964L197.17 376.778C196.891 377.277 196.532 377.709 196.092 378.076C195.667 378.443 195.161 378.729 194.574 378.934C194.002 379.125 193.357 379.22 192.638 379.22ZM204.697 379.22C203.627 379.22 202.637 378.993 201.727 378.538C200.833 378.083 200.143 377.438 199.659 376.602L201.155 375.524C201.478 376.199 201.947 376.727 202.563 377.108C203.194 377.489 203.949 377.68 204.829 377.68C205.607 377.68 206.215 377.533 206.655 377.24C207.095 376.932 207.315 376.536 207.315 376.052C207.315 375.744 207.213 375.465 207.007 375.216C206.817 374.952 206.443 374.761 205.885 374.644L203.245 374.094C202.175 373.874 201.405 373.507 200.935 372.994C200.481 372.481 200.253 371.843 200.253 371.08C200.253 370.479 200.422 369.929 200.759 369.43C201.111 368.931 201.603 368.535 202.233 368.242C202.879 367.934 203.634 367.78 204.499 367.78C205.585 367.78 206.501 367.993 207.249 368.418C207.997 368.843 208.555 369.445 208.921 370.222L207.447 371.19C207.198 370.545 206.795 370.075 206.237 369.782C205.68 369.474 205.101 369.32 204.499 369.32C203.971 369.32 203.517 369.393 203.135 369.54C202.769 369.687 202.483 369.892 202.277 370.156C202.087 370.405 201.991 370.691 201.991 371.014C201.991 371.337 202.101 371.637 202.321 371.916C202.541 372.18 202.952 372.371 203.553 372.488L206.303 373.06C207.33 373.265 208.049 373.603 208.459 374.072C208.87 374.541 209.075 375.113 209.075 375.788C209.075 376.477 208.892 377.086 208.525 377.614C208.159 378.127 207.645 378.523 206.985 378.802C206.325 379.081 205.563 379.22 204.697 379.22ZM216.321 379.22C215.617 379.22 214.95 379.088 214.319 378.824C213.703 378.56 213.197 378.135 212.801 377.548C212.42 376.947 212.229 376.169 212.229 375.216V368H213.989V374.754C213.989 375.869 214.231 376.639 214.715 377.064C215.199 377.475 215.881 377.68 216.761 377.68C217.172 377.68 217.575 377.614 217.971 377.482C218.367 377.335 218.719 377.115 219.027 376.822C219.35 376.514 219.599 376.125 219.775 375.656C219.966 375.187 220.061 374.629 220.061 373.984V368H221.821V379H220.281L220.171 377.328C219.79 377.988 219.269 378.472 218.609 378.78C217.964 379.073 217.201 379.22 216.321 379.22ZM227.589 362.94V376.206C227.589 376.763 227.692 377.152 227.897 377.372C228.102 377.577 228.432 377.68 228.887 377.68C229.18 377.68 229.422 377.658 229.613 377.614C229.804 377.57 230.06 377.489 230.383 377.372L230.097 378.912C229.862 379.015 229.606 379.088 229.327 379.132C229.048 379.191 228.762 379.22 228.469 379.22C227.574 379.22 226.907 378.978 226.467 378.494C226.042 378.01 225.829 377.269 225.829 376.272V362.94H227.589ZM234.808 364.876V375.964C234.808 376.507 234.962 376.91 235.27 377.174C235.578 377.438 235.974 377.57 236.458 377.57C236.883 377.57 237.25 377.497 237.558 377.35C237.866 377.203 238.145 377.005 238.394 376.756L239.01 378.23C238.673 378.538 238.269 378.78 237.8 378.956C237.345 379.132 236.817 379.22 236.216 379.22C235.659 379.22 235.138 379.125 234.654 378.934C234.17 378.729 233.781 378.413 233.488 377.988C233.209 377.548 233.063 376.976 233.048 376.272V365.36L234.808 364.876ZM238.812 368V369.518H230.848V368H238.812ZM245.389 379.22C244.318 379.22 243.328 378.993 242.419 378.538C241.524 378.083 240.835 377.438 240.351 376.602L241.847 375.524C242.169 376.199 242.639 376.727 243.255 377.108C243.885 377.489 244.641 377.68 245.521 377.68C246.298 377.68 246.907 377.533 247.347 377.24C247.787 376.932 248.007 376.536 248.007 376.052C248.007 375.744 247.904 375.465 247.699 375.216C247.508 374.952 247.134 374.761 246.577 374.644L243.937 374.094C242.866 373.874 242.096 373.507 241.627 372.994C241.172 372.481 240.945 371.843 240.945 371.08C240.945 370.479 241.113 369.929 241.451 369.43C241.803 368.931 242.294 368.535 242.925 368.242C243.57 367.934 244.325 367.78 245.191 367.78C246.276 367.78 247.193 367.993 247.941 368.418C248.689 368.843 249.246 369.445 249.613 370.222L248.139 371.19C247.889 370.545 247.486 370.075 246.929 369.782C246.371 369.474 245.792 369.32 245.191 369.32C244.663 369.32 244.208 369.393 243.827 369.54C243.46 369.687 243.174 369.892 242.969 370.156C242.778 370.405 242.683 370.691 242.683 371.014C242.683 371.337 242.793 371.637 243.013 371.916C243.233 372.18 243.643 372.371 244.245 372.488L246.995 373.06C248.021 373.265 248.74 373.603 249.151 374.072C249.561 374.541 249.767 375.113 249.767 375.788C249.767 376.477 249.583 377.086 249.217 377.614C248.85 378.127 248.337 378.523 247.677 378.802C247.017 379.081 246.254 379.22 245.389 379.22Z" fill="#13131A"/>
</svg>
