<svg width="171" height="160" viewBox="0 0 171 160" fill="none" xmlns="http://www.w3.org/2000/svg">
<path d="M11.4808 31.9265C21.4552 2.0193 72.0708 -1.52235 96.1319 0.445235C105.1 0.445235 126.58 1.88811 140.754 7.6596C158.472 14.874 164.377 23.4002 168.971 47.0112C172.646 65.9 145.129 76.7435 130.911 79.8042C138.129 79.8042 164.377 92.2655 168.971 106.039C172.646 117.057 170.502 127.682 168.971 131.617C169.496 148.407 133.754 156.54 115.818 158.507C98.1002 160.475 56.1028 162.049 29.8544 152.605C3.60595 143.16 -0.768694 126.808 0.325034 119.812C-3.34974 97.7748 25.0423 83.958 39.6977 79.8042C25.261 75.869 18.0429 66.687 11.4808 56.8491C6.23107 48.9788 9.29339 36.9547 11.4808 31.9265Z" fill="#FF8B73"/>
</svg>
