<svg width="375" height="220" viewBox="0 0 375 220" fill="none" xmlns="http://www.w3.org/2000/svg">
<rect width="375" height="219.76" fill="#13131A"/>
<path d="M37.8532 32.2477C42.9265 17.0276 68.6715 15.2253 80.9098 16.2266C85.4713 16.2266 96.3967 16.9609 103.606 19.898C112.618 23.5695 115.622 27.9086 117.958 39.9244C119.828 49.537 105.831 55.0554 98.5996 56.613C102.271 56.613 115.622 62.9547 117.958 69.9639C119.828 75.5713 118.737 80.9784 117.958 82.981C118.225 91.5256 100.046 95.6643 90.9229 96.6657C81.911 97.667 60.5496 98.468 47.1987 93.6617C33.8478 88.8554 31.6227 80.5333 32.179 76.9731C30.3099 65.7583 44.7511 58.7269 52.2053 56.613C44.8623 54.6103 41.1909 49.9375 37.8532 44.931C35.183 40.9257 36.7406 34.8066 37.8532 32.2477Z" fill="#FF8B73"/>
<path d="M166.656 24.39C178.744 12.5109 199.394 15.8598 208.208 19.0192C210.831 19.651 218.03 23.379 225.836 33.2362C233.643 43.0933 236.224 56.51 236.539 61.9862C239.309 74.1181 231.608 85.9972 227.41 90.4203C220.485 94.2115 205.06 98.6346 178.933 97.0549C158.031 95.7912 148.818 80.521 146.825 73.0439C146.195 72.9386 145.314 69.1895 146.825 55.0356C148.336 40.8818 160.675 28.7078 166.656 24.39Z" fill="#E36785"/>
<path d="M342.987 97.4152H264.127C266.575 86.7324 273.258 61.2644 280.41 44.8555C289.349 24.3444 293.819 16.0117 303.397 16.0117C312.975 16.0117 322.553 30.4336 329.897 51.9062C335.771 69.0842 341.071 89.4031 342.987 97.4152Z" fill="#7B9C4D"/>
<path d="M29.1055 167.495V187.504C29.1055 189.38 29.5433 194.069 31.2948 197.821C33.0462 201.572 37.0287 203.344 38.801 203.761H44.4306C53.6882 203.261 56.6282 192.715 56.9409 187.504C57.775 178.333 59.5055 159.805 59.7558 159.054C60.006 158.304 60.9025 158.116 61.3195 158.116C63.8216 158.367 62.9876 169.892 62.2578 175.624C61.4238 182.189 60.5689 196.195 63.8216 199.697C67.0743 203.198 71.6406 203.24 73.5171 202.823C83.2752 202.573 86.7572 189.171 87.2785 182.502C89.5303 165.995 91.1358 163.535 91.6571 164.369C94.4093 161.868 94.2634 171.455 93.8464 176.562C92.3451 191.068 96.1399 197.612 98.225 199.071L104.793 201.26C115.552 201.26 118.45 186.045 118.554 178.438C119.805 159.93 113.863 145.924 110.735 141.234C107.399 136.545 96.974 126.478 81.9616 123.727C63.1961 120.288 61.0068 124.039 46.6199 130.605C35.1104 135.857 30.148 157.387 29.1055 167.495Z" fill="#5556AF"/>
<path d="M179.61 122.43L192.28 139.225L203.772 122.43L205.54 145.708L221.746 133.037L214.085 154.547L233.827 158.967L216.737 167.807L233.827 179.298H211.728L216.737 197.272L199.647 186.37L201.415 203.755L187.566 186.37L176.074 199.63V179.298L158.984 189.906L167.529 172.227L145.725 166.334L163.404 158.967L147.787 150.717H171.36L163.404 130.68L182.557 142.466L179.61 122.43Z" fill="#B3B3B3"/>
<path d="M288.689 200.491C275.918 195.172 264.793 178.618 260.826 171.006C269.185 171.006 282.884 168.693 288.689 167.537C297.977 166.959 313.649 155.107 318.003 149.036C321.486 144.18 328.161 129.283 331.064 122.441C341.048 140.017 344.318 151.541 344.705 155.107C349.348 171.063 339.287 187.001 333.676 192.975C325.839 203.093 304.652 207.14 288.689 200.491Z" fill="#BFD22D"/>
</svg>
