<svg width="176" height="160" viewBox="0 0 176 160" fill="none" xmlns="http://www.w3.org/2000/svg">
<path d="M0 88.6598V128.02C0 131.71 0.8599 140.935 4.2995 148.315C7.7391 155.695 15.5601 159.18 19.0406 160H30.0965C48.2772 159.016 54.0509 138.27 54.6651 128.02C56.303 109.98 59.7016 73.5307 60.193 72.0547C60.6844 70.5787 62.4451 70.2097 63.2641 70.2097C68.1778 70.7017 66.5399 93.3747 65.1067 104.65C63.4688 117.565 61.79 145.117 68.1778 152.005C74.5656 158.893 83.5331 158.975 87.2184 158.155C106.382 157.663 113.22 131.3 114.244 118.18C118.666 85.7077 121.819 80.8697 122.843 82.5097C128.248 77.5897 127.961 96.4498 127.142 106.495C124.194 135.031 131.647 147.905 135.741 150.775L148.64 155.08C169.769 155.08 175.461 125.15 175.665 110.185C178.122 73.7767 166.452 46.2246 160.31 36.9995C153.758 27.7745 133.285 7.97146 103.802 2.55944C66.9494 -4.20559 62.6499 3.17444 34.396 16.0895C11.7929 26.4215 2.04738 68.7747 0 88.6598Z" fill="#5556AF"/>
</svg>
