<svg width="1440" height="407" viewBox="0 0 1440 407" fill="none" xmlns="http://www.w3.org/2000/svg">
<rect width="1440" height="407" fill="#13131A"/>
<path d="M1293.54 34L1318.42 67.0435L1340.98 34L1344.45 79.7971L1376.28 54.8696L1361.23 97.1884L1400 105.884L1366.44 123.275L1400 145.884H1356.61L1366.44 181.246L1332.88 159.797L1336.35 194L1309.16 159.797L1286.6 185.884V145.884L1253.04 166.754L1269.82 131.971L1227 120.377L1261.72 105.884L1231.05 89.6522H1277.34L1261.72 50.2319L1299.32 73.4203L1293.54 34Z" fill="#B3B3B3"/>
<path d="M1238.48 244.927C1248.46 215.019 1299.07 211.478 1323.13 213.445C1332.1 213.445 1353.58 214.888 1367.75 220.66C1385.47 227.874 1391.38 236.4 1395.97 260.011C1399.65 278.9 1372.13 289.744 1357.91 292.804C1365.13 292.804 1391.38 305.266 1395.97 319.039C1399.65 330.057 1397.5 340.682 1395.97 344.617C1396.5 361.407 1360.75 369.54 1342.82 371.507C1325.1 373.475 1283.1 375.049 1256.85 365.605C1230.61 356.16 1226.23 339.808 1227.33 332.812C1223.65 310.775 1252.04 296.958 1266.7 292.804C1252.26 288.869 1245.04 279.687 1238.48 269.849C1233.23 261.979 1236.29 249.955 1238.48 244.927Z" fill="#FF8B73"/>
<path d="M64.5899 50.4259C88.3316 27.0603 128.89 33.6474 146.202 39.8617C151.354 41.1045 165.492 48.4373 180.825 67.8257C196.159 87.2141 201.228 113.604 201.847 124.375C207.288 148.238 192.16 171.603 183.917 180.303C170.315 187.76 140.019 196.46 88.7026 193.353C47.6492 190.868 29.5544 160.832 25.6386 146.125C24.4021 145.918 22.6709 138.544 25.6386 110.704C28.6063 82.8641 52.8427 58.9186 64.5899 50.4259Z" fill="#E36785"/>
<path d="M51.3742 224.475C18.8839 248.238 21.9352 300.67 27.5222 323.917C30.2812 345.613 47.1518 355.772 55.2422 358.14C77.4182 368.988 89.4086 347.163 92.6318 334.894C95.2104 300.283 103.591 289.478 107.459 288.402C115.71 284.786 117.773 302.823 117.773 312.294L121.641 352.329C130.021 380.74 147.427 371.7 166.122 365.889C181.078 361.24 183.957 315.307 183.527 292.922C187.653 245.913 163.758 225.121 151.295 220.6C113.132 197.871 68.7797 213.713 51.3742 224.475Z" fill="#FF8B73"/>
<path d="M298.203 327.637L259.2 372.002L212.515 298.653C180.604 243.049 230.835 220.571 237.926 215.839C243.599 212.054 266.292 211.501 276.929 211.699C293.672 212.685 327.514 222.464 328.933 253.697C330.351 284.929 309.037 316.004 298.203 327.637Z" fill="#CD9EA1"/>
<path d="M712 194H557C561.811 173.003 574.947 122.945 589.004 90.6929C606.575 50.378 615.36 34 634.186 34C653.012 34 671.838 62.3465 686.271 104.551C697.818 138.315 708.235 178.252 712 194Z" fill="#7B9C4D"/>
<path d="M723 122.66V162.02C723 165.71 723.86 174.935 727.299 182.315C730.739 189.695 738.56 193.18 742.041 194H753.097C771.277 193.016 777.051 172.27 777.665 162.02C779.303 143.98 782.702 107.531 783.193 106.055C783.684 104.579 785.445 104.21 786.264 104.21C791.178 104.702 789.54 127.375 788.107 138.65C786.469 151.565 784.79 179.117 791.178 186.005C797.566 192.893 806.533 192.975 810.218 192.155C829.382 191.663 836.22 165.3 837.244 152.18C841.666 119.708 844.819 114.87 845.843 116.51C851.248 111.59 850.961 130.45 850.142 140.495C847.194 169.031 854.647 181.905 858.741 184.775L871.64 189.08C892.769 189.08 898.461 159.15 898.665 144.185C901.122 107.777 889.452 80.2246 883.31 70.9995C876.758 61.7745 856.285 41.9715 826.802 36.5594C789.949 29.7944 785.65 37.1744 757.396 50.0895C734.793 60.4215 725.047 102.775 723 122.66Z" fill="#5556AF"/>
<path d="M786.698 365.595C761.628 355.128 739.787 322.55 732 307.57C748.409 307.57 775.303 303.019 786.698 300.744C804.931 299.606 835.698 276.282 844.245 264.336C851.082 254.779 864.187 225.463 869.885 212C889.485 246.587 895.904 269.266 896.664 276.282C905.78 307.684 886.028 339.048 875.012 350.804C859.629 370.715 818.035 378.679 786.698 365.595Z" fill="#BFD22D"/>
</svg>
