<svg width="115" height="108" viewBox="0 0 115 108" fill="none" xmlns="http://www.w3.org/2000/svg">
<path d="M7.72098 21.5504C14.4289 1.36303 48.4687 -1.02758 64.6501 0.300534C70.6813 0.300534 85.1268 1.27447 94.6591 5.17023C106.574 10.0399 110.546 15.7952 113.635 31.7326C116.107 44.4825 97.6012 51.8019 88.0394 53.8678C92.8938 53.8678 110.546 62.2792 113.635 71.5761C116.107 79.0135 114.665 86.1853 113.635 88.8416C113.989 100.175 89.9518 105.664 77.8893 106.993C65.9739 108.321 37.7299 109.383 20.0775 103.008C2.42506 96.6332 -0.516958 85.5951 0.21859 80.8729C-2.25275 65.998 16.8413 56.6716 26.6973 53.8678C16.9884 51.2116 12.1341 45.0137 7.72098 38.3731C4.19049 33.0607 6.24994 24.9445 7.72098 21.5504Z" fill="#FF8B73"/>
</svg>
