<svg width="119" height="108" viewBox="0 0 119 108" fill="none" xmlns="http://www.w3.org/2000/svg">
<path d="M0 59.8453V86.4134C0 88.9042 0.58141 95.1311 2.90705 100.113C5.23269 105.094 10.5207 107.446 12.8741 108H20.3493C32.642 107.336 36.5457 93.3322 36.961 86.4134C38.0685 74.2364 40.3664 49.6332 40.6987 48.6369C41.0309 47.6406 42.2214 47.3915 42.7751 47.3915C46.0975 47.7236 44.99 63.028 44.021 70.6386C42.9136 79.3563 41.7784 97.9539 46.0975 102.603C50.4165 107.253 56.4798 107.308 58.9716 106.755C71.9287 106.423 76.5523 88.6274 77.2444 79.7714C80.2345 57.8527 82.3664 54.587 83.0585 55.6941C86.7131 52.373 86.5193 65.1036 85.9656 71.884C83.9722 91.1459 89.0111 99.8358 91.7797 101.773L100.501 104.679C114.787 104.679 118.635 84.4762 118.774 74.3747C120.435 49.7993 112.544 31.2016 108.391 24.9747C103.962 18.7478 90.1185 5.38073 70.1845 1.72762C45.2669 -2.83877 42.3598 2.14275 23.2564 10.8604C7.97362 17.8345 1.38431 46.4229 0 59.8453Z" fill="#5556AF"/>
</svg>
