<svg width="325" height="260" viewBox="0 0 325 260" fill="none" xmlns="http://www.w3.org/2000/svg">
<path d="M66.1743 26.6436C104.881 -11.2565 171.004 -0.571901 199.228 9.50792C207.628 11.5239 230.677 23.4181 255.675 54.8671C280.673 86.3161 288.938 129.122 289.946 146.593C298.817 185.3 274.155 223.2 260.715 237.312C238.539 249.408 189.148 263.519 105.486 258.479C38.5557 254.447 9.05539 205.728 2.67148 181.873C0.655519 181.537 -2.16683 169.575 2.67148 124.418C7.50979 79.2602 47.0227 40.4194 66.1743 26.6436Z" fill="#CD9EA1"/>
<g style="mix-blend-mode:multiply">
<path d="M99.3482 27.1153C138.055 -10.7848 204.178 -0.100221 232.402 9.9796C240.802 11.9956 263.851 23.8897 288.849 55.3388C313.847 86.7878 322.112 129.593 323.12 147.065C331.99 185.772 307.328 223.672 293.889 237.783C271.713 249.879 222.322 263.991 138.66 258.951C71.7295 254.919 42.2292 206.2 35.8453 182.344C33.8293 182.008 31.007 170.047 35.8453 124.89C40.6836 79.7319 80.1965 40.891 99.3482 27.1153Z" fill="#BFD22D"/>
</g>
</svg>
