<svg width="72" height="65" viewBox="0 0 72 65" fill="none" xmlns="http://www.w3.org/2000/svg">
<path d="M0 36.018V52.0081C0 53.5071 0.351777 57.2548 1.75889 60.2529C3.166 63.2511 6.36549 64.6669 7.78935 65H12.3122C19.7498 64.6003 22.1117 56.1722 22.363 52.0081C23.033 44.6793 24.4234 29.8718 24.6244 29.2722C24.8254 28.6726 25.5457 28.5227 25.8808 28.5227C27.8909 28.7225 27.2209 37.9335 26.6346 42.514C25.9645 47.7607 25.2777 58.9538 27.8909 61.752C30.5041 64.5503 34.1726 64.5836 35.6803 64.2505C43.5199 64.0506 46.3173 53.3406 46.7361 48.0106C48.5453 34.8188 49.8351 32.8533 50.2539 33.5196C52.4651 31.5208 52.3478 39.1827 52.0128 43.2635C50.8067 54.8563 53.8554 60.0864 55.5306 61.2523L60.8072 63.0012C69.4509 63.0012 71.7793 50.8421 71.8631 44.7626C72.8681 29.9718 68.094 18.7787 65.5813 15.0311C62.9011 11.2834 54.5255 3.2384 42.4645 1.03977C27.3884 -1.70852 25.6295 1.28962 14.0711 6.53635C4.82437 10.7337 0.837565 27.9397 0 36.018Z" fill="#5556AF"/>
</svg>
