<svg width="620" height="426" viewBox="0 0 620 426" fill="none" xmlns="http://www.w3.org/2000/svg">
<mask id="mask0_321_5390" style="mask-type:alpha" maskUnits="userSpaceOnUse" x="-1" y="0" width="621" height="427">
<rect x="-1" width="621" height="427" rx="40" fill="#E4E3DD"/>
</mask>
<g mask="url(#mask0_321_5390)">
<path d="M85.9171 68.468C84.3397 68.468 82.9964 68.208 81.8871 67.688C80.7777 67.168 79.9284 66.4487 79.3391 65.53C78.7497 64.6113 78.4551 63.5713 78.4551 62.41H81.0031C81.0031 62.982 81.1504 63.554 81.4451 64.126C81.7571 64.698 82.2684 65.1747 82.9791 65.556C83.7071 65.9373 84.6864 66.128 85.9171 66.128C87.0611 66.128 87.9971 65.9633 88.7251 65.634C89.4531 65.2873 89.9904 64.8453 90.3371 64.308C90.6837 63.7533 90.8571 63.1553 90.8571 62.514C90.8571 61.734 90.5191 61.0927 89.8431 60.59C89.1671 60.07 88.1791 59.7493 86.8791 59.628L84.7731 59.446C83.0917 59.3073 81.7484 58.7873 80.7431 57.886C79.7377 56.9847 79.2351 55.7973 79.2351 54.324C79.2351 53.1627 79.5124 52.1487 80.0671 51.282C80.6391 50.4153 81.4277 49.7393 82.4331 49.254C83.4384 48.7513 84.6084 48.5 85.9431 48.5C87.2604 48.5 88.4217 48.7427 89.4271 49.228C90.4324 49.7133 91.2124 50.398 91.7671 51.282C92.3391 52.1487 92.6251 53.1887 92.6251 54.402H90.0771C90.0771 53.7953 89.9297 53.2233 89.6351 52.686C89.3577 52.1487 88.9157 51.7067 88.3091 51.36C87.7024 51.0133 86.9137 50.84 85.9431 50.84C85.0071 50.84 84.2271 51.0047 83.6031 51.334C82.9964 51.6633 82.5371 52.0967 82.2251 52.634C81.9304 53.154 81.7831 53.7173 81.7831 54.324C81.7831 55.0173 82.0517 55.6327 82.5891 56.17C83.1264 56.7073 83.9237 57.0193 84.9811 57.106L87.0871 57.288C88.3871 57.392 89.5051 57.6693 90.4411 58.12C91.3944 58.5533 92.1224 59.1427 92.6251 59.888C93.1451 60.616 93.4051 61.4913 93.4051 62.514C93.4051 63.6753 93.0931 64.7067 92.4691 65.608C91.8451 66.5093 90.9697 67.2113 89.8431 67.714C88.7164 68.2167 87.4077 68.468 85.9171 68.468Z" fill="#13131A"/>
<path d="M97.9929 68V54.116H100.489V68H97.9929ZM95.8609 56.092V54.116H100.489V56.092H95.8609ZM98.6949 51.88C98.1402 51.88 97.7242 51.7327 97.4469 51.438C97.1869 51.1433 97.0569 50.7707 97.0569 50.32C97.0569 49.8693 97.1869 49.4967 97.4469 49.202C97.7242 48.9073 98.1402 48.76 98.6949 48.76C99.2495 48.76 99.6569 48.9073 99.9169 49.202C100.194 49.4967 100.333 49.8693 100.333 50.32C100.333 50.7707 100.194 51.1433 99.9169 51.438C99.6569 51.7327 99.2495 51.88 98.6949 51.88Z" fill="#13131A"/>
<path d="M105.315 68V54.116H107.291V60.07H106.979C106.979 58.718 107.152 57.574 107.499 56.638C107.863 55.6847 108.4 54.9567 109.111 54.454C109.822 53.9513 110.723 53.7 111.815 53.7H111.919C113.011 53.7 113.912 53.9513 114.623 54.454C115.351 54.9567 115.888 55.6847 116.235 56.638C116.582 57.574 116.755 58.718 116.755 60.07H116.027C116.027 58.718 116.209 57.574 116.573 56.638C116.937 55.6847 117.474 54.9567 118.185 54.454C118.913 53.9513 119.823 53.7 120.915 53.7H121.019C122.111 53.7 123.021 53.9513 123.749 54.454C124.477 54.9567 125.014 55.6847 125.361 56.638C125.725 57.574 125.907 58.718 125.907 60.07V68H123.411V59.524C123.411 58.3973 123.134 57.5307 122.579 56.924C122.024 56.3 121.253 55.988 120.265 55.988C119.242 55.988 118.419 56.3173 117.795 56.976C117.171 57.6173 116.859 58.5187 116.859 59.68V68H114.363V59.524C114.363 58.3973 114.086 57.5307 113.531 56.924C112.976 56.3 112.205 55.988 111.217 55.988C110.194 55.988 109.371 56.3173 108.747 56.976C108.123 57.6173 107.811 58.5187 107.811 59.68V68H105.315Z" fill="#13131A"/>
<path d="M130.477 73.2V54.116H132.453V60.122L131.985 60.07C132.072 58.5793 132.384 57.366 132.921 56.43C133.476 55.4767 134.195 54.7747 135.079 54.324C135.963 53.8733 136.925 53.648 137.965 53.648C138.97 53.648 139.88 53.8387 140.695 54.22C141.527 54.6013 142.238 55.1213 142.827 55.78C143.416 56.4387 143.867 57.2013 144.179 58.068C144.491 58.9347 144.647 59.8533 144.647 60.824V61.292C144.647 62.2627 144.482 63.1813 144.153 64.048C143.824 64.9147 143.356 65.6773 142.749 66.336C142.16 66.9947 141.449 67.5147 140.617 67.896C139.802 68.2773 138.901 68.468 137.913 68.468C136.925 68.468 135.98 68.2513 135.079 67.818C134.178 67.3847 133.432 66.6827 132.843 65.712C132.254 64.7413 131.916 63.4673 131.829 61.89L132.973 63.97V73.2H130.477ZM137.523 66.284C138.459 66.284 139.274 66.0673 139.967 65.634C140.66 65.1833 141.198 64.568 141.579 63.788C141.96 62.9907 142.151 62.0807 142.151 61.058C142.151 60.018 141.96 59.108 141.579 58.328C141.198 57.548 140.66 56.9413 139.967 56.508C139.274 56.0573 138.459 55.832 137.523 55.832C136.691 55.832 135.92 56.0227 135.209 56.404C134.498 56.768 133.926 57.3053 133.493 58.016C133.077 58.7093 132.869 59.55 132.869 60.538V61.734C132.869 62.6873 133.086 63.502 133.519 64.178C133.952 64.854 134.524 65.374 135.235 65.738C135.946 66.102 136.708 66.284 137.523 66.284Z" fill="#13131A"/>
<path d="M148.559 68V49.02H151.055V68H148.559ZM146.635 50.996V49.02H151.055V50.996H146.635Z" fill="#13131A"/>
<path d="M156.518 68V54.116H159.014V68H156.518ZM154.386 56.092V54.116H159.014V56.092H154.386ZM157.22 51.88C156.666 51.88 156.25 51.7327 155.972 51.438C155.712 51.1433 155.582 50.7707 155.582 50.32C155.582 49.8693 155.712 49.4967 155.972 49.202C156.25 48.9073 156.666 48.76 157.22 48.76C157.775 48.76 158.182 48.9073 158.442 49.202C158.72 49.4967 158.858 49.8693 158.858 50.32C158.858 50.7707 158.72 51.1433 158.442 51.438C158.182 51.7327 157.775 51.88 157.22 51.88Z" fill="#13131A"/>
<path d="M164.204 68V53.414C164.204 51.8713 164.612 50.736 165.426 50.008C166.241 49.28 167.437 48.916 169.014 48.916H170.73V50.996H168.598C167.957 50.996 167.463 51.178 167.116 51.542C166.77 51.8887 166.596 52.374 166.596 52.998V68H164.204ZM162.28 56.144V54.272H170.99V56.144H162.28Z" fill="#13131A"/>
<path d="M173.162 73.408V71.172H175.164C175.753 71.172 176.247 71.094 176.646 70.938C177.062 70.7993 177.4 70.5567 177.66 70.21C177.937 69.8633 178.163 69.404 178.336 68.832L182.704 54.116H185.148L180.52 69.482C180.243 70.4007 179.853 71.146 179.35 71.718C178.847 72.3073 178.232 72.732 177.504 72.992C176.793 73.2693 175.961 73.408 175.008 73.408H173.162ZM177.4 67.688V65.608H180.416V67.688H177.4ZM177.14 67.688L172.174 54.116H174.722L179.48 67.688H177.14Z" fill="#13131A"/>
<path d="M188.993 68V54.116H191.489V68H188.993ZM186.861 56.092V54.116H191.489V56.092H186.861ZM189.695 51.88C189.14 51.88 188.724 51.7327 188.447 51.438C188.187 51.1433 188.057 50.7707 188.057 50.32C188.057 49.8693 188.187 49.4967 188.447 49.202C188.724 48.9073 189.14 48.76 189.695 48.76C190.25 48.76 190.657 48.9073 190.917 49.202C191.194 49.4967 191.333 49.8693 191.333 50.32C191.333 50.7707 191.194 51.1433 190.917 51.438C190.657 51.7327 190.25 51.88 189.695 51.88Z" fill="#13131A"/>
<path d="M196.315 68V54.116H198.291V60.07H197.979C197.979 58.7007 198.161 57.548 198.525 56.612C198.906 55.6587 199.478 54.9393 200.241 54.454C201.004 53.9513 201.966 53.7 203.127 53.7H203.231C204.982 53.7 206.273 54.246 207.105 55.338C207.954 56.43 208.379 58.0073 208.379 60.07V68H205.883V59.55C205.883 58.4753 205.58 57.6173 204.973 56.976C204.366 56.3173 203.534 55.988 202.477 55.988C201.385 55.988 200.501 56.326 199.825 57.002C199.149 57.678 198.811 58.5793 198.811 59.706V68H196.315Z" fill="#13131A"/>
<path d="M218.198 73.408C217.556 73.408 216.906 73.382 216.248 73.33C215.606 73.278 214.991 73.2087 214.402 73.122V71.016C215.026 71.1027 215.676 71.172 216.352 71.224C217.045 71.2933 217.695 71.328 218.302 71.328C219.567 71.328 220.572 71.1547 221.318 70.808C222.08 70.4787 222.626 69.95 222.956 69.222C223.302 68.5113 223.476 67.5927 223.476 66.466V63.814L224.308 61.838C224.256 63.242 223.961 64.412 223.424 65.348C222.886 66.2667 222.184 66.96 221.318 67.428C220.468 67.8787 219.524 68.104 218.484 68.104C217.513 68.104 216.62 67.922 215.806 67.558C215.008 67.1767 214.315 66.6567 213.726 65.998C213.154 65.3393 212.703 64.5853 212.374 63.736C212.062 62.8693 211.906 61.9593 211.906 61.006V60.538C211.906 59.5673 212.07 58.666 212.4 57.834C212.729 56.9847 213.188 56.248 213.778 55.624C214.367 55 215.069 54.5147 215.884 54.168C216.716 53.8213 217.626 53.648 218.614 53.648C219.775 53.648 220.798 53.8993 221.682 54.402C222.566 54.8873 223.259 55.6067 223.762 56.56C224.282 57.496 224.568 58.6487 224.62 60.018L223.892 60.044V54.116H225.868V66.362C225.868 68.026 225.608 69.3693 225.088 70.392C224.585 71.432 223.77 72.1947 222.644 72.68C221.534 73.1653 220.052 73.408 218.198 73.408ZM218.952 65.816C219.784 65.816 220.538 65.634 221.214 65.27C221.907 64.906 222.453 64.386 222.852 63.71C223.268 63.0167 223.476 62.1933 223.476 61.24V60.044C223.476 59.108 223.259 58.3193 222.826 57.678C222.41 57.0367 221.864 56.5513 221.188 56.222C220.512 55.8927 219.775 55.728 218.978 55.728C218.076 55.728 217.279 55.936 216.586 56.352C215.892 56.768 215.355 57.3573 214.974 58.12C214.592 58.8653 214.402 59.7493 214.402 60.772C214.402 61.7947 214.592 62.6873 214.974 63.45C215.372 64.2127 215.91 64.802 216.586 65.218C217.279 65.6167 218.068 65.816 218.952 65.816Z" fill="#13131A"/>
<path d="M242.361 68.468C241.165 68.468 240.125 68.26 239.241 67.844C238.374 67.428 237.655 66.8733 237.083 66.18C236.511 65.4693 236.077 64.6893 235.783 63.84C235.505 62.9907 235.367 62.1413 235.367 61.292V60.824C235.367 59.94 235.505 59.0733 235.783 58.224C236.077 57.3747 236.511 56.612 237.083 55.936C237.672 55.2427 238.4 54.688 239.267 54.272C240.133 53.856 241.147 53.648 242.309 53.648C243.47 53.648 244.51 53.8647 245.429 54.298C246.365 54.7313 247.11 55.3467 247.665 56.144C248.237 56.924 248.557 57.8513 248.627 58.926H246.235C246.113 58.0593 245.715 57.34 245.039 56.768C244.363 56.1787 243.453 55.884 242.309 55.884C241.321 55.884 240.497 56.1093 239.839 56.56C239.18 57.0107 238.686 57.626 238.357 58.406C238.027 59.186 237.863 60.07 237.863 61.058C237.863 62.0113 238.027 62.8867 238.357 63.684C238.686 64.464 239.18 65.088 239.839 65.556C240.515 66.0067 241.355 66.232 242.361 66.232C243.141 66.232 243.817 66.0933 244.389 65.816C244.961 65.5387 245.42 65.166 245.767 64.698C246.113 64.23 246.321 63.7013 246.391 63.112H248.783C248.731 64.204 248.41 65.1487 247.821 65.946C247.249 66.7433 246.486 67.3673 245.533 67.818C244.597 68.2513 243.539 68.468 242.361 68.468Z" fill="#13131A"/>
<path d="M258.57 68.468C257.357 68.468 256.291 68.26 255.372 67.844C254.454 67.428 253.674 66.882 253.032 66.206C252.408 65.5127 251.932 64.7413 251.602 63.892C251.29 63.0427 251.134 62.176 251.134 61.292V60.824C251.134 59.94 251.299 59.0733 251.628 58.224C251.958 57.3573 252.443 56.586 253.084 55.91C253.726 55.2167 254.506 54.6707 255.424 54.272C256.343 53.856 257.392 53.648 258.57 53.648C259.749 53.648 260.798 53.856 261.716 54.272C262.635 54.6707 263.415 55.2167 264.056 55.91C264.698 56.586 265.183 57.3573 265.512 58.224C265.842 59.0733 266.006 59.94 266.006 60.824V61.292C266.006 62.176 265.842 63.0427 265.512 63.892C265.2 64.7413 264.724 65.5127 264.082 66.206C263.458 66.882 262.687 67.428 261.768 67.844C260.85 68.26 259.784 68.468 258.57 68.468ZM258.57 66.232C259.61 66.232 260.494 66.0067 261.222 65.556C261.968 65.088 262.531 64.464 262.912 63.684C263.311 62.904 263.51 62.0287 263.51 61.058C263.51 60.07 263.311 59.186 262.912 58.406C262.514 57.626 261.942 57.0107 261.196 56.56C260.468 56.1093 259.593 55.884 258.57 55.884C257.565 55.884 256.69 56.1093 255.944 56.56C255.199 57.0107 254.627 57.626 254.228 58.406C253.83 59.186 253.63 60.07 253.63 61.058C253.63 62.0287 253.821 62.904 254.202 63.684C254.601 64.464 255.164 65.088 255.892 65.556C256.638 66.0067 257.53 66.232 258.57 66.232Z" fill="#13131A"/>
<path d="M269.745 68V54.116H271.721V60.07H271.409C271.409 58.718 271.582 57.574 271.929 56.638C272.293 55.6847 272.83 54.9567 273.541 54.454C274.251 53.9513 275.153 53.7 276.245 53.7H276.349C277.441 53.7 278.342 53.9513 279.053 54.454C279.781 54.9567 280.318 55.6847 280.665 56.638C281.011 57.574 281.185 58.718 281.185 60.07H280.457C280.457 58.718 280.639 57.574 281.003 56.638C281.367 55.6847 281.904 54.9567 282.615 54.454C283.343 53.9513 284.253 53.7 285.345 53.7H285.449C286.541 53.7 287.451 53.9513 288.179 54.454C288.907 54.9567 289.444 55.6847 289.791 56.638C290.155 57.574 290.337 58.718 290.337 60.07V68H287.841V59.524C287.841 58.3973 287.563 57.5307 287.009 56.924C286.454 56.3 285.683 55.988 284.695 55.988C283.672 55.988 282.849 56.3173 282.225 56.976C281.601 57.6173 281.289 58.5187 281.289 59.68V68H278.793V59.524C278.793 58.3973 278.515 57.5307 277.961 56.924C277.406 56.3 276.635 55.988 275.647 55.988C274.624 55.988 273.801 56.3173 273.177 56.976C272.553 57.6173 272.241 58.5187 272.241 59.68V68H269.745Z" fill="#13131A"/>
<path d="M294.907 73.2V54.116H296.883V60.122L296.415 60.07C296.501 58.5793 296.813 57.366 297.351 56.43C297.905 55.4767 298.625 54.7747 299.509 54.324C300.393 53.8733 301.355 53.648 302.395 53.648C303.4 53.648 304.31 53.8387 305.125 54.22C305.957 54.6013 306.667 55.1213 307.257 55.78C307.846 56.4387 308.297 57.2013 308.609 58.068C308.921 58.9347 309.077 59.8533 309.077 60.824V61.292C309.077 62.2627 308.912 63.1813 308.583 64.048C308.253 64.9147 307.785 65.6773 307.179 66.336C306.589 66.9947 305.879 67.5147 305.047 67.896C304.232 68.2773 303.331 68.468 302.343 68.468C301.355 68.468 300.41 68.2513 299.509 67.818C298.607 67.3847 297.862 66.6827 297.273 65.712C296.683 64.7413 296.345 63.4673 296.259 61.89L297.403 63.97V73.2H294.907ZM301.953 66.284C302.889 66.284 303.703 66.0673 304.397 65.634C305.09 65.1833 305.627 64.568 306.009 63.788C306.39 62.9907 306.581 62.0807 306.581 61.058C306.581 60.018 306.39 59.108 306.009 58.328C305.627 57.548 305.09 56.9413 304.397 56.508C303.703 56.0573 302.889 55.832 301.953 55.832C301.121 55.832 300.349 56.0227 299.639 56.404C298.928 56.768 298.356 57.3053 297.923 58.016C297.507 58.7093 297.299 59.55 297.299 60.538V61.734C297.299 62.6873 297.515 63.502 297.949 64.178C298.382 64.854 298.954 65.374 299.665 65.738C300.375 66.102 301.138 66.284 301.953 66.284Z" fill="#13131A"/>
<path d="M312.988 68V49.02H315.484V68H312.988ZM311.064 50.996V49.02H315.484V50.996H311.064Z" fill="#13131A"/>
<path d="M320.948 68V54.116H323.444V68H320.948ZM318.816 56.092V54.116H323.444V56.092H318.816ZM321.65 51.88C321.095 51.88 320.679 51.7327 320.402 51.438C320.142 51.1433 320.012 50.7707 320.012 50.32C320.012 49.8693 320.142 49.4967 320.402 49.202C320.679 48.9073 321.095 48.76 321.65 48.76C322.205 48.76 322.612 48.9073 322.872 49.202C323.149 49.4967 323.288 49.8693 323.288 50.32C323.288 50.7707 323.149 51.1433 322.872 51.438C322.612 51.7327 322.205 51.88 321.65 51.88Z" fill="#13131A"/>
<path d="M336.668 68V63.84H336.252V59.03C336.252 58.0767 336.001 57.3573 335.498 56.872C335.013 56.3867 334.293 56.144 333.34 56.144C332.803 56.144 332.248 56.1527 331.676 56.17C331.104 56.1873 330.558 56.2047 330.038 56.222C329.518 56.2393 329.067 56.2653 328.686 56.3V54.116C329.067 54.0813 329.466 54.0553 329.882 54.038C330.315 54.0033 330.757 53.986 331.208 53.986C331.659 53.9687 332.092 53.96 332.508 53.96C333.929 53.96 335.091 54.1333 335.992 54.48C336.893 54.8093 337.561 55.3553 337.994 56.118C338.427 56.8807 338.644 57.912 338.644 59.212V68H336.668ZM332.118 68.364C331.078 68.364 330.177 68.1907 329.414 67.844C328.669 67.48 328.088 66.96 327.672 66.284C327.273 65.608 327.074 64.7933 327.074 63.84C327.074 62.852 327.291 62.0287 327.724 61.37C328.175 60.7113 328.825 60.2173 329.674 59.888C330.523 59.5413 331.546 59.368 332.742 59.368H336.512V61.24H332.638C331.633 61.24 330.861 61.4827 330.324 61.968C329.787 62.4533 329.518 63.0773 329.518 63.84C329.518 64.6027 329.787 65.218 330.324 65.686C330.861 66.154 331.633 66.388 332.638 66.388C333.227 66.388 333.791 66.284 334.328 66.076C334.865 65.8507 335.307 65.4867 335.654 64.984C336.018 64.464 336.217 63.7533 336.252 62.852L336.928 63.84C336.841 64.828 336.599 65.66 336.2 66.336C335.819 66.9947 335.281 67.4973 334.588 67.844C333.912 68.1907 333.089 68.364 332.118 68.364Z" fill="#13131A"/>
<path d="M343.225 68V54.116H345.201V60.07H344.889C344.889 58.7007 345.071 57.548 345.435 56.612C345.816 55.6587 346.388 54.9393 347.151 54.454C347.914 53.9513 348.876 53.7 350.037 53.7H350.141C351.892 53.7 353.183 54.246 354.015 55.338C354.864 56.43 355.289 58.0073 355.289 60.07V68H352.793V59.55C352.793 58.4753 352.49 57.6173 351.883 56.976C351.276 56.3173 350.444 55.988 349.387 55.988C348.295 55.988 347.411 56.326 346.735 57.002C346.059 57.678 345.721 58.5793 345.721 59.706V68H343.225Z" fill="#13131A"/>
<path d="M365.81 68.468C364.614 68.468 363.574 68.26 362.69 67.844C361.823 67.428 361.104 66.8733 360.532 66.18C359.96 65.4693 359.527 64.6893 359.232 63.84C358.955 62.9907 358.816 62.1413 358.816 61.292V60.824C358.816 59.94 358.955 59.0733 359.232 58.224C359.527 57.3747 359.96 56.612 360.532 55.936C361.121 55.2427 361.849 54.688 362.716 54.272C363.583 53.856 364.597 53.648 365.758 53.648C366.919 53.648 367.959 53.8647 368.878 54.298C369.814 54.7313 370.559 55.3467 371.114 56.144C371.686 56.924 372.007 57.8513 372.076 58.926H369.684C369.563 58.0593 369.164 57.34 368.488 56.768C367.812 56.1787 366.902 55.884 365.758 55.884C364.77 55.884 363.947 56.1093 363.288 56.56C362.629 57.0107 362.135 57.626 361.806 58.406C361.477 59.186 361.312 60.07 361.312 61.058C361.312 62.0113 361.477 62.8867 361.806 63.684C362.135 64.464 362.629 65.088 363.288 65.556C363.964 66.0067 364.805 66.232 365.81 66.232C366.59 66.232 367.266 66.0933 367.838 65.816C368.41 65.5387 368.869 65.166 369.216 64.698C369.563 64.23 369.771 63.7013 369.84 63.112H372.232C372.18 64.204 371.859 65.1487 371.27 65.946C370.698 66.7433 369.935 67.3673 368.982 67.818C368.046 68.2513 366.989 68.468 365.81 68.468Z" fill="#13131A"/>
<path d="M381.526 68.468C380.312 68.468 379.263 68.26 378.379 67.844C377.495 67.428 376.776 66.882 376.221 66.206C375.667 65.5127 375.251 64.7413 374.974 63.892C374.714 63.0427 374.583 62.176 374.583 61.292V60.824C374.583 59.9227 374.714 59.0473 374.974 58.198C375.251 57.3487 375.667 56.586 376.221 55.91C376.776 55.2167 377.478 54.6707 378.328 54.272C379.194 53.856 380.208 53.648 381.37 53.648C382.878 53.648 384.117 53.9773 385.087 54.636C386.075 55.2773 386.804 56.1093 387.272 57.132C387.757 58.1547 388 59.2467 388 60.408V61.526H375.676V59.654H386.18L385.608 60.668C385.608 59.68 385.451 58.8307 385.139 58.12C384.827 57.392 384.36 56.8287 383.736 56.43C383.112 56.0313 382.323 55.832 381.37 55.832C380.382 55.832 379.558 56.0573 378.9 56.508C378.258 56.9587 377.773 57.574 377.444 58.354C377.132 59.134 376.975 60.0353 376.975 61.058C376.975 62.046 377.132 62.9387 377.444 63.736C377.773 64.516 378.276 65.14 378.952 65.608C379.628 66.0587 380.486 66.284 381.526 66.284C382.618 66.284 383.501 66.0413 384.177 65.556C384.871 65.0707 385.287 64.5073 385.426 63.866H387.766C387.575 64.8193 387.193 65.6427 386.621 66.336C386.049 67.0293 385.33 67.558 384.464 67.922C383.597 68.286 382.618 68.468 381.526 68.468Z" fill="#13131A"/>
<path d="M402.867 68.156C401.827 68.156 400.926 68.0087 400.163 67.714C399.418 67.4193 398.837 66.9167 398.421 66.206C398.023 65.478 397.823 64.4987 397.823 63.268V49.904H400.215V63.58C400.215 64.3253 400.415 64.906 400.813 65.322C401.229 65.7207 401.81 65.92 402.555 65.92H404.999V68.156H402.867ZM395.431 55.988V54.116H404.999V55.988H395.431Z" fill="#13131A"/>
<path d="M408.53 68V49.02H411.026V60.356H410.402C410.402 58.9867 410.575 57.808 410.922 56.82C411.286 55.8147 411.84 55.0433 412.586 54.506C413.331 53.9687 414.284 53.7 415.446 53.7H415.55C417.214 53.7 418.47 54.2547 419.32 55.364C420.169 56.456 420.594 58.0247 420.594 60.07V68H418.098V59.55C418.098 58.4233 417.777 57.548 417.136 56.924C416.512 56.3 415.697 55.988 414.692 55.988C413.582 55.988 412.69 56.3607 412.014 57.106C411.355 57.834 411.026 58.796 411.026 59.992V68H408.53Z" fill="#13131A"/>
<path d="M425.161 68V54.116H427.137V59.836H427.033C427.033 57.808 427.475 56.326 428.359 55.39C429.26 54.4367 430.603 53.96 432.389 53.96H432.857V56.196H431.973C430.586 56.196 429.52 56.5687 428.775 57.314C428.029 58.042 427.657 59.0993 427.657 60.486V68H425.161Z" fill="#13131A"/>
<path d="M442.068 68.468C440.855 68.468 439.789 68.26 438.87 67.844C437.952 67.428 437.172 66.882 436.53 66.206C435.906 65.5127 435.43 64.7413 435.1 63.892C434.788 63.0427 434.632 62.176 434.632 61.292V60.824C434.632 59.94 434.797 59.0733 435.126 58.224C435.456 57.3573 435.941 56.586 436.582 55.91C437.224 55.2167 438.004 54.6707 438.922 54.272C439.841 53.856 440.89 53.648 442.068 53.648C443.247 53.648 444.296 53.856 445.214 54.272C446.133 54.6707 446.913 55.2167 447.554 55.91C448.196 56.586 448.681 57.3573 449.01 58.224C449.34 59.0733 449.504 59.94 449.504 60.824V61.292C449.504 62.176 449.34 63.0427 449.01 63.892C448.698 64.7413 448.222 65.5127 447.58 66.206C446.956 66.882 446.185 67.428 445.266 67.844C444.348 68.26 443.282 68.468 442.068 68.468ZM442.068 66.232C443.108 66.232 443.992 66.0067 444.72 65.556C445.466 65.088 446.029 64.464 446.41 63.684C446.809 62.904 447.008 62.0287 447.008 61.058C447.008 60.07 446.809 59.186 446.41 58.406C446.012 57.626 445.44 57.0107 444.694 56.56C443.966 56.1093 443.091 55.884 442.068 55.884C441.063 55.884 440.188 56.1093 439.442 56.56C438.697 57.0107 438.125 57.626 437.726 58.406C437.328 59.186 437.128 60.07 437.128 61.058C437.128 62.0287 437.319 62.904 437.7 63.684C438.099 64.464 438.662 65.088 439.39 65.556C440.136 66.0067 441.028 66.232 442.068 66.232Z" fill="#13131A"/>
<path d="M458.053 68.416C456.406 68.416 455.141 67.8787 454.257 66.804C453.373 65.7293 452.931 64.178 452.931 62.15V54.09H455.427V62.644C455.427 63.736 455.721 64.594 456.311 65.218C456.9 65.8247 457.697 66.128 458.703 66.128C459.743 66.128 460.592 65.7987 461.251 65.14C461.909 64.464 462.239 63.5453 462.239 62.384V54.09H464.735V68H462.759V62.046H463.071C463.071 63.4153 462.889 64.5767 462.525 65.53C462.161 66.466 461.615 67.1853 460.887 67.688C460.176 68.1733 459.266 68.416 458.157 68.416H458.053Z" fill="#13131A"/>
<path d="M474.821 73.408C474.179 73.408 473.529 73.382 472.871 73.33C472.229 73.278 471.614 73.2087 471.025 73.122V71.016C471.649 71.1027 472.299 71.172 472.975 71.224C473.668 71.2933 474.318 71.328 474.925 71.328C476.19 71.328 477.195 71.1547 477.941 70.808C478.703 70.4787 479.249 69.95 479.579 69.222C479.925 68.5113 480.099 67.5927 480.099 66.466V63.814L480.931 61.838C480.879 63.242 480.584 64.412 480.047 65.348C479.509 66.2667 478.807 66.96 477.941 67.428C477.091 67.8787 476.147 68.104 475.107 68.104C474.136 68.104 473.243 67.922 472.429 67.558C471.631 67.1767 470.938 66.6567 470.349 65.998C469.777 65.3393 469.326 64.5853 468.997 63.736C468.685 62.8693 468.529 61.9593 468.529 61.006V60.538C468.529 59.5673 468.693 58.666 469.023 57.834C469.352 56.9847 469.811 56.248 470.401 55.624C470.99 55 471.692 54.5147 472.507 54.168C473.339 53.8213 474.249 53.648 475.237 53.648C476.398 53.648 477.421 53.8993 478.305 54.402C479.189 54.8873 479.882 55.6067 480.385 56.56C480.905 57.496 481.191 58.6487 481.243 60.018L480.515 60.044V54.116H482.491V66.362C482.491 68.026 482.231 69.3693 481.711 70.392C481.208 71.432 480.393 72.1947 479.267 72.68C478.157 73.1653 476.675 73.408 474.821 73.408ZM475.575 65.816C476.407 65.816 477.161 65.634 477.837 65.27C478.53 64.906 479.076 64.386 479.475 63.71C479.891 63.0167 480.099 62.1933 480.099 61.24V60.044C480.099 59.108 479.882 58.3193 479.449 57.678C479.033 57.0367 478.487 56.5513 477.811 56.222C477.135 55.8927 476.398 55.728 475.601 55.728C474.699 55.728 473.902 55.936 473.209 56.352C472.515 56.768 471.978 57.3573 471.597 58.12C471.215 58.8653 471.025 59.7493 471.025 60.772C471.025 61.7947 471.215 62.6873 471.597 63.45C471.995 64.2127 472.533 64.802 473.209 65.218C473.902 65.6167 474.691 65.816 475.575 65.816Z" fill="#13131A"/>
<path d="M487.114 68V49.02H489.61V60.356H488.986C488.986 58.9867 489.159 57.808 489.506 56.82C489.87 55.8147 490.424 55.0433 491.17 54.506C491.915 53.9687 492.868 53.7 494.03 53.7H494.134C495.798 53.7 497.054 54.2547 497.904 55.364C498.753 56.456 499.178 58.0247 499.178 60.07V68H496.682V59.55C496.682 58.4233 496.361 57.548 495.72 56.924C495.096 56.3 494.281 55.988 493.276 55.988C492.166 55.988 491.274 56.3607 490.598 57.106C489.939 57.834 489.61 58.796 489.61 59.992V68H487.114Z" fill="#13131A"/>
<path d="M86.7231 107.468C85.5791 107.468 84.5564 107.217 83.6551 106.714C82.7711 106.211 82.0691 105.483 81.5491 104.53C81.0291 103.559 80.7431 102.398 80.6911 101.046H81.3671V107H79.3911V88.02H81.8871V97.25L81.0031 99.148C81.0724 97.64 81.3757 96.4093 81.9131 95.456C82.4504 94.5027 83.1524 93.8007 84.0191 93.35C84.9031 92.882 85.8737 92.648 86.9311 92.648C87.9191 92.648 88.8204 92.8387 89.6351 93.22C90.4497 93.584 91.1517 94.0953 91.7411 94.754C92.3304 95.3953 92.7811 96.1493 93.0931 97.016C93.4051 97.8653 93.5611 98.784 93.5611 99.772V100.24C93.5611 101.228 93.3964 102.155 93.0671 103.022C92.7551 103.889 92.2957 104.66 91.6891 105.336C91.0824 105.995 90.3544 106.515 89.5051 106.896C88.6731 107.277 87.7457 107.468 86.7231 107.468ZM86.4371 105.284C87.3731 105.284 88.1877 105.059 88.8811 104.608C89.5744 104.157 90.1117 103.542 90.4931 102.762C90.8744 101.965 91.0651 101.046 91.0651 100.006C91.0651 98.966 90.8657 98.056 90.4671 97.276C90.0857 96.496 89.5484 95.898 88.8551 95.482C88.1617 95.0487 87.3557 94.832 86.4371 94.832C85.6051 94.832 84.8337 95.0227 84.1231 95.404C83.4124 95.768 82.8404 96.3053 82.4071 97.016C81.9911 97.7093 81.7831 98.55 81.7831 99.538V100.734C81.7831 101.687 81.9997 102.502 82.4331 103.178C82.8664 103.854 83.4384 104.374 84.1491 104.738C84.8597 105.102 85.6224 105.284 86.4371 105.284Z" fill="#13131A"/>
<path d="M103.219 107.468C102.006 107.468 100.957 107.26 100.073 106.844C99.1889 106.428 98.4695 105.882 97.9149 105.206C97.3602 104.513 96.9442 103.741 96.6669 102.892C96.4069 102.043 96.2769 101.176 96.2769 100.292V99.824C96.2769 98.9227 96.4069 98.0473 96.6669 97.198C96.9442 96.3487 97.3602 95.586 97.9149 94.91C98.4695 94.2167 99.1715 93.6707 100.021 93.272C100.888 92.856 101.902 92.648 103.063 92.648C104.571 92.648 105.81 92.9773 106.781 93.636C107.769 94.2773 108.497 95.1093 108.965 96.132C109.45 97.1547 109.693 98.2467 109.693 99.408V100.526H97.3689V98.654H107.873L107.301 99.668C107.301 98.68 107.145 97.8307 106.833 97.12C106.521 96.392 106.053 95.8287 105.429 95.43C104.805 95.0313 104.016 94.832 103.063 94.832C102.075 94.832 101.252 95.0573 100.593 95.508C99.9515 95.9587 99.4662 96.574 99.1369 97.354C98.8249 98.134 98.6689 99.0353 98.6689 100.058C98.6689 101.046 98.8249 101.939 99.1369 102.736C99.4662 103.516 99.9689 104.14 100.645 104.608C101.321 105.059 102.179 105.284 103.219 105.284C104.311 105.284 105.195 105.041 105.871 104.556C106.564 104.071 106.98 103.507 107.119 102.866H109.459C109.268 103.819 108.887 104.643 108.315 105.336C107.743 106.029 107.024 106.558 106.157 106.922C105.29 107.286 104.311 107.468 103.219 107.468Z" fill="#13131A"/>
<path d="M118.645 107.156C117.605 107.156 116.703 107.009 115.941 106.714C115.195 106.419 114.615 105.917 114.199 105.206C113.8 104.478 113.601 103.499 113.601 102.268V88.904H115.993V102.58C115.993 103.325 116.192 103.906 116.591 104.322C117.007 104.721 117.587 104.92 118.333 104.92H120.777V107.156H118.645ZM111.209 94.988V93.116H120.777V94.988H111.209Z" fill="#13131A"/>
<path d="M129.715 107.156C128.675 107.156 127.774 107.009 127.011 106.714C126.266 106.419 125.685 105.917 125.269 105.206C124.87 104.478 124.671 103.499 124.671 102.268V88.904H127.063V102.58C127.063 103.325 127.262 103.906 127.661 104.322C128.077 104.721 128.658 104.92 129.403 104.92H131.847V107.156H129.715ZM122.279 94.988V93.116H131.847V94.988H122.279Z" fill="#13131A"/>
<path d="M141.178 107.468C139.965 107.468 138.916 107.26 138.032 106.844C137.148 106.428 136.429 105.882 135.874 105.206C135.319 104.513 134.903 103.741 134.626 102.892C134.366 102.043 134.236 101.176 134.236 100.292V99.824C134.236 98.9227 134.366 98.0473 134.626 97.198C134.903 96.3487 135.319 95.586 135.874 94.91C136.429 94.2167 137.131 93.6707 137.98 93.272C138.847 92.856 139.861 92.648 141.022 92.648C142.53 92.648 143.769 92.9773 144.74 93.636C145.728 94.2773 146.456 95.1093 146.924 96.132C147.409 97.1547 147.652 98.2467 147.652 99.408V100.526H135.328V98.654H145.832L145.26 99.668C145.26 98.68 145.104 97.8307 144.792 97.12C144.48 96.392 144.012 95.8287 143.388 95.43C142.764 95.0313 141.975 94.832 141.022 94.832C140.034 94.832 139.211 95.0573 138.552 95.508C137.911 95.9587 137.425 96.574 137.096 97.354C136.784 98.134 136.628 99.0353 136.628 100.058C136.628 101.046 136.784 101.939 137.096 102.736C137.425 103.516 137.928 104.14 138.604 104.608C139.28 105.059 140.138 105.284 141.178 105.284C142.27 105.284 143.154 105.041 143.83 104.556C144.523 104.071 144.939 103.507 145.078 102.866H147.418C147.227 103.819 146.846 104.643 146.274 105.336C145.702 106.029 144.983 106.558 144.116 106.922C143.249 107.286 142.27 107.468 141.178 107.468Z" fill="#13131A"/>
<path d="M151.196 107V93.116H153.172V98.836H153.068C153.068 96.808 153.51 95.326 154.394 94.39C155.295 93.4367 156.638 92.96 158.424 92.96H158.892V95.196H158.008C156.621 95.196 155.555 95.5687 154.81 96.314C154.064 97.042 153.692 98.0993 153.692 99.486V107H151.196Z" fill="#13131A"/>
<path d="M173.574 107.468C172.586 107.468 171.676 107.286 170.844 106.922C170.012 106.558 169.284 106.047 168.66 105.388C168.053 104.729 167.577 103.967 167.23 103.1C166.901 102.233 166.736 101.297 166.736 100.292V99.824C166.736 98.836 166.901 97.9087 167.23 97.042C167.559 96.1753 168.019 95.4127 168.608 94.754C169.215 94.0953 169.925 93.584 170.74 93.22C171.572 92.8387 172.491 92.648 173.496 92.648C174.553 92.648 175.515 92.8733 176.382 93.324C177.249 93.7573 177.959 94.442 178.514 95.378C179.069 96.314 179.381 97.5273 179.45 99.018L178.41 97.354V88.02H180.906V107H178.93V100.838H179.658C179.589 102.415 179.259 103.698 178.67 104.686C178.081 105.657 177.335 106.367 176.434 106.818C175.55 107.251 174.597 107.468 173.574 107.468ZM173.912 105.284C174.761 105.284 175.533 105.093 176.226 104.712C176.919 104.331 177.474 103.785 177.89 103.074C178.306 102.346 178.514 101.497 178.514 100.526V99.33C178.514 98.3767 178.297 97.5707 177.864 96.912C177.448 96.236 176.885 95.7247 176.174 95.378C175.481 95.014 174.718 94.832 173.886 94.832C172.967 94.832 172.153 95.0487 171.442 95.482C170.749 95.9153 170.203 96.522 169.804 97.302C169.423 98.082 169.232 99.0007 169.232 100.058C169.232 101.115 169.431 102.043 169.83 102.84C170.229 103.62 170.783 104.227 171.494 104.66C172.205 105.076 173.011 105.284 173.912 105.284Z" fill="#13131A"/>
<path d="M194.1 107V102.84H193.684V98.03C193.684 97.0767 193.432 96.3573 192.93 95.872C192.444 95.3867 191.725 95.144 190.772 95.144C190.234 95.144 189.68 95.1527 189.108 95.17C188.536 95.1873 187.99 95.2047 187.47 95.222C186.95 95.2393 186.499 95.2653 186.118 95.3V93.116C186.499 93.0813 186.898 93.0553 187.314 93.038C187.747 93.0033 188.189 92.986 188.64 92.986C189.09 92.9687 189.524 92.96 189.94 92.96C191.361 92.96 192.522 93.1333 193.424 93.48C194.325 93.8093 194.992 94.3553 195.426 95.118C195.859 95.8807 196.076 96.912 196.076 98.212V107H194.1ZM189.55 107.364C188.51 107.364 187.608 107.191 186.846 106.844C186.1 106.48 185.52 105.96 185.104 105.284C184.705 104.608 184.506 103.793 184.506 102.84C184.506 101.852 184.722 101.029 185.156 100.37C185.606 99.7113 186.256 99.2173 187.106 98.888C187.955 98.5413 188.978 98.368 190.174 98.368H193.944V100.24H190.07C189.064 100.24 188.293 100.483 187.756 100.968C187.218 101.453 186.95 102.077 186.95 102.84C186.95 103.603 187.218 104.218 187.756 104.686C188.293 105.154 189.064 105.388 190.07 105.388C190.659 105.388 191.222 105.284 191.76 105.076C192.297 104.851 192.739 104.487 193.086 103.984C193.45 103.464 193.649 102.753 193.684 101.852L194.36 102.84C194.273 103.828 194.03 104.66 193.632 105.336C193.25 105.995 192.713 106.497 192.02 106.844C191.344 107.191 190.52 107.364 189.55 107.364Z" fill="#13131A"/>
<path d="M206.065 107.156C205.025 107.156 204.123 107.009 203.361 106.714C202.615 106.419 202.035 105.917 201.619 105.206C201.22 104.478 201.021 103.499 201.021 102.268V88.904H203.413V102.58C203.413 103.325 203.612 103.906 204.011 104.322C204.427 104.721 205.007 104.92 205.753 104.92H208.197V107.156H206.065ZM198.629 94.988V93.116H208.197V94.988H198.629Z" fill="#13131A"/>
<path d="M220.074 107V102.84H219.658V98.03C219.658 97.0767 219.407 96.3573 218.904 95.872C218.419 95.3867 217.7 95.144 216.746 95.144C216.209 95.144 215.654 95.1527 215.082 95.17C214.51 95.1873 213.964 95.2047 213.444 95.222C212.924 95.2393 212.474 95.2653 212.092 95.3V93.116C212.474 93.0813 212.872 93.0553 213.288 93.038C213.722 93.0033 214.164 92.986 214.614 92.986C215.065 92.9687 215.498 92.96 215.914 92.96C217.336 92.96 218.497 93.1333 219.398 93.48C220.3 93.8093 220.967 94.3553 221.4 95.118C221.834 95.8807 222.05 96.912 222.05 98.212V107H220.074ZM215.524 107.364C214.484 107.364 213.583 107.191 212.82 106.844C212.075 106.48 211.494 105.96 211.078 105.284C210.68 104.608 210.48 103.793 210.48 102.84C210.48 101.852 210.697 101.029 211.13 100.37C211.581 99.7113 212.231 99.2173 213.08 98.888C213.93 98.5413 214.952 98.368 216.148 98.368H219.918V100.24H216.044C215.039 100.24 214.268 100.483 213.73 100.968C213.193 101.453 212.924 102.077 212.924 102.84C212.924 103.603 213.193 104.218 213.73 104.686C214.268 105.154 215.039 105.388 216.044 105.388C216.634 105.388 217.197 105.284 217.734 105.076C218.272 104.851 218.714 104.487 219.06 103.984C219.424 103.464 219.624 102.753 219.658 101.852L220.334 102.84C220.248 103.828 220.005 104.66 219.606 105.336C219.225 105.995 218.688 106.497 217.994 106.844C217.318 107.191 216.495 107.364 215.524 107.364Z" fill="#13131A"/>
<path d="M235.511 107L230.779 93.116H233.379L238.007 107H235.511ZM236.135 107V105.024H239.151V107H236.135ZM237.331 107L241.361 93.116H243.805L239.697 107H237.331Z" fill="#13131A"/>
<path d="M247.747 107V93.116H250.243V107H247.747ZM245.615 95.092V93.116H250.243V95.092H245.615ZM248.449 90.88C247.894 90.88 247.478 90.7327 247.201 90.438C246.941 90.1433 246.811 89.7707 246.811 89.32C246.811 88.8693 246.941 88.4967 247.201 88.202C247.478 87.9073 247.894 87.76 248.449 87.76C249.003 87.76 249.411 87.9073 249.671 88.202C249.948 88.4967 250.087 88.8693 250.087 89.32C250.087 89.7707 249.948 90.1433 249.671 90.438C249.411 90.7327 249.003 90.88 248.449 90.88Z" fill="#13131A"/>
<path d="M259.619 107.416C257.799 107.416 256.386 107.026 255.381 106.246C254.393 105.466 253.881 104.4 253.847 103.048H256.187C256.221 103.585 256.49 104.097 256.993 104.582C257.513 105.05 258.388 105.284 259.619 105.284C260.728 105.284 261.577 105.067 262.167 104.634C262.756 104.183 263.051 103.637 263.051 102.996C263.051 102.424 262.834 101.982 262.401 101.67C261.967 101.341 261.265 101.124 260.295 101.02L258.787 100.864C257.469 100.725 256.395 100.335 255.563 99.694C254.731 99.0353 254.315 98.1167 254.315 96.938C254.315 96.054 254.54 95.3 254.991 94.676C255.441 94.0347 256.065 93.5493 256.863 93.22C257.66 92.8733 258.579 92.7 259.619 92.7C261.179 92.7 262.444 93.0467 263.415 93.74C264.385 94.4333 264.888 95.4647 264.923 96.834H262.583C262.565 96.2793 262.305 95.8113 261.803 95.43C261.317 95.0313 260.589 94.832 259.619 94.832C258.648 94.832 257.911 95.0313 257.409 95.43C256.906 95.8287 256.655 96.3313 256.655 96.938C256.655 97.458 256.828 97.874 257.175 98.186C257.539 98.498 258.128 98.6973 258.943 98.784L260.451 98.94C261.941 99.096 263.137 99.512 264.039 100.188C264.94 100.847 265.391 101.783 265.391 102.996C265.391 103.863 265.139 104.634 264.637 105.31C264.151 105.969 263.475 106.489 262.609 106.87C261.742 107.234 260.745 107.416 259.619 107.416Z" fill="#13131A"/>
<path d="M269.684 107V93.116H272.18V107H269.684ZM267.552 95.092V93.116H272.18V95.092H267.552ZM270.386 90.88C269.832 90.88 269.416 90.7327 269.138 90.438C268.878 90.1433 268.748 89.7707 268.748 89.32C268.748 88.8693 268.878 88.4967 269.138 88.202C269.416 87.9073 269.832 87.76 270.386 87.76C270.941 87.76 271.348 87.9073 271.608 88.202C271.886 88.4967 272.024 88.8693 272.024 89.32C272.024 89.7707 271.886 90.1433 271.608 90.438C271.348 90.7327 270.941 90.88 270.386 90.88Z" fill="#13131A"/>
<path d="M284.338 107.468C283.194 107.468 282.172 107.217 281.27 106.714C280.386 106.211 279.684 105.483 279.164 104.53C278.644 103.559 278.358 102.398 278.306 101.046H278.982V107H277.006V88.02H279.502V97.25L278.618 99.148C278.688 97.64 278.991 96.4093 279.528 95.456C280.066 94.5027 280.768 93.8007 281.634 93.35C282.518 92.882 283.489 92.648 284.546 92.648C285.534 92.648 286.436 92.8387 287.25 93.22C288.065 93.584 288.767 94.0953 289.356 94.754C289.946 95.3953 290.396 96.1493 290.708 97.016C291.02 97.8653 291.176 98.784 291.176 99.772V100.24C291.176 101.228 291.012 102.155 290.682 103.022C290.37 103.889 289.911 104.66 289.304 105.336C288.698 105.995 287.97 106.515 287.12 106.896C286.288 107.277 285.361 107.468 284.338 107.468ZM284.052 105.284C284.988 105.284 285.803 105.059 286.496 104.608C287.19 104.157 287.727 103.542 288.108 102.762C288.49 101.965 288.68 101.046 288.68 100.006C288.68 98.966 288.481 98.056 288.082 97.276C287.701 96.496 287.164 95.898 286.47 95.482C285.777 95.0487 284.971 94.832 284.052 94.832C283.22 94.832 282.449 95.0227 281.738 95.404C281.028 95.768 280.456 96.3053 280.022 97.016C279.606 97.7093 279.398 98.55 279.398 99.538V100.734C279.398 101.687 279.615 102.502 280.048 103.178C280.482 103.854 281.054 104.374 281.764 104.738C282.475 105.102 283.238 105.284 284.052 105.284Z" fill="#13131A"/>
<path d="M295.608 107V93.116H298.104V107H295.608ZM293.476 95.092V93.116H298.104V95.092H293.476ZM296.31 90.88C295.755 90.88 295.339 90.7327 295.062 90.438C294.802 90.1433 294.672 89.7707 294.672 89.32C294.672 88.8693 294.802 88.4967 295.062 88.202C295.339 87.9073 295.755 87.76 296.31 87.76C296.865 87.76 297.272 87.9073 297.532 88.202C297.809 88.4967 297.948 88.8693 297.948 89.32C297.948 89.7707 297.809 90.1433 297.532 90.438C297.272 90.7327 296.865 90.88 296.31 90.88Z" fill="#13131A"/>
<path d="M303.086 107V88.02H305.582V107H303.086ZM301.162 89.996V88.02H305.582V89.996H301.162Z" fill="#13131A"/>
<path d="M311.046 107V93.116H313.542V107H311.046ZM308.914 95.092V93.116H313.542V95.092H308.914ZM311.748 90.88C311.193 90.88 310.777 90.7327 310.5 90.438C310.24 90.1433 310.11 89.7707 310.11 89.32C310.11 88.8693 310.24 88.4967 310.5 88.202C310.777 87.9073 311.193 87.76 311.748 87.76C312.302 87.76 312.71 87.9073 312.97 88.202C313.247 88.4967 313.386 88.8693 313.386 89.32C313.386 89.7707 313.247 90.1433 312.97 90.438C312.71 90.7327 312.302 90.88 311.748 90.88Z" fill="#13131A"/>
<path d="M323.776 107.156C322.736 107.156 321.834 107.009 321.072 106.714C320.326 106.419 319.746 105.917 319.33 105.206C318.931 104.478 318.732 103.499 318.732 102.268V88.904H321.124V102.58C321.124 103.325 321.323 103.906 321.722 104.322C322.138 104.721 322.718 104.92 323.464 104.92H325.908V107.156H323.776ZM316.34 94.988V93.116H325.908V94.988H316.34Z" fill="#13131A"/>
<path d="M328.502 112.408V110.172H330.504C331.093 110.172 331.587 110.094 331.986 109.938C332.402 109.799 332.74 109.557 333 109.21C333.277 108.863 333.503 108.404 333.676 107.832L338.044 93.116H340.488L335.86 108.482C335.583 109.401 335.193 110.146 334.69 110.718C334.187 111.307 333.572 111.732 332.844 111.992C332.133 112.269 331.301 112.408 330.348 112.408H328.502ZM332.74 106.688V104.608H335.756V106.688H332.74ZM332.48 106.688L327.514 93.116H330.062L334.82 106.688H332.48Z" fill="#13131A"/>
<path d="M85.9171 382.468C84.3397 382.468 82.9964 382.208 81.8871 381.688C80.7777 381.168 79.9284 380.449 79.3391 379.53C78.7497 378.611 78.4551 377.571 78.4551 376.41H81.0031C81.0031 376.982 81.1504 377.554 81.4451 378.126C81.7571 378.698 82.2684 379.175 82.9791 379.556C83.7071 379.937 84.6864 380.128 85.9171 380.128C87.0611 380.128 87.9971 379.963 88.7251 379.634C89.4531 379.287 89.9904 378.845 90.3371 378.308C90.6837 377.753 90.8571 377.155 90.8571 376.514C90.8571 375.734 90.5191 375.093 89.8431 374.59C89.1671 374.07 88.1791 373.749 86.8791 373.628L84.7731 373.446C83.0917 373.307 81.7484 372.787 80.7431 371.886C79.7377 370.985 79.2351 369.797 79.2351 368.324C79.2351 367.163 79.5124 366.149 80.0671 365.282C80.6391 364.415 81.4277 363.739 82.4331 363.254C83.4384 362.751 84.6084 362.5 85.9431 362.5C87.2604 362.5 88.4217 362.743 89.4271 363.228C90.4324 363.713 91.2124 364.398 91.7671 365.282C92.3391 366.149 92.6251 367.189 92.6251 368.402H90.0771C90.0771 367.795 89.9297 367.223 89.6351 366.686C89.3577 366.149 88.9157 365.707 88.3091 365.36C87.7024 365.013 86.9137 364.84 85.9431 364.84C85.0071 364.84 84.2271 365.005 83.6031 365.334C82.9964 365.663 82.5371 366.097 82.2251 366.634C81.9304 367.154 81.7831 367.717 81.7831 368.324C81.7831 369.017 82.0517 369.633 82.5891 370.17C83.1264 370.707 83.9237 371.019 84.9811 371.106L87.0871 371.288C88.3871 371.392 89.5051 371.669 90.4411 372.12C91.3944 372.553 92.1224 373.143 92.6251 373.888C93.1451 374.616 93.4051 375.491 93.4051 376.514C93.4051 377.675 93.0931 378.707 92.4691 379.608C91.8451 380.509 90.9697 381.211 89.8431 381.714C88.7164 382.217 87.4077 382.468 85.9171 382.468Z" fill="#13131A"/>
<path d="M105.715 382V377.84H105.299V373.03C105.299 372.077 105.048 371.357 104.545 370.872C104.06 370.387 103.34 370.144 102.387 370.144C101.85 370.144 101.295 370.153 100.723 370.17C100.151 370.187 99.6049 370.205 99.0849 370.222C98.5649 370.239 98.1142 370.265 97.7329 370.3V368.116C98.1142 368.081 98.5129 368.055 98.9289 368.038C99.3622 368.003 99.8042 367.986 100.255 367.986C100.706 367.969 101.139 367.96 101.555 367.96C102.976 367.96 104.138 368.133 105.039 368.48C105.94 368.809 106.608 369.355 107.041 370.118C107.474 370.881 107.691 371.912 107.691 373.212V382H105.715ZM101.165 382.364C100.125 382.364 99.2235 382.191 98.4609 381.844C97.7155 381.48 97.1349 380.96 96.7189 380.284C96.3202 379.608 96.1209 378.793 96.1209 377.84C96.1209 376.852 96.3375 376.029 96.7709 375.37C97.2215 374.711 97.8715 374.217 98.7209 373.888C99.5702 373.541 100.593 373.368 101.789 373.368H105.559V375.24H101.685C100.68 375.24 99.9082 375.483 99.3709 375.968C98.8335 376.453 98.5649 377.077 98.5649 377.84C98.5649 378.603 98.8335 379.218 99.3709 379.686C99.9082 380.154 100.68 380.388 101.685 380.388C102.274 380.388 102.838 380.284 103.375 380.076C103.912 379.851 104.354 379.487 104.701 378.984C105.065 378.464 105.264 377.753 105.299 376.852L105.975 377.84C105.888 378.828 105.646 379.66 105.247 380.336C104.866 380.995 104.328 381.497 103.635 381.844C102.959 382.191 102.136 382.364 101.165 382.364Z" fill="#13131A"/>
<path d="M120.67 382V377.84H120.254V373.03C120.254 372.077 120.003 371.357 119.5 370.872C119.015 370.387 118.295 370.144 117.342 370.144C116.805 370.144 116.25 370.153 115.678 370.17C115.106 370.187 114.56 370.205 114.04 370.222C113.52 370.239 113.069 370.265 112.688 370.3V368.116C113.069 368.081 113.468 368.055 113.884 368.038C114.317 368.003 114.759 367.986 115.21 367.986C115.661 367.969 116.094 367.96 116.51 367.96C117.931 367.96 119.093 368.133 119.994 368.48C120.895 368.809 121.563 369.355 121.996 370.118C122.429 370.881 122.646 371.912 122.646 373.212V382H120.67ZM116.12 382.364C115.08 382.364 114.179 382.191 113.416 381.844C112.671 381.48 112.09 380.96 111.674 380.284C111.275 379.608 111.076 378.793 111.076 377.84C111.076 376.852 111.293 376.029 111.726 375.37C112.177 374.711 112.827 374.217 113.676 373.888C114.525 373.541 115.548 373.368 116.744 373.368H120.514V375.24H116.64C115.635 375.24 114.863 375.483 114.326 375.968C113.789 376.453 113.52 377.077 113.52 377.84C113.52 378.603 113.789 379.218 114.326 379.686C114.863 380.154 115.635 380.388 116.64 380.388C117.229 380.388 117.793 380.284 118.33 380.076C118.867 379.851 119.309 379.487 119.656 378.984C120.02 378.464 120.219 377.753 120.254 376.852L120.93 377.84C120.843 378.828 120.601 379.66 120.202 380.336C119.821 380.995 119.283 381.497 118.59 381.844C117.914 382.191 117.091 382.364 116.12 382.364Z" fill="#13131A"/>
<path d="M133.753 382.468C132.176 382.468 130.832 382.208 129.723 381.688C128.614 381.168 127.764 380.449 127.175 379.53C126.586 378.611 126.291 377.571 126.291 376.41H128.839C128.839 376.982 128.986 377.554 129.281 378.126C129.593 378.698 130.104 379.175 130.815 379.556C131.543 379.937 132.522 380.128 133.753 380.128C134.897 380.128 135.833 379.963 136.561 379.634C137.289 379.287 137.826 378.845 138.173 378.308C138.52 377.753 138.693 377.155 138.693 376.514C138.693 375.734 138.355 375.093 137.679 374.59C137.003 374.07 136.015 373.749 134.715 373.628L132.609 373.446C130.928 373.307 129.584 372.787 128.579 371.886C127.574 370.985 127.071 369.797 127.071 368.324C127.071 367.163 127.348 366.149 127.903 365.282C128.475 364.415 129.264 363.739 130.269 363.254C131.274 362.751 132.444 362.5 133.779 362.5C135.096 362.5 136.258 362.743 137.263 363.228C138.268 363.713 139.048 364.398 139.603 365.282C140.175 366.149 140.461 367.189 140.461 368.402H137.913C137.913 367.795 137.766 367.223 137.471 366.686C137.194 366.149 136.752 365.707 136.145 365.36C135.538 365.013 134.75 364.84 133.779 364.84C132.843 364.84 132.063 365.005 131.439 365.334C130.832 365.663 130.373 366.097 130.061 366.634C129.766 367.154 129.619 367.717 129.619 368.324C129.619 369.017 129.888 369.633 130.425 370.17C130.962 370.707 131.76 371.019 132.817 371.106L134.923 371.288C136.223 371.392 137.341 371.669 138.277 372.12C139.23 372.553 139.958 373.143 140.461 373.888C140.981 374.616 141.241 375.491 141.241 376.514C141.241 377.675 140.929 378.707 140.305 379.608C139.681 380.509 138.806 381.211 137.679 381.714C136.552 382.217 135.244 382.468 133.753 382.468Z" fill="#13131A"/>
<path d="M78.52 152V149.6C78.52 149.013 78.6 148.513 78.76 148.1C78.9333 147.687 79.2267 147.313 79.64 146.98C80.0533 146.633 80.6133 146.3 81.32 145.98L84.06 144.72C84.7267 144.413 85.2533 144.02 85.64 143.54C86.0267 143.047 86.22 142.413 86.22 141.64C86.22 140.707 85.96 139.98 85.44 139.46C84.92 138.94 84.1867 138.68 83.24 138.68C82.3067 138.68 81.5733 138.94 81.04 139.46C80.5067 139.98 80.24 140.707 80.24 141.64H78.36C78.36 140.8 78.5333 140.027 78.88 139.32C79.24 138.613 79.78 138.053 80.5 137.64C81.22 137.213 82.1333 137 83.24 137C84.3467 137 85.2533 137.213 85.96 137.64C86.68 138.053 87.2133 138.6 87.56 139.28C87.92 139.96 88.1 140.7 88.1 141.5V141.78C88.1 142.833 87.7933 143.72 87.18 144.44C86.58 145.16 85.7667 145.753 84.74 146.22L82 147.48C81.3867 147.76 80.9733 148.04 80.76 148.32C80.5467 148.6 80.44 148.973 80.44 149.44V151.28L79.92 150.36H88.28V152H78.52ZM96.8033 152.36C95.7099 152.36 94.7766 152.173 94.0033 151.8C93.2433 151.413 92.6233 150.893 92.1433 150.24C91.6766 149.587 91.3366 148.833 91.1233 147.98C90.9099 147.113 90.8033 146.2 90.8033 145.24V144.16C90.8033 142.813 91.0099 141.6 91.4233 140.52C91.8499 139.44 92.5033 138.587 93.3833 137.96C94.2766 137.32 95.4166 137 96.8033 137C98.1899 137 99.3233 137.32 100.203 137.96C101.083 138.587 101.73 139.44 102.143 140.52C102.57 141.6 102.783 142.813 102.783 144.16V145.24C102.783 146.2 102.677 147.113 102.463 147.98C102.25 148.833 101.903 149.587 101.423 150.24C100.957 150.893 100.343 151.413 99.5833 151.8C98.8233 152.173 97.8966 152.36 96.8033 152.36ZM96.8033 150.6C98.1899 150.6 99.2033 150.133 99.8433 149.2C100.497 148.253 100.823 146.76 100.823 144.72C100.823 142.587 100.49 141.06 99.8233 140.14C99.1699 139.22 98.1633 138.76 96.8033 138.76C95.4299 138.76 94.4099 139.22 93.7433 140.14C93.0899 141.06 92.7633 142.573 92.7633 144.68C92.7633 146.733 93.0899 148.233 93.7433 149.18C94.3966 150.127 95.4166 150.6 96.8033 150.6ZM105.747 152V149.6C105.747 149.013 105.827 148.513 105.987 148.1C106.16 147.687 106.453 147.313 106.867 146.98C107.28 146.633 107.84 146.3 108.547 145.98L111.287 144.72C111.953 144.413 112.48 144.02 112.867 143.54C113.253 143.047 113.447 142.413 113.447 141.64C113.447 140.707 113.187 139.98 112.667 139.46C112.147 138.94 111.413 138.68 110.467 138.68C109.533 138.68 108.8 138.94 108.267 139.46C107.733 139.98 107.467 140.707 107.467 141.64H105.587C105.587 140.8 105.76 140.027 106.107 139.32C106.467 138.613 107.007 138.053 107.727 137.64C108.447 137.213 109.36 137 110.467 137C111.573 137 112.48 137.213 113.187 137.64C113.907 138.053 114.44 138.6 114.787 139.28C115.147 139.96 115.327 140.7 115.327 141.5V141.78C115.327 142.833 115.02 143.72 114.407 144.44C113.807 145.16 112.993 145.753 111.967 146.22L109.227 147.48C108.613 147.76 108.2 148.04 107.987 148.32C107.773 148.6 107.667 148.973 107.667 149.44V151.28L107.147 150.36H115.507V152H105.747ZM117.55 148.54V146.18L123.61 137.04L124.95 138.1L119.29 146.66L119.47 147.02H128.91V148.54H117.55ZM125.17 152V141.66H126.97V152H125.17Z" fill="#13131A"/>
<path d="M556 384L566 374L556 364M542 384L552 374L542 364" stroke="#1E1E1E" stroke-width="4" stroke-linecap="round" stroke-linejoin="round"/>
</g>
</svg>
