<svg width="621" height="427" viewBox="0 0 621 427" fill="none" xmlns="http://www.w3.org/2000/svg">
<mask id="mask0_319_5371" style="mask-type:alpha" maskUnits="userSpaceOnUse" x="0" y="0" width="621" height="427">
<rect width="621" height="427" rx="40" fill="#E4E3DD"/>
</mask>
<g mask="url(#mask0_319_5371)">
<g style="mix-blend-mode:multiply">
<path d="M-110.148 327.888C-95.5073 283.966 -21.2118 278.764 14.1059 281.654C27.2696 281.654 58.7984 283.773 79.6037 292.249C105.61 302.844 114.279 315.366 121.022 350.042C126.416 377.782 86.0251 393.707 65.1556 398.202C75.7509 398.202 114.279 416.503 121.022 436.73C126.416 452.912 123.269 468.516 121.022 474.296C121.792 498.954 69.3295 510.898 43.0018 513.787C16.9951 516.677 -44.6503 518.988 -83.1787 505.118C-121.707 491.248 -128.128 467.232 -126.523 456.958C-131.917 424.594 -90.242 404.302 -68.7303 398.202C-89.9209 392.423 -100.516 378.938 -110.148 364.49C-117.854 352.931 -113.359 335.272 -110.148 327.888Z" fill="#CD9EA1"/>
</g>
</g>
</svg>
