<svg width="621" height="427" viewBox="0 0 621 427" fill="none" xmlns="http://www.w3.org/2000/svg">
<mask id="mask0_312_4376" style="mask-type:alpha" maskUnits="userSpaceOnUse" x="0" y="0" width="621" height="427">
<rect width="621" height="427" rx="40" fill="#E4E3DD"/>
</mask>
<g mask="url(#mask0_312_4376)">
<g style="mix-blend-mode:multiply">
<path d="M11.4642 40.7153C50.0943 -75.1752 246.125 -88.8991 339.312 -81.2747C374.045 -81.2747 457.235 -75.6836 512.13 -53.319C580.75 -25.3634 603.623 7.67594 621.413 99.1684C635.645 172.362 529.073 214.381 474.008 226.241C501.964 226.241 603.623 274.529 621.413 327.9C635.645 370.596 627.343 411.768 621.413 427.016C623.446 492.078 485.021 523.592 415.555 531.216C346.936 538.841 184.282 544.94 82.6239 508.343C-19.0344 471.746 -35.9771 408.379 -31.7412 381.27C-45.9733 295.877 63.9871 242.337 120.746 226.241C64.8342 210.993 36.8788 175.412 11.4642 137.29C-8.86748 106.793 2.99265 60.1996 11.4642 40.7153Z" fill="#CD9EA1"/>
</g>
<path d="M86.918 68.468C85.3407 68.468 83.9973 68.208 82.888 67.688C81.7787 67.168 80.9293 66.4487 80.34 65.53C79.7507 64.6113 79.456 63.5713 79.456 62.41H82.004C82.004 62.982 82.1513 63.554 82.446 64.126C82.758 64.698 83.2693 65.1747 83.98 65.556C84.708 65.9373 85.6873 66.128 86.918 66.128C88.062 66.128 88.998 65.9633 89.726 65.634C90.454 65.2873 90.9913 64.8453 91.338 64.308C91.6847 63.7533 91.858 63.1553 91.858 62.514C91.858 61.734 91.52 61.0927 90.844 60.59C90.168 60.07 89.18 59.7493 87.88 59.628L85.774 59.446C84.0927 59.3073 82.7493 58.7873 81.744 57.886C80.7387 56.9847 80.236 55.7973 80.236 54.324C80.236 53.1627 80.5133 52.1487 81.068 51.282C81.64 50.4153 82.4287 49.7393 83.434 49.254C84.4393 48.7513 85.6093 48.5 86.944 48.5C88.2613 48.5 89.4227 48.7427 90.428 49.228C91.4333 49.7133 92.2133 50.398 92.768 51.282C93.34 52.1487 93.626 53.1887 93.626 54.402H91.078C91.078 53.7953 90.9307 53.2233 90.636 52.686C90.3587 52.1487 89.9167 51.7067 89.31 51.36C88.7033 51.0133 87.9147 50.84 86.944 50.84C86.008 50.84 85.228 51.0047 84.604 51.334C83.9973 51.6633 83.538 52.0967 83.226 52.634C82.9313 53.154 82.784 53.7173 82.784 54.324C82.784 55.0173 83.0527 55.6327 83.59 56.17C84.1273 56.7073 84.9247 57.0193 85.982 57.106L88.088 57.288C89.388 57.392 90.506 57.6693 91.442 58.12C92.3953 58.5533 93.1233 59.1427 93.626 59.888C94.146 60.616 94.406 61.4913 94.406 62.514C94.406 63.6753 94.094 64.7067 93.47 65.608C92.846 66.5093 91.9707 67.2113 90.844 67.714C89.7173 68.2167 88.4087 68.468 86.918 68.468ZM98.9938 68V54.116H101.49V68H98.9938ZM96.8618 56.092V54.116H101.49V56.092H96.8618ZM99.6958 51.88C99.1411 51.88 98.7251 51.7327 98.4478 51.438C98.1878 51.1433 98.0578 50.7707 98.0578 50.32C98.0578 49.8693 98.1878 49.4967 98.4478 49.202C98.7251 48.9073 99.1411 48.76 99.6958 48.76C100.25 48.76 100.658 48.9073 100.918 49.202C101.195 49.4967 101.334 49.8693 101.334 50.32C101.334 50.7707 101.195 51.1433 100.918 51.438C100.658 51.7327 100.25 51.88 99.6958 51.88ZM106.316 68V54.116H108.292V60.07H107.98C107.98 58.718 108.153 57.574 108.5 56.638C108.864 55.6847 109.401 54.9567 110.112 54.454C110.822 53.9513 111.724 53.7 112.816 53.7H112.92C114.012 53.7 114.913 53.9513 115.624 54.454C116.352 54.9567 116.889 55.6847 117.236 56.638C117.582 57.574 117.756 58.718 117.756 60.07H117.028C117.028 58.718 117.21 57.574 117.574 56.638C117.938 55.6847 118.475 54.9567 119.186 54.454C119.914 53.9513 120.824 53.7 121.916 53.7H122.02C123.112 53.7 124.022 53.9513 124.75 54.454C125.478 54.9567 126.015 55.6847 126.362 56.638C126.726 57.574 126.908 58.718 126.908 60.07V68H124.412V59.524C124.412 58.3973 124.134 57.5307 123.58 56.924C123.025 56.3 122.254 55.988 121.266 55.988C120.243 55.988 119.42 56.3173 118.796 56.976C118.172 57.6173 117.86 58.5187 117.86 59.68V68H115.364V59.524C115.364 58.3973 115.086 57.5307 114.532 56.924C113.977 56.3 113.206 55.988 112.218 55.988C111.195 55.988 110.372 56.3173 109.748 56.976C109.124 57.6173 108.812 58.5187 108.812 59.68V68H106.316ZM131.478 73.2V54.116H133.454V60.122L132.986 60.07C133.073 58.5793 133.385 57.366 133.922 56.43C134.477 55.4767 135.196 54.7747 136.08 54.324C136.964 53.8733 137.926 53.648 138.966 53.648C139.971 53.648 140.881 53.8387 141.696 54.22C142.528 54.6013 143.239 55.1213 143.828 55.78C144.417 56.4387 144.868 57.2013 145.18 58.068C145.492 58.9347 145.648 59.8533 145.648 60.824V61.292C145.648 62.2627 145.483 63.1813 145.154 64.048C144.825 64.9147 144.357 65.6773 143.75 66.336C143.161 66.9947 142.45 67.5147 141.618 67.896C140.803 68.2773 139.902 68.468 138.914 68.468C137.926 68.468 136.981 68.2513 136.08 67.818C135.179 67.3847 134.433 66.6827 133.844 65.712C133.255 64.7413 132.917 63.4673 132.83 61.89L133.974 63.97V73.2H131.478ZM138.524 66.284C139.46 66.284 140.275 66.0673 140.968 65.634C141.661 65.1833 142.199 64.568 142.58 63.788C142.961 62.9907 143.152 62.0807 143.152 61.058C143.152 60.018 142.961 59.108 142.58 58.328C142.199 57.548 141.661 56.9413 140.968 56.508C140.275 56.0573 139.46 55.832 138.524 55.832C137.692 55.832 136.921 56.0227 136.21 56.404C135.499 56.768 134.927 57.3053 134.494 58.016C134.078 58.7093 133.87 59.55 133.87 60.538V61.734C133.87 62.6873 134.087 63.502 134.52 64.178C134.953 64.854 135.525 65.374 136.236 65.738C136.947 66.102 137.709 66.284 138.524 66.284ZM149.56 68V49.02H152.056V68H149.56ZM147.636 50.996V49.02H152.056V50.996H147.636ZM157.519 68V54.116H160.015V68H157.519ZM155.387 56.092V54.116H160.015V56.092H155.387ZM158.221 51.88C157.667 51.88 157.251 51.7327 156.973 51.438C156.713 51.1433 156.583 50.7707 156.583 50.32C156.583 49.8693 156.713 49.4967 156.973 49.202C157.251 48.9073 157.667 48.76 158.221 48.76C158.776 48.76 159.183 48.9073 159.443 49.202C159.721 49.4967 159.859 49.8693 159.859 50.32C159.859 50.7707 159.721 51.1433 159.443 51.438C159.183 51.7327 158.776 51.88 158.221 51.88ZM165.205 68V53.414C165.205 51.8713 165.613 50.736 166.427 50.008C167.242 49.28 168.438 48.916 170.015 48.916H171.731V50.996H169.599C168.958 50.996 168.464 51.178 168.117 51.542C167.771 51.8887 167.597 52.374 167.597 52.998V68H165.205ZM163.281 56.144V54.272H171.991V56.144H163.281ZM174.163 73.408V71.172H176.165C176.754 71.172 177.248 71.094 177.647 70.938C178.063 70.7993 178.401 70.5567 178.661 70.21C178.938 69.8633 179.164 69.404 179.337 68.832L183.705 54.116H186.149L181.521 69.482C181.244 70.4007 180.854 71.146 180.351 71.718C179.848 72.3073 179.233 72.732 178.505 72.992C177.794 73.2693 176.962 73.408 176.009 73.408H174.163ZM178.401 67.688V65.608H181.417V67.688H178.401ZM178.141 67.688L173.175 54.116H175.723L180.481 67.688H178.141ZM189.994 68V54.116H192.49V68H189.994ZM187.862 56.092V54.116H192.49V56.092H187.862ZM190.696 51.88C190.141 51.88 189.725 51.7327 189.448 51.438C189.188 51.1433 189.058 50.7707 189.058 50.32C189.058 49.8693 189.188 49.4967 189.448 49.202C189.725 48.9073 190.141 48.76 190.696 48.76C191.25 48.76 191.658 48.9073 191.918 49.202C192.195 49.4967 192.334 49.8693 192.334 50.32C192.334 50.7707 192.195 51.1433 191.918 51.438C191.658 51.7327 191.25 51.88 190.696 51.88ZM197.316 68V54.116H199.292V60.07H198.98C198.98 58.7007 199.162 57.548 199.526 56.612C199.907 55.6587 200.479 54.9393 201.242 54.454C202.004 53.9513 202.966 53.7 204.128 53.7H204.232C205.982 53.7 207.274 54.246 208.106 55.338C208.955 56.43 209.38 58.0073 209.38 60.07V68H206.884V59.55C206.884 58.4753 206.58 57.6173 205.974 56.976C205.367 56.3173 204.535 55.988 203.478 55.988C202.386 55.988 201.502 56.326 200.826 57.002C200.15 57.678 199.812 58.5793 199.812 59.706V68H197.316ZM219.199 73.408C218.557 73.408 217.907 73.382 217.249 73.33C216.607 73.278 215.992 73.2087 215.403 73.122V71.016C216.027 71.1027 216.677 71.172 217.353 71.224C218.046 71.2933 218.696 71.328 219.303 71.328C220.568 71.328 221.573 71.1547 222.319 70.808C223.081 70.4787 223.627 69.95 223.957 69.222C224.303 68.5113 224.477 67.5927 224.477 66.466V63.814L225.309 61.838C225.257 63.242 224.962 64.412 224.425 65.348C223.887 66.2667 223.185 66.96 222.319 67.428C221.469 67.8787 220.525 68.104 219.485 68.104C218.514 68.104 217.621 67.922 216.807 67.558C216.009 67.1767 215.316 66.6567 214.727 65.998C214.155 65.3393 213.704 64.5853 213.375 63.736C213.063 62.8693 212.907 61.9593 212.907 61.006V60.538C212.907 59.5673 213.071 58.666 213.401 57.834C213.73 56.9847 214.189 56.248 214.779 55.624C215.368 55 216.07 54.5147 216.885 54.168C217.717 53.8213 218.627 53.648 219.615 53.648C220.776 53.648 221.799 53.8993 222.683 54.402C223.567 54.8873 224.26 55.6067 224.763 56.56C225.283 57.496 225.569 58.6487 225.621 60.018L224.893 60.044V54.116H226.869V66.362C226.869 68.026 226.609 69.3693 226.089 70.392C225.586 71.432 224.771 72.1947 223.645 72.68C222.535 73.1653 221.053 73.408 219.199 73.408ZM219.953 65.816C220.785 65.816 221.539 65.634 222.215 65.27C222.908 64.906 223.454 64.386 223.853 63.71C224.269 63.0167 224.477 62.1933 224.477 61.24V60.044C224.477 59.108 224.26 58.3193 223.827 57.678C223.411 57.0367 222.865 56.5513 222.189 56.222C221.513 55.8927 220.776 55.728 219.979 55.728C219.077 55.728 218.28 55.936 217.587 56.352C216.893 56.768 216.356 57.3573 215.975 58.12C215.593 58.8653 215.403 59.7493 215.403 60.772C215.403 61.7947 215.593 62.6873 215.975 63.45C216.373 64.2127 216.911 64.802 217.587 65.218C218.28 65.6167 219.069 65.816 219.953 65.816ZM243.362 68.468C242.166 68.468 241.126 68.26 240.242 67.844C239.375 67.428 238.656 66.8733 238.084 66.18C237.512 65.4693 237.078 64.6893 236.784 63.84C236.506 62.9907 236.368 62.1413 236.368 61.292V60.824C236.368 59.94 236.506 59.0733 236.784 58.224C237.078 57.3747 237.512 56.612 238.084 55.936C238.673 55.2427 239.401 54.688 240.268 54.272C241.134 53.856 242.148 53.648 243.31 53.648C244.471 53.648 245.511 53.8647 246.43 54.298C247.366 54.7313 248.111 55.3467 248.666 56.144C249.238 56.924 249.558 57.8513 249.628 58.926H247.236C247.114 58.0593 246.716 57.34 246.04 56.768C245.364 56.1787 244.454 55.884 243.31 55.884C242.322 55.884 241.498 56.1093 240.84 56.56C240.181 57.0107 239.687 57.626 239.358 58.406C239.028 59.186 238.864 60.07 238.864 61.058C238.864 62.0113 239.028 62.8867 239.358 63.684C239.687 64.464 240.181 65.088 240.84 65.556C241.516 66.0067 242.356 66.232 243.362 66.232C244.142 66.232 244.818 66.0933 245.39 65.816C245.962 65.5387 246.421 65.166 246.768 64.698C247.114 64.23 247.322 63.7013 247.392 63.112H249.784C249.732 64.204 249.411 65.1487 248.822 65.946C248.25 66.7433 247.487 67.3673 246.534 67.818C245.598 68.2513 244.54 68.468 243.362 68.468ZM259.571 68.468C258.358 68.468 257.292 68.26 256.373 67.844C255.455 67.428 254.675 66.882 254.033 66.206C253.409 65.5127 252.933 64.7413 252.603 63.892C252.291 63.0427 252.135 62.176 252.135 61.292V60.824C252.135 59.94 252.3 59.0733 252.629 58.224C252.959 57.3573 253.444 56.586 254.085 55.91C254.727 55.2167 255.507 54.6707 256.425 54.272C257.344 53.856 258.393 53.648 259.571 53.648C260.75 53.648 261.799 53.856 262.717 54.272C263.636 54.6707 264.416 55.2167 265.057 55.91C265.699 56.586 266.184 57.3573 266.513 58.224C266.843 59.0733 267.007 59.94 267.007 60.824V61.292C267.007 62.176 266.843 63.0427 266.513 63.892C266.201 64.7413 265.725 65.5127 265.083 66.206C264.459 66.882 263.688 67.428 262.769 67.844C261.851 68.26 260.785 68.468 259.571 68.468ZM259.571 66.232C260.611 66.232 261.495 66.0067 262.223 65.556C262.969 65.088 263.532 64.464 263.913 63.684C264.312 62.904 264.511 62.0287 264.511 61.058C264.511 60.07 264.312 59.186 263.913 58.406C263.515 57.626 262.943 57.0107 262.197 56.56C261.469 56.1093 260.594 55.884 259.571 55.884C258.566 55.884 257.691 56.1093 256.945 56.56C256.2 57.0107 255.628 57.626 255.229 58.406C254.831 59.186 254.631 60.07 254.631 61.058C254.631 62.0287 254.822 62.904 255.203 63.684C255.602 64.464 256.165 65.088 256.893 65.556C257.639 66.0067 258.531 66.232 259.571 66.232ZM270.746 68V54.116H272.722V60.07H272.41C272.41 58.718 272.583 57.574 272.93 56.638C273.294 55.6847 273.831 54.9567 274.542 54.454C275.252 53.9513 276.154 53.7 277.246 53.7H277.35C278.442 53.7 279.343 53.9513 280.054 54.454C280.782 54.9567 281.319 55.6847 281.666 56.638C282.012 57.574 282.186 58.718 282.186 60.07H281.458C281.458 58.718 281.64 57.574 282.004 56.638C282.368 55.6847 282.905 54.9567 283.616 54.454C284.344 53.9513 285.254 53.7 286.346 53.7H286.45C287.542 53.7 288.452 53.9513 289.18 54.454C289.908 54.9567 290.445 55.6847 290.792 56.638C291.156 57.574 291.338 58.718 291.338 60.07V68H288.842V59.524C288.842 58.3973 288.564 57.5307 288.01 56.924C287.455 56.3 286.684 55.988 285.696 55.988C284.673 55.988 283.85 56.3173 283.226 56.976C282.602 57.6173 282.29 58.5187 282.29 59.68V68H279.794V59.524C279.794 58.3973 279.516 57.5307 278.962 56.924C278.407 56.3 277.636 55.988 276.648 55.988C275.625 55.988 274.802 56.3173 274.178 56.976C273.554 57.6173 273.242 58.5187 273.242 59.68V68H270.746ZM295.908 73.2V54.116H297.884V60.122L297.416 60.07C297.502 58.5793 297.814 57.366 298.352 56.43C298.906 55.4767 299.626 54.7747 300.51 54.324C301.394 53.8733 302.356 53.648 303.396 53.648C304.401 53.648 305.311 53.8387 306.126 54.22C306.958 54.6013 307.668 55.1213 308.258 55.78C308.847 56.4387 309.298 57.2013 309.61 58.068C309.922 58.9347 310.078 59.8533 310.078 60.824V61.292C310.078 62.2627 309.913 63.1813 309.584 64.048C309.254 64.9147 308.786 65.6773 308.18 66.336C307.59 66.9947 306.88 67.5147 306.048 67.896C305.233 68.2773 304.332 68.468 303.344 68.468C302.356 68.468 301.411 68.2513 300.51 67.818C299.608 67.3847 298.863 66.6827 298.274 65.712C297.684 64.7413 297.346 63.4673 297.26 61.89L298.404 63.97V73.2H295.908ZM302.954 66.284C303.89 66.284 304.704 66.0673 305.398 65.634C306.091 65.1833 306.628 64.568 307.01 63.788C307.391 62.9907 307.582 62.0807 307.582 61.058C307.582 60.018 307.391 59.108 307.01 58.328C306.628 57.548 306.091 56.9413 305.398 56.508C304.704 56.0573 303.89 55.832 302.954 55.832C302.122 55.832 301.35 56.0227 300.64 56.404C299.929 56.768 299.357 57.3053 298.924 58.016C298.508 58.7093 298.3 59.55 298.3 60.538V61.734C298.3 62.6873 298.516 63.502 298.95 64.178C299.383 64.854 299.955 65.374 300.666 65.738C301.376 66.102 302.139 66.284 302.954 66.284ZM313.989 68V49.02H316.485V68H313.989ZM312.065 50.996V49.02H316.485V50.996H312.065ZM321.949 68V54.116H324.445V68H321.949ZM319.817 56.092V54.116H324.445V56.092H319.817ZM322.651 51.88C322.096 51.88 321.68 51.7327 321.403 51.438C321.143 51.1433 321.013 50.7707 321.013 50.32C321.013 49.8693 321.143 49.4967 321.403 49.202C321.68 48.9073 322.096 48.76 322.651 48.76C323.206 48.76 323.613 48.9073 323.873 49.202C324.15 49.4967 324.289 49.8693 324.289 50.32C324.289 50.7707 324.15 51.1433 323.873 51.438C323.613 51.7327 323.206 51.88 322.651 51.88ZM337.669 68V63.84H337.253V59.03C337.253 58.0767 337.002 57.3573 336.499 56.872C336.014 56.3867 335.294 56.144 334.341 56.144C333.804 56.144 333.249 56.1527 332.677 56.17C332.105 56.1873 331.559 56.2047 331.039 56.222C330.519 56.2393 330.068 56.2653 329.687 56.3V54.116C330.068 54.0813 330.467 54.0553 330.883 54.038C331.316 54.0033 331.758 53.986 332.209 53.986C332.66 53.9687 333.093 53.96 333.509 53.96C334.93 53.96 336.092 54.1333 336.993 54.48C337.894 54.8093 338.562 55.3553 338.995 56.118C339.428 56.8807 339.645 57.912 339.645 59.212V68H337.669ZM333.119 68.364C332.079 68.364 331.178 68.1907 330.415 67.844C329.67 67.48 329.089 66.96 328.673 66.284C328.274 65.608 328.075 64.7933 328.075 63.84C328.075 62.852 328.292 62.0287 328.725 61.37C329.176 60.7113 329.826 60.2173 330.675 59.888C331.524 59.5413 332.547 59.368 333.743 59.368H337.513V61.24H333.639C332.634 61.24 331.862 61.4827 331.325 61.968C330.788 62.4533 330.519 63.0773 330.519 63.84C330.519 64.6027 330.788 65.218 331.325 65.686C331.862 66.154 332.634 66.388 333.639 66.388C334.228 66.388 334.792 66.284 335.329 66.076C335.866 65.8507 336.308 65.4867 336.655 64.984C337.019 64.464 337.218 63.7533 337.253 62.852L337.929 63.84C337.842 64.828 337.6 65.66 337.201 66.336C336.82 66.9947 336.282 67.4973 335.589 67.844C334.913 68.1907 334.09 68.364 333.119 68.364ZM344.226 68V54.116H346.202V60.07H345.89C345.89 58.7007 346.072 57.548 346.436 56.612C346.817 55.6587 347.389 54.9393 348.152 54.454C348.915 53.9513 349.877 53.7 351.038 53.7H351.142C352.893 53.7 354.184 54.246 355.016 55.338C355.865 56.43 356.29 58.0073 356.29 60.07V68H353.794V59.55C353.794 58.4753 353.491 57.6173 352.884 56.976C352.277 56.3173 351.445 55.988 350.388 55.988C349.296 55.988 348.412 56.326 347.736 57.002C347.06 57.678 346.722 58.5793 346.722 59.706V68H344.226ZM366.811 68.468C365.615 68.468 364.575 68.26 363.691 67.844C362.824 67.428 362.105 66.8733 361.533 66.18C360.961 65.4693 360.528 64.6893 360.233 63.84C359.956 62.9907 359.817 62.1413 359.817 61.292V60.824C359.817 59.94 359.956 59.0733 360.233 58.224C360.528 57.3747 360.961 56.612 361.533 55.936C362.122 55.2427 362.85 54.688 363.717 54.272C364.584 53.856 365.598 53.648 366.759 53.648C367.92 53.648 368.96 53.8647 369.879 54.298C370.815 54.7313 371.56 55.3467 372.115 56.144C372.687 56.924 373.008 57.8513 373.077 58.926H370.685C370.564 58.0593 370.165 57.34 369.489 56.768C368.813 56.1787 367.903 55.884 366.759 55.884C365.771 55.884 364.948 56.1093 364.289 56.56C363.63 57.0107 363.136 57.626 362.807 58.406C362.478 59.186 362.313 60.07 362.313 61.058C362.313 62.0113 362.478 62.8867 362.807 63.684C363.136 64.464 363.63 65.088 364.289 65.556C364.965 66.0067 365.806 66.232 366.811 66.232C367.591 66.232 368.267 66.0933 368.839 65.816C369.411 65.5387 369.87 65.166 370.217 64.698C370.564 64.23 370.772 63.7013 370.841 63.112H373.233C373.181 64.204 372.86 65.1487 372.271 65.946C371.699 66.7433 370.936 67.3673 369.983 67.818C369.047 68.2513 367.99 68.468 366.811 68.468ZM382.526 68.468C381.313 68.468 380.264 68.26 379.38 67.844C378.496 67.428 377.777 66.882 377.222 66.206C376.668 65.5127 376.252 64.7413 375.974 63.892C375.714 63.0427 375.584 62.176 375.584 61.292V60.824C375.584 59.9227 375.714 59.0473 375.974 58.198C376.252 57.3487 376.668 56.586 377.222 55.91C377.777 55.2167 378.479 54.6707 379.328 54.272C380.195 53.856 381.209 53.648 382.37 53.648C383.878 53.648 385.118 53.9773 386.088 54.636C387.076 55.2773 387.804 56.1093 388.272 57.132C388.758 58.1547 389 59.2467 389 60.408V61.526H376.676V59.654H387.18L386.608 60.668C386.608 59.68 386.452 58.8307 386.14 58.12C385.828 57.392 385.36 56.8287 384.736 56.43C384.112 56.0313 383.324 55.832 382.37 55.832C381.382 55.832 380.559 56.0573 379.9 56.508C379.259 56.9587 378.774 57.574 378.444 58.354C378.132 59.134 377.976 60.0353 377.976 61.058C377.976 62.046 378.132 62.9387 378.444 63.736C378.774 64.516 379.276 65.14 379.952 65.608C380.628 66.0587 381.486 66.284 382.526 66.284C383.618 66.284 384.502 66.0413 385.178 65.556C385.872 65.0707 386.288 64.5073 386.426 63.866H388.766C388.576 64.8193 388.194 65.6427 387.622 66.336C387.05 67.0293 386.331 67.558 385.464 67.922C384.598 68.286 383.618 68.468 382.526 68.468ZM403.868 68.156C402.828 68.156 401.927 68.0087 401.164 67.714C400.419 67.4193 399.838 66.9167 399.422 66.206C399.024 65.478 398.824 64.4987 398.824 63.268V49.904H401.216V63.58C401.216 64.3253 401.416 64.906 401.814 65.322C402.23 65.7207 402.811 65.92 403.556 65.92H406V68.156H403.868ZM396.432 55.988V54.116H406V55.988H396.432ZM409.531 68V49.02H412.027V60.356H411.403C411.403 58.9867 411.576 57.808 411.923 56.82C412.287 55.8147 412.841 55.0433 413.587 54.506C414.332 53.9687 415.285 53.7 416.447 53.7H416.551C418.215 53.7 419.471 54.2547 420.321 55.364C421.17 56.456 421.595 58.0247 421.595 60.07V68H419.099V59.55C419.099 58.4233 418.778 57.548 418.137 56.924C417.513 56.3 416.698 55.988 415.693 55.988C414.583 55.988 413.691 56.3607 413.015 57.106C412.356 57.834 412.027 58.796 412.027 59.992V68H409.531ZM426.162 68V54.116H428.138V59.836H428.034C428.034 57.808 428.476 56.326 429.36 55.39C430.261 54.4367 431.604 53.96 433.39 53.96H433.858V56.196H432.974C431.587 56.196 430.521 56.5687 429.776 57.314C429.03 58.042 428.658 59.0993 428.658 60.486V68H426.162ZM443.069 68.468C441.856 68.468 440.79 68.26 439.871 67.844C438.953 67.428 438.173 66.882 437.531 66.206C436.907 65.5127 436.431 64.7413 436.101 63.892C435.789 63.0427 435.633 62.176 435.633 61.292V60.824C435.633 59.94 435.798 59.0733 436.127 58.224C436.457 57.3573 436.942 56.586 437.583 55.91C438.225 55.2167 439.005 54.6707 439.923 54.272C440.842 53.856 441.891 53.648 443.069 53.648C444.248 53.648 445.297 53.856 446.215 54.272C447.134 54.6707 447.914 55.2167 448.555 55.91C449.197 56.586 449.682 57.3573 450.011 58.224C450.341 59.0733 450.505 59.94 450.505 60.824V61.292C450.505 62.176 450.341 63.0427 450.011 63.892C449.699 64.7413 449.223 65.5127 448.581 66.206C447.957 66.882 447.186 67.428 446.267 67.844C445.349 68.26 444.283 68.468 443.069 68.468ZM443.069 66.232C444.109 66.232 444.993 66.0067 445.721 65.556C446.467 65.088 447.03 64.464 447.411 63.684C447.81 62.904 448.009 62.0287 448.009 61.058C448.009 60.07 447.81 59.186 447.411 58.406C447.013 57.626 446.441 57.0107 445.695 56.56C444.967 56.1093 444.092 55.884 443.069 55.884C442.064 55.884 441.189 56.1093 440.443 56.56C439.698 57.0107 439.126 57.626 438.727 58.406C438.329 59.186 438.129 60.07 438.129 61.058C438.129 62.0287 438.32 62.904 438.701 63.684C439.1 64.464 439.663 65.088 440.391 65.556C441.137 66.0067 442.029 66.232 443.069 66.232ZM459.054 68.416C457.407 68.416 456.142 67.8787 455.258 66.804C454.374 65.7293 453.932 64.178 453.932 62.15V54.09H456.428V62.644C456.428 63.736 456.722 64.594 457.312 65.218C457.901 65.8247 458.698 66.128 459.704 66.128C460.744 66.128 461.593 65.7987 462.252 65.14C462.91 64.464 463.24 63.5453 463.24 62.384V54.09H465.736V68H463.76V62.046H464.072C464.072 63.4153 463.89 64.5767 463.526 65.53C463.162 66.466 462.616 67.1853 461.888 67.688C461.177 68.1733 460.267 68.416 459.158 68.416H459.054ZM475.822 73.408C475.18 73.408 474.53 73.382 473.872 73.33C473.23 73.278 472.615 73.2087 472.026 73.122V71.016C472.65 71.1027 473.3 71.172 473.976 71.224C474.669 71.2933 475.319 71.328 475.926 71.328C477.191 71.328 478.196 71.1547 478.942 70.808C479.704 70.4787 480.25 69.95 480.58 69.222C480.926 68.5113 481.1 67.5927 481.1 66.466V63.814L481.932 61.838C481.88 63.242 481.585 64.412 481.048 65.348C480.51 66.2667 479.808 66.96 478.942 67.428C478.092 67.8787 477.148 68.104 476.108 68.104C475.137 68.104 474.244 67.922 473.43 67.558C472.632 67.1767 471.939 66.6567 471.35 65.998C470.778 65.3393 470.327 64.5853 469.998 63.736C469.686 62.8693 469.53 61.9593 469.53 61.006V60.538C469.53 59.5673 469.694 58.666 470.024 57.834C470.353 56.9847 470.812 56.248 471.402 55.624C471.991 55 472.693 54.5147 473.508 54.168C474.34 53.8213 475.25 53.648 476.238 53.648C477.399 53.648 478.422 53.8993 479.306 54.402C480.19 54.8873 480.883 55.6067 481.386 56.56C481.906 57.496 482.192 58.6487 482.244 60.018L481.516 60.044V54.116H483.492V66.362C483.492 68.026 483.232 69.3693 482.712 70.392C482.209 71.432 481.394 72.1947 480.268 72.68C479.158 73.1653 477.676 73.408 475.822 73.408ZM476.576 65.816C477.408 65.816 478.162 65.634 478.838 65.27C479.531 64.906 480.077 64.386 480.476 63.71C480.892 63.0167 481.1 62.1933 481.1 61.24V60.044C481.1 59.108 480.883 58.3193 480.45 57.678C480.034 57.0367 479.488 56.5513 478.812 56.222C478.136 55.8927 477.399 55.728 476.602 55.728C475.7 55.728 474.903 55.936 474.21 56.352C473.516 56.768 472.979 57.3573 472.598 58.12C472.216 58.8653 472.026 59.7493 472.026 60.772C472.026 61.7947 472.216 62.6873 472.598 63.45C472.996 64.2127 473.534 64.802 474.21 65.218C474.903 65.6167 475.692 65.816 476.576 65.816ZM488.115 68V49.02H490.611V60.356H489.987C489.987 58.9867 490.16 57.808 490.507 56.82C490.871 55.8147 491.425 55.0433 492.171 54.506C492.916 53.9687 493.869 53.7 495.031 53.7H495.135C496.799 53.7 498.055 54.2547 498.905 55.364C499.754 56.456 500.179 58.0247 500.179 60.07V68H497.683V59.55C497.683 58.4233 497.362 57.548 496.721 56.924C496.097 56.3 495.282 55.988 494.277 55.988C493.167 55.988 492.275 56.3607 491.599 57.106C490.94 57.834 490.611 58.796 490.611 59.992V68H488.115ZM87.724 107.468C86.58 107.468 85.5573 107.217 84.656 106.714C83.772 106.211 83.07 105.483 82.55 104.53C82.03 103.559 81.744 102.398 81.692 101.046H82.368V107H80.392V88.02H82.888V97.25L82.004 99.148C82.0733 97.64 82.3767 96.4093 82.914 95.456C83.4513 94.5027 84.1533 93.8007 85.02 93.35C85.904 92.882 86.8747 92.648 87.932 92.648C88.92 92.648 89.8213 92.8387 90.636 93.22C91.4507 93.584 92.1527 94.0953 92.742 94.754C93.3313 95.3953 93.782 96.1493 94.094 97.016C94.406 97.8653 94.562 98.784 94.562 99.772V100.24C94.562 101.228 94.3973 102.155 94.068 103.022C93.756 103.889 93.2967 104.66 92.69 105.336C92.0833 105.995 91.3553 106.515 90.506 106.896C89.674 107.277 88.7467 107.468 87.724 107.468ZM87.438 105.284C88.374 105.284 89.1887 105.059 89.882 104.608C90.5753 104.157 91.1127 103.542 91.494 102.762C91.8753 101.965 92.066 101.046 92.066 100.006C92.066 98.966 91.8667 98.056 91.468 97.276C91.0867 96.496 90.5493 95.898 89.856 95.482C89.1627 95.0487 88.3567 94.832 87.438 94.832C86.606 94.832 85.8347 95.0227 85.124 95.404C84.4133 95.768 83.8413 96.3053 83.408 97.016C82.992 97.7093 82.784 98.55 82.784 99.538V100.734C82.784 101.687 83.0007 102.502 83.434 103.178C83.8673 103.854 84.4393 104.374 85.15 104.738C85.8607 105.102 86.6233 105.284 87.438 105.284ZM104.22 107.468C103.006 107.468 101.958 107.26 101.074 106.844C100.19 106.428 99.4704 105.882 98.9158 105.206C98.3611 104.513 97.9451 103.741 97.6678 102.892C97.4078 102.043 97.2778 101.176 97.2778 100.292V99.824C97.2778 98.9227 97.4078 98.0473 97.6678 97.198C97.9451 96.3487 98.3611 95.586 98.9158 94.91C99.4704 94.2167 100.172 93.6707 101.022 93.272C101.888 92.856 102.902 92.648 104.064 92.648C105.572 92.648 106.811 92.9773 107.782 93.636C108.77 94.2773 109.498 95.1093 109.966 96.132C110.451 97.1547 110.694 98.2467 110.694 99.408V100.526H98.3698V98.654H108.874L108.302 99.668C108.302 98.68 108.146 97.8307 107.834 97.12C107.522 96.392 107.054 95.8287 106.43 95.43C105.806 95.0313 105.017 94.832 104.064 94.832C103.076 94.832 102.252 95.0573 101.594 95.508C100.952 95.9587 100.467 96.574 100.138 97.354C99.8258 98.134 99.6698 99.0353 99.6698 100.058C99.6698 101.046 99.8258 101.939 100.138 102.736C100.467 103.516 100.97 104.14 101.646 104.608C102.322 105.059 103.18 105.284 104.22 105.284C105.312 105.284 106.196 105.041 106.872 104.556C107.565 104.071 107.981 103.507 108.12 102.866H110.46C110.269 103.819 109.888 104.643 109.316 105.336C108.744 106.029 108.024 106.558 107.158 106.922C106.291 107.286 105.312 107.468 104.22 107.468ZM119.646 107.156C118.606 107.156 117.704 107.009 116.942 106.714C116.196 106.419 115.616 105.917 115.2 105.206C114.801 104.478 114.602 103.499 114.602 102.268V88.904H116.994V102.58C116.994 103.325 117.193 103.906 117.592 104.322C118.008 104.721 118.588 104.92 119.334 104.92H121.778V107.156H119.646ZM112.21 94.988V93.116H121.778V94.988H112.21ZM130.716 107.156C129.676 107.156 128.775 107.009 128.012 106.714C127.267 106.419 126.686 105.917 126.27 105.206C125.871 104.478 125.672 103.499 125.672 102.268V88.904H128.064V102.58C128.064 103.325 128.263 103.906 128.662 104.322C129.078 104.721 129.659 104.92 130.404 104.92H132.848V107.156H130.716ZM123.28 94.988V93.116H132.848V94.988H123.28ZM142.179 107.468C140.965 107.468 139.917 107.26 139.033 106.844C138.149 106.428 137.429 105.882 136.875 105.206C136.32 104.513 135.904 103.741 135.627 102.892C135.367 102.043 135.237 101.176 135.237 100.292V99.824C135.237 98.9227 135.367 98.0473 135.627 97.198C135.904 96.3487 136.32 95.586 136.875 94.91C137.429 94.2167 138.131 93.6707 138.981 93.272C139.847 92.856 140.861 92.648 142.023 92.648C143.531 92.648 144.77 92.9773 145.741 93.636C146.729 94.2773 147.457 95.1093 147.925 96.132C148.41 97.1547 148.653 98.2467 148.653 99.408V100.526H136.329V98.654H146.833L146.261 99.668C146.261 98.68 146.105 97.8307 145.793 97.12C145.481 96.392 145.013 95.8287 144.389 95.43C143.765 95.0313 142.976 94.832 142.023 94.832C141.035 94.832 140.211 95.0573 139.553 95.508C138.911 95.9587 138.426 96.574 138.097 97.354C137.785 98.134 137.629 99.0353 137.629 100.058C137.629 101.046 137.785 101.939 138.097 102.736C138.426 103.516 138.929 104.14 139.605 104.608C140.281 105.059 141.139 105.284 142.179 105.284C143.271 105.284 144.155 105.041 144.831 104.556C145.524 104.071 145.94 103.507 146.079 102.866H148.419C148.228 103.819 147.847 104.643 147.275 105.336C146.703 106.029 145.983 106.558 145.117 106.922C144.25 107.286 143.271 107.468 142.179 107.468ZM152.197 107V93.116H154.173V98.836H154.069C154.069 96.808 154.511 95.326 155.395 94.39C156.296 93.4367 157.639 92.96 159.425 92.96H159.893V95.196H159.009C157.622 95.196 156.556 95.5687 155.811 96.314C155.065 97.042 154.693 98.0993 154.693 99.486V107H152.197ZM174.575 107.468C173.587 107.468 172.677 107.286 171.845 106.922C171.013 106.558 170.285 106.047 169.661 105.388C169.054 104.729 168.577 103.967 168.231 103.1C167.901 102.233 167.737 101.297 167.737 100.292V99.824C167.737 98.836 167.901 97.9087 168.231 97.042C168.56 96.1753 169.019 95.4127 169.609 94.754C170.215 94.0953 170.926 93.584 171.741 93.22C172.573 92.8387 173.491 92.648 174.497 92.648C175.554 92.648 176.516 92.8733 177.383 93.324C178.249 93.7573 178.96 94.442 179.515 95.378C180.069 96.314 180.381 97.5273 180.451 99.018L179.411 97.354V88.02H181.907V107H179.931V100.838H180.659C180.589 102.415 180.26 103.698 179.671 104.686C179.081 105.657 178.336 106.367 177.435 106.818C176.551 107.251 175.597 107.468 174.575 107.468ZM174.913 105.284C175.762 105.284 176.533 105.093 177.227 104.712C177.92 104.331 178.475 103.785 178.891 103.074C179.307 102.346 179.515 101.497 179.515 100.526V99.33C179.515 98.3767 179.298 97.5707 178.865 96.912C178.449 96.236 177.885 95.7247 177.175 95.378C176.481 95.014 175.719 94.832 174.887 94.832C173.968 94.832 173.153 95.0487 172.443 95.482C171.749 95.9153 171.203 96.522 170.805 97.302C170.423 98.082 170.233 99.0007 170.233 100.058C170.233 101.115 170.432 102.043 170.831 102.84C171.229 103.62 171.784 104.227 172.495 104.66C173.205 105.076 174.011 105.284 174.913 105.284ZM195.101 107V102.84H194.685V98.03C194.685 97.0767 194.433 96.3573 193.931 95.872C193.445 95.3867 192.726 95.144 191.773 95.144C191.235 95.144 190.681 95.1527 190.109 95.17C189.537 95.1873 188.991 95.2047 188.471 95.222C187.951 95.2393 187.5 95.2653 187.119 95.3V93.116C187.5 93.0813 187.899 93.0553 188.315 93.038C188.748 93.0033 189.19 92.986 189.641 92.986C190.091 92.9687 190.525 92.96 190.941 92.96C192.362 92.96 193.523 93.1333 194.425 93.48C195.326 93.8093 195.993 94.3553 196.427 95.118C196.86 95.8807 197.077 96.912 197.077 98.212V107H195.101ZM190.551 107.364C189.511 107.364 188.609 107.191 187.847 106.844C187.101 106.48 186.521 105.96 186.105 105.284C185.706 104.608 185.507 103.793 185.507 102.84C185.507 101.852 185.723 101.029 186.157 100.37C186.607 99.7113 187.257 99.2173 188.107 98.888C188.956 98.5413 189.979 98.368 191.175 98.368H194.945V100.24H191.071C190.065 100.24 189.294 100.483 188.757 100.968C188.219 101.453 187.951 102.077 187.951 102.84C187.951 103.603 188.219 104.218 188.757 104.686C189.294 105.154 190.065 105.388 191.071 105.388C191.66 105.388 192.223 105.284 192.761 105.076C193.298 104.851 193.74 104.487 194.087 103.984C194.451 103.464 194.65 102.753 194.685 101.852L195.361 102.84C195.274 103.828 195.031 104.66 194.633 105.336C194.251 105.995 193.714 106.497 193.021 106.844C192.345 107.191 191.521 107.364 190.551 107.364ZM207.066 107.156C206.026 107.156 205.124 107.009 204.362 106.714C203.616 106.419 203.036 105.917 202.62 105.206C202.221 104.478 202.022 103.499 202.022 102.268V88.904H204.414V102.58C204.414 103.325 204.613 103.906 205.012 104.322C205.428 104.721 206.008 104.92 206.754 104.92H209.198V107.156H207.066ZM199.63 94.988V93.116H209.198V94.988H199.63ZM221.075 107V102.84H220.659V98.03C220.659 97.0767 220.408 96.3573 219.905 95.872C219.42 95.3867 218.7 95.144 217.747 95.144C217.21 95.144 216.655 95.1527 216.083 95.17C215.511 95.1873 214.965 95.2047 214.445 95.222C213.925 95.2393 213.474 95.2653 213.093 95.3V93.116C213.474 93.0813 213.873 93.0553 214.289 93.038C214.722 93.0033 215.164 92.986 215.615 92.986C216.066 92.9687 216.499 92.96 216.915 92.96C218.336 92.96 219.498 93.1333 220.399 93.48C221.3 93.8093 221.968 94.3553 222.401 95.118C222.834 95.8807 223.051 96.912 223.051 98.212V107H221.075ZM216.525 107.364C215.485 107.364 214.584 107.191 213.821 106.844C213.076 106.48 212.495 105.96 212.079 105.284C211.68 104.608 211.481 103.793 211.481 102.84C211.481 101.852 211.698 101.029 212.131 100.37C212.582 99.7113 213.232 99.2173 214.081 98.888C214.93 98.5413 215.953 98.368 217.149 98.368H220.919V100.24H217.045C216.04 100.24 215.268 100.483 214.731 100.968C214.194 101.453 213.925 102.077 213.925 102.84C213.925 103.603 214.194 104.218 214.731 104.686C215.268 105.154 216.04 105.388 217.045 105.388C217.634 105.388 218.198 105.284 218.735 105.076C219.272 104.851 219.714 104.487 220.061 103.984C220.425 103.464 220.624 102.753 220.659 101.852L221.335 102.84C221.248 103.828 221.006 104.66 220.607 105.336C220.226 105.995 219.688 106.497 218.995 106.844C218.319 107.191 217.496 107.364 216.525 107.364ZM236.512 107L231.78 93.116H234.38L239.008 107H236.512ZM237.136 107V105.024H240.152V107H237.136ZM238.332 107L242.362 93.116H244.806L240.698 107H238.332ZM248.748 107V93.116H251.244V107H248.748ZM246.616 95.092V93.116H251.244V95.092H246.616ZM249.45 90.88C248.895 90.88 248.479 90.7327 248.202 90.438C247.942 90.1433 247.812 89.7707 247.812 89.32C247.812 88.8693 247.942 88.4967 248.202 88.202C248.479 87.9073 248.895 87.76 249.45 87.76C250.004 87.76 250.412 87.9073 250.672 88.202C250.949 88.4967 251.088 88.8693 251.088 89.32C251.088 89.7707 250.949 90.1433 250.672 90.438C250.412 90.7327 250.004 90.88 249.45 90.88ZM260.62 107.416C258.8 107.416 257.387 107.026 256.382 106.246C255.394 105.466 254.882 104.4 254.848 103.048H257.188C257.222 103.585 257.491 104.097 257.994 104.582C258.514 105.05 259.389 105.284 260.62 105.284C261.729 105.284 262.578 105.067 263.168 104.634C263.757 104.183 264.052 103.637 264.052 102.996C264.052 102.424 263.835 101.982 263.402 101.67C262.968 101.341 262.266 101.124 261.296 101.02L259.788 100.864C258.47 100.725 257.396 100.335 256.564 99.694C255.732 99.0353 255.316 98.1167 255.316 96.938C255.316 96.054 255.541 95.3 255.992 94.676C256.442 94.0347 257.066 93.5493 257.864 93.22C258.661 92.8733 259.58 92.7 260.62 92.7C262.18 92.7 263.445 93.0467 264.416 93.74C265.386 94.4333 265.889 95.4647 265.924 96.834H263.584C263.566 96.2793 263.306 95.8113 262.804 95.43C262.318 95.0313 261.59 94.832 260.62 94.832C259.649 94.832 258.912 95.0313 258.41 95.43C257.907 95.8287 257.656 96.3313 257.656 96.938C257.656 97.458 257.829 97.874 258.176 98.186C258.54 98.498 259.129 98.6973 259.944 98.784L261.452 98.94C262.942 99.096 264.138 99.512 265.04 100.188C265.941 100.847 266.392 101.783 266.392 102.996C266.392 103.863 266.14 104.634 265.638 105.31C265.152 105.969 264.476 106.489 263.61 106.87C262.743 107.234 261.746 107.416 260.62 107.416ZM270.685 107V93.116H273.181V107H270.685ZM268.553 95.092V93.116H273.181V95.092H268.553ZM271.387 90.88C270.833 90.88 270.417 90.7327 270.139 90.438C269.879 90.1433 269.749 89.7707 269.749 89.32C269.749 88.8693 269.879 88.4967 270.139 88.202C270.417 87.9073 270.833 87.76 271.387 87.76C271.942 87.76 272.349 87.9073 272.609 88.202C272.887 88.4967 273.025 88.8693 273.025 89.32C273.025 89.7707 272.887 90.1433 272.609 90.438C272.349 90.7327 271.942 90.88 271.387 90.88ZM285.339 107.468C284.195 107.468 283.173 107.217 282.271 106.714C281.387 106.211 280.685 105.483 280.165 104.53C279.645 103.559 279.359 102.398 279.307 101.046H279.983V107H278.007V88.02H280.503V97.25L279.619 99.148C279.689 97.64 279.992 96.4093 280.529 95.456C281.067 94.5027 281.769 93.8007 282.635 93.35C283.519 92.882 284.49 92.648 285.547 92.648C286.535 92.648 287.437 92.8387 288.251 93.22C289.066 93.584 289.768 94.0953 290.357 94.754C290.947 95.3953 291.397 96.1493 291.709 97.016C292.021 97.8653 292.177 98.784 292.177 99.772V100.24C292.177 101.228 292.013 102.155 291.683 103.022C291.371 103.889 290.912 104.66 290.305 105.336C289.699 105.995 288.971 106.515 288.121 106.896C287.289 107.277 286.362 107.468 285.339 107.468ZM285.053 105.284C285.989 105.284 286.804 105.059 287.497 104.608C288.191 104.157 288.728 103.542 289.109 102.762C289.491 101.965 289.681 101.046 289.681 100.006C289.681 98.966 289.482 98.056 289.083 97.276C288.702 96.496 288.165 95.898 287.471 95.482C286.778 95.0487 285.972 94.832 285.053 94.832C284.221 94.832 283.45 95.0227 282.739 95.404C282.029 95.768 281.457 96.3053 281.023 97.016C280.607 97.7093 280.399 98.55 280.399 99.538V100.734C280.399 101.687 280.616 102.502 281.049 103.178C281.483 103.854 282.055 104.374 282.765 104.738C283.476 105.102 284.239 105.284 285.053 105.284ZM296.609 107V93.116H299.105V107H296.609ZM294.477 95.092V93.116H299.105V95.092H294.477ZM297.311 90.88C296.756 90.88 296.34 90.7327 296.063 90.438C295.803 90.1433 295.673 89.7707 295.673 89.32C295.673 88.8693 295.803 88.4967 296.063 88.202C296.34 87.9073 296.756 87.76 297.311 87.76C297.866 87.76 298.273 87.9073 298.533 88.202C298.81 88.4967 298.949 88.8693 298.949 89.32C298.949 89.7707 298.81 90.1433 298.533 90.438C298.273 90.7327 297.866 90.88 297.311 90.88ZM304.087 107V88.02H306.583V107H304.087ZM302.163 89.996V88.02H306.583V89.996H302.163ZM312.047 107V93.116H314.543V107H312.047ZM309.915 95.092V93.116H314.543V95.092H309.915ZM312.749 90.88C312.194 90.88 311.778 90.7327 311.501 90.438C311.241 90.1433 311.111 89.7707 311.111 89.32C311.111 88.8693 311.241 88.4967 311.501 88.202C311.778 87.9073 312.194 87.76 312.749 87.76C313.303 87.76 313.711 87.9073 313.971 88.202C314.248 88.4967 314.387 88.8693 314.387 89.32C314.387 89.7707 314.248 90.1433 313.971 90.438C313.711 90.7327 313.303 90.88 312.749 90.88ZM324.777 107.156C323.737 107.156 322.835 107.009 322.073 106.714C321.327 106.419 320.747 105.917 320.331 105.206C319.932 104.478 319.733 103.499 319.733 102.268V88.904H322.125V102.58C322.125 103.325 322.324 103.906 322.723 104.322C323.139 104.721 323.719 104.92 324.465 104.92H326.909V107.156H324.777ZM317.341 94.988V93.116H326.909V94.988H317.341ZM329.503 112.408V110.172H331.505C332.094 110.172 332.588 110.094 332.987 109.938C333.403 109.799 333.741 109.557 334.001 109.21C334.278 108.863 334.504 108.404 334.677 107.832L339.045 93.116H341.489L336.861 108.482C336.584 109.401 336.194 110.146 335.691 110.718C335.188 111.307 334.573 111.732 333.845 111.992C333.134 112.269 332.302 112.408 331.349 112.408H329.503ZM333.741 106.688V104.608H336.757V106.688H333.741ZM333.481 106.688L328.515 93.116H331.063L335.821 106.688H333.481Z" fill="#13131A"/>
<path d="M86.918 382.468C85.3407 382.468 83.9973 382.208 82.888 381.688C81.7787 381.168 80.9293 380.449 80.34 379.53C79.7507 378.611 79.456 377.571 79.456 376.41H82.004C82.004 376.982 82.1513 377.554 82.446 378.126C82.758 378.698 83.2693 379.175 83.98 379.556C84.708 379.937 85.6873 380.128 86.918 380.128C88.062 380.128 88.998 379.963 89.726 379.634C90.454 379.287 90.9913 378.845 91.338 378.308C91.6847 377.753 91.858 377.155 91.858 376.514C91.858 375.734 91.52 375.093 90.844 374.59C90.168 374.07 89.18 373.749 87.88 373.628L85.774 373.446C84.0927 373.307 82.7493 372.787 81.744 371.886C80.7387 370.985 80.236 369.797 80.236 368.324C80.236 367.163 80.5133 366.149 81.068 365.282C81.64 364.415 82.4287 363.739 83.434 363.254C84.4393 362.751 85.6093 362.5 86.944 362.5C88.2613 362.5 89.4227 362.743 90.428 363.228C91.4333 363.713 92.2133 364.398 92.768 365.282C93.34 366.149 93.626 367.189 93.626 368.402H91.078C91.078 367.795 90.9307 367.223 90.636 366.686C90.3587 366.149 89.9167 365.707 89.31 365.36C88.7033 365.013 87.9147 364.84 86.944 364.84C86.008 364.84 85.228 365.005 84.604 365.334C83.9973 365.663 83.538 366.097 83.226 366.634C82.9313 367.154 82.784 367.717 82.784 368.324C82.784 369.017 83.0527 369.633 83.59 370.17C84.1273 370.707 84.9247 371.019 85.982 371.106L88.088 371.288C89.388 371.392 90.506 371.669 91.442 372.12C92.3953 372.553 93.1233 373.143 93.626 373.888C94.146 374.616 94.406 375.491 94.406 376.514C94.406 377.675 94.094 378.707 93.47 379.608C92.846 380.509 91.9707 381.211 90.844 381.714C89.7173 382.217 88.4087 382.468 86.918 382.468ZM106.716 382V377.84H106.3V373.03C106.3 372.077 106.048 371.357 105.546 370.872C105.06 370.387 104.341 370.144 103.388 370.144C102.85 370.144 102.296 370.153 101.724 370.17C101.152 370.187 100.606 370.205 100.086 370.222C99.5658 370.239 99.1151 370.265 98.7338 370.3V368.116C99.1151 368.081 99.5138 368.055 99.9298 368.038C100.363 368.003 100.805 367.986 101.256 367.986C101.706 367.969 102.14 367.96 102.556 367.96C103.977 367.96 105.138 368.133 106.04 368.48C106.941 368.809 107.608 369.355 108.042 370.118C108.475 370.881 108.692 371.912 108.692 373.212V382H106.716ZM102.166 382.364C101.126 382.364 100.224 382.191 99.4618 381.844C98.7164 381.48 98.1358 380.96 97.7198 380.284C97.3211 379.608 97.1218 378.793 97.1218 377.84C97.1218 376.852 97.3384 376.029 97.7718 375.37C98.2224 374.711 98.8724 374.217 99.7218 373.888C100.571 373.541 101.594 373.368 102.79 373.368H106.56V375.24H102.686C101.68 375.24 100.909 375.483 100.372 375.968C99.8344 376.453 99.5658 377.077 99.5658 377.84C99.5658 378.603 99.8344 379.218 100.372 379.686C100.909 380.154 101.68 380.388 102.686 380.388C103.275 380.388 103.838 380.284 104.376 380.076C104.913 379.851 105.355 379.487 105.702 378.984C106.066 378.464 106.265 377.753 106.3 376.852L106.976 377.84C106.889 378.828 106.646 379.66 106.248 380.336C105.866 380.995 105.329 381.497 104.636 381.844C103.96 382.191 103.136 382.364 102.166 382.364ZM121.671 382V377.84H121.255V373.03C121.255 372.077 121.004 371.357 120.501 370.872C120.016 370.387 119.296 370.144 118.343 370.144C117.806 370.144 117.251 370.153 116.679 370.17C116.107 370.187 115.561 370.205 115.041 370.222C114.521 370.239 114.07 370.265 113.689 370.3V368.116C114.07 368.081 114.469 368.055 114.885 368.038C115.318 368.003 115.76 367.986 116.211 367.986C116.662 367.969 117.095 367.96 117.511 367.96C118.932 367.96 120.094 368.133 120.995 368.48C121.896 368.809 122.564 369.355 122.997 370.118C123.43 370.881 123.647 371.912 123.647 373.212V382H121.671ZM117.121 382.364C116.081 382.364 115.18 382.191 114.417 381.844C113.672 381.48 113.091 380.96 112.675 380.284C112.276 379.608 112.077 378.793 112.077 377.84C112.077 376.852 112.294 376.029 112.727 375.37C113.178 374.711 113.828 374.217 114.677 373.888C115.526 373.541 116.549 373.368 117.745 373.368H121.515V375.24H117.641C116.636 375.24 115.864 375.483 115.327 375.968C114.79 376.453 114.521 377.077 114.521 377.84C114.521 378.603 114.79 379.218 115.327 379.686C115.864 380.154 116.636 380.388 117.641 380.388C118.23 380.388 118.794 380.284 119.331 380.076C119.868 379.851 120.31 379.487 120.657 378.984C121.021 378.464 121.22 377.753 121.255 376.852L121.931 377.84C121.844 378.828 121.602 379.66 121.203 380.336C120.822 380.995 120.284 381.497 119.591 381.844C118.915 382.191 118.092 382.364 117.121 382.364ZM134.754 382.468C133.177 382.468 131.833 382.208 130.724 381.688C129.615 381.168 128.765 380.449 128.176 379.53C127.587 378.611 127.292 377.571 127.292 376.41H129.84C129.84 376.982 129.987 377.554 130.282 378.126C130.594 378.698 131.105 379.175 131.816 379.556C132.544 379.937 133.523 380.128 134.754 380.128C135.898 380.128 136.834 379.963 137.562 379.634C138.29 379.287 138.827 378.845 139.174 378.308C139.521 377.753 139.694 377.155 139.694 376.514C139.694 375.734 139.356 375.093 138.68 374.59C138.004 374.07 137.016 373.749 135.716 373.628L133.61 373.446C131.929 373.307 130.585 372.787 129.58 371.886C128.575 370.985 128.072 369.797 128.072 368.324C128.072 367.163 128.349 366.149 128.904 365.282C129.476 364.415 130.265 363.739 131.27 363.254C132.275 362.751 133.445 362.5 134.78 362.5C136.097 362.5 137.259 362.743 138.264 363.228C139.269 363.713 140.049 364.398 140.604 365.282C141.176 366.149 141.462 367.189 141.462 368.402H138.914C138.914 367.795 138.767 367.223 138.472 366.686C138.195 366.149 137.753 365.707 137.146 365.36C136.539 365.013 135.751 364.84 134.78 364.84C133.844 364.84 133.064 365.005 132.44 365.334C131.833 365.663 131.374 366.097 131.062 366.634C130.767 367.154 130.62 367.717 130.62 368.324C130.62 369.017 130.889 369.633 131.426 370.17C131.963 370.707 132.761 371.019 133.818 371.106L135.924 371.288C137.224 371.392 138.342 371.669 139.278 372.12C140.231 372.553 140.959 373.143 141.462 373.888C141.982 374.616 142.242 375.491 142.242 376.514C142.242 377.675 141.93 378.707 141.306 379.608C140.682 380.509 139.807 381.211 138.68 381.714C137.553 382.217 136.245 382.468 134.754 382.468Z" fill="#13131A"/>
<path d="M79.52 152V149.6C79.52 149.013 79.6 148.513 79.76 148.1C79.9333 147.687 80.2267 147.313 80.64 146.98C81.0533 146.633 81.6133 146.3 82.32 145.98L85.06 144.72C85.7267 144.413 86.2533 144.02 86.64 143.54C87.0267 143.047 87.22 142.413 87.22 141.64C87.22 140.707 86.96 139.98 86.44 139.46C85.92 138.94 85.1867 138.68 84.24 138.68C83.3067 138.68 82.5733 138.94 82.04 139.46C81.5067 139.98 81.24 140.707 81.24 141.64H79.36C79.36 140.8 79.5333 140.027 79.88 139.32C80.24 138.613 80.78 138.053 81.5 137.64C82.22 137.213 83.1333 137 84.24 137C85.3467 137 86.2533 137.213 86.96 137.64C87.68 138.053 88.2133 138.6 88.56 139.28C88.92 139.96 89.1 140.7 89.1 141.5V141.78C89.1 142.833 88.7933 143.72 88.18 144.44C87.58 145.16 86.7667 145.753 85.74 146.22L83 147.48C82.3867 147.76 81.9733 148.04 81.76 148.32C81.5467 148.6 81.44 148.973 81.44 149.44V151.28L80.92 150.36H89.28V152H79.52ZM97.8033 152.36C96.7099 152.36 95.7766 152.173 95.0033 151.8C94.2433 151.413 93.6233 150.893 93.1433 150.24C92.6766 149.587 92.3366 148.833 92.1233 147.98C91.9099 147.113 91.8033 146.2 91.8033 145.24V144.16C91.8033 142.813 92.0099 141.6 92.4233 140.52C92.8499 139.44 93.5033 138.587 94.3833 137.96C95.2766 137.32 96.4166 137 97.8033 137C99.1899 137 100.323 137.32 101.203 137.96C102.083 138.587 102.73 139.44 103.143 140.52C103.57 141.6 103.783 142.813 103.783 144.16V145.24C103.783 146.2 103.677 147.113 103.463 147.98C103.25 148.833 102.903 149.587 102.423 150.24C101.957 150.893 101.343 151.413 100.583 151.8C99.8233 152.173 98.8966 152.36 97.8033 152.36ZM97.8033 150.6C99.1899 150.6 100.203 150.133 100.843 149.2C101.497 148.253 101.823 146.76 101.823 144.72C101.823 142.587 101.49 141.06 100.823 140.14C100.17 139.22 99.1633 138.76 97.8033 138.76C96.4299 138.76 95.4099 139.22 94.7433 140.14C94.0899 141.06 93.7633 142.573 93.7633 144.68C93.7633 146.733 94.0899 148.233 94.7433 149.18C95.3966 150.127 96.4166 150.6 97.8033 150.6ZM106.747 152V149.6C106.747 149.013 106.827 148.513 106.987 148.1C107.16 147.687 107.453 147.313 107.867 146.98C108.28 146.633 108.84 146.3 109.547 145.98L112.287 144.72C112.953 144.413 113.48 144.02 113.867 143.54C114.253 143.047 114.447 142.413 114.447 141.64C114.447 140.707 114.187 139.98 113.667 139.46C113.147 138.94 112.413 138.68 111.467 138.68C110.533 138.68 109.8 138.94 109.267 139.46C108.733 139.98 108.467 140.707 108.467 141.64H106.587C106.587 140.8 106.76 140.027 107.107 139.32C107.467 138.613 108.007 138.053 108.727 137.64C109.447 137.213 110.36 137 111.467 137C112.573 137 113.48 137.213 114.187 137.64C114.907 138.053 115.44 138.6 115.787 139.28C116.147 139.96 116.327 140.7 116.327 141.5V141.78C116.327 142.833 116.02 143.72 115.407 144.44C114.807 145.16 113.993 145.753 112.967 146.22L110.227 147.48C109.613 147.76 109.2 148.04 108.987 148.32C108.773 148.6 108.667 148.973 108.667 149.44V151.28L108.147 150.36H116.507V152H106.747ZM118.55 148.54V146.18L124.61 137.04L125.95 138.1L120.29 146.66L120.47 147.02H129.91V148.54H118.55ZM126.17 152V141.66H127.97V152H126.17Z" fill="#13131A"/>
</g>
<path d="M557 384L567 374L557 364M543 384L553 374L543 364" stroke="#1E1E1E" stroke-width="4" stroke-linecap="round" stroke-linejoin="round"/>
</svg>
