<svg width="251" height="235" viewBox="0 0 251 235" fill="none" xmlns="http://www.w3.org/2000/svg">
<g style="mix-blend-mode:multiply">
<path d="M16.8519 46.8879C31.4927 2.96558 105.788 -2.23575 141.106 0.653881C154.27 0.653881 185.798 2.77291 206.604 11.249C232.61 21.8442 241.279 34.3661 248.022 69.0416C253.416 96.782 213.025 112.707 192.156 117.202C202.751 117.202 241.279 135.503 248.022 155.73C253.416 171.912 250.269 187.516 248.022 193.296C248.792 217.954 196.329 229.898 170.002 232.787C143.995 235.677 82.3497 237.988 43.8213 224.118C5.29295 210.248 -1.12832 186.232 0.477096 175.958C-4.91688 143.594 36.758 123.302 58.2697 117.202C37.0791 111.423 26.484 97.9379 16.8519 83.4897C9.14619 71.9312 13.6412 54.2725 16.8519 46.8879Z" fill="#CD9EA1"/>
</g>
</svg>
