<svg width="663" height="620" viewBox="0 0 663 620" fill="none" xmlns="http://www.w3.org/2000/svg">
<g style="mix-blend-mode:multiply">
<path d="M44.4642 123.715C83.0943 7.82479 279.125 -5.89909 372.312 1.72528C407.045 1.72528 490.235 7.31642 545.13 29.681C613.75 57.6366 636.623 90.6759 654.413 182.168C668.645 255.362 562.073 297.381 507.008 309.241C534.964 309.241 636.623 357.529 654.413 410.9C668.645 453.596 660.343 494.768 654.413 510.016C656.446 575.078 518.021 606.592 448.555 614.216C379.936 621.841 217.282 627.94 115.624 591.343C13.9656 554.746 -2.9771 491.379 1.25883 464.27C-12.9733 378.877 96.9871 325.337 153.746 309.241C97.8342 293.993 69.8788 258.412 44.4642 220.29C24.1325 189.793 35.9927 143.2 44.4642 123.715Z" fill="#CD9EA1"/>
</g>
</svg>
