<svg width="698" height="644" viewBox="0 0 698 644" fill="none" xmlns="http://www.w3.org/2000/svg">
<path d="M0 356.856V515.28C0 530.132 3.41029 567.263 17.0514 596.968C30.6926 626.672 61.7099 640.699 75.5135 644H119.36C191.463 640.039 214.361 556.536 216.797 515.28C223.292 442.669 236.771 295.961 238.72 290.02C240.669 284.079 247.652 282.594 250.9 282.594C270.387 284.574 263.891 375.833 258.207 421.215C251.712 473.198 245.053 584.096 270.387 611.82C295.72 639.544 331.285 639.874 345.9 636.574C421.901 634.594 449.021 528.482 453.081 475.674C470.619 344.974 483.124 325.501 487.184 332.102C508.62 312.298 507.483 388.21 504.235 428.642C492.543 543.499 522.098 595.317 538.338 606.869L589.492 624.197C673.288 624.197 695.861 503.728 696.673 443.494C706.416 296.951 660.134 186.054 635.775 148.923C609.791 111.792 528.594 32.0851 411.67 10.3017C265.515 -16.9275 248.464 12.7771 136.411 64.7602C46.7696 106.347 8.11973 276.818 0 356.856Z" fill="#BFD22D"/>
</svg>
