<svg width="164" height="151" viewBox="0 0 164 151" fill="none" xmlns="http://www.w3.org/2000/svg">
<path d="M0 83.6727V120.819C0 124.301 0.801271 133.007 4.00635 139.972C7.21143 146.937 14.4992 150.226 17.7424 151H28.0445C44.9856 150.071 50.3656 130.492 50.9379 120.819C52.4641 103.793 55.6311 69.3946 56.0889 68.0016C56.5468 66.6086 58.1875 66.2604 58.9506 66.2604C63.5293 66.7247 62.0031 88.1224 60.6676 98.7632C59.1414 110.952 57.577 136.954 63.5293 143.455C69.4816 149.955 77.8377 150.033 81.2717 149.259C99.1286 148.794 105.501 123.914 106.455 111.532C110.575 80.8867 113.513 76.3208 114.467 77.8685C119.504 73.2253 119.237 91.0245 118.474 100.504C115.726 127.435 122.671 139.585 126.486 142.294L138.505 146.357C158.194 146.357 163.497 118.11 163.688 103.987C165.977 69.6267 155.103 43.6244 149.38 34.9183C143.275 26.2122 124.197 7.52306 96.7248 2.41547C62.3846 -3.96902 58.3783 2.99588 32.0508 15.1845C10.9889 24.9353 1.90779 64.9061 0 83.6727Z" fill="#BFD22D"/>
</svg>
