<svg width="1440" height="930" viewBox="0 0 1440 930" fill="none" xmlns="http://www.w3.org/2000/svg">
<rect width="1440" height="930" fill="#13131A"/>
<path d="M341.345 592.587C344.967 565.663 370.781 536.134 383.235 524.735C387.482 540.586 398.839 565.385 403.986 575.803C409.804 593.12 440.296 616.802 454.047 621.966C465.048 626.096 496.757 631.167 511.236 633.186C482.9 661.07 462.655 673.141 456.075 675.69C428.103 692.623 392.696 681.662 378.489 674.065C355.275 664.358 336.817 626.243 341.345 592.587Z" fill="#BFD22D"/>
<path d="M761.481 680.927C771.455 651.019 822.071 647.478 846.132 649.445C855.1 649.445 876.58 650.888 890.754 656.66C908.472 663.874 914.377 672.4 918.971 696.011C922.646 714.9 895.129 725.744 880.911 728.804C888.129 728.804 914.377 741.266 918.971 755.039C922.646 766.057 920.502 776.682 918.971 780.617C919.496 797.407 883.754 805.54 865.818 807.507C848.1 809.475 806.103 811.049 779.854 801.605C753.606 792.16 749.231 775.808 750.325 768.812C746.65 746.775 775.042 732.958 789.698 728.804C775.261 724.869 768.043 715.687 761.481 705.849C756.231 697.979 759.293 685.955 761.481 680.927Z" fill="#FF8B73"/>
<path d="M1003 452.66V492.02C1003 495.71 1003.86 504.935 1007.3 512.315C1010.74 519.695 1018.56 523.18 1022.04 524H1033.1C1051.28 523.016 1057.05 502.27 1057.67 492.02C1059.3 473.98 1062.7 437.531 1063.19 436.055C1063.68 434.579 1065.45 434.21 1066.26 434.21C1071.18 434.702 1069.54 457.375 1068.11 468.65C1066.47 481.565 1064.79 509.117 1071.18 516.005C1077.57 522.893 1086.53 522.975 1090.22 522.155C1109.38 521.663 1116.22 495.3 1117.24 482.18C1121.67 449.708 1124.82 444.87 1125.84 446.51C1131.25 441.59 1130.96 460.45 1130.14 470.495C1127.19 499.031 1134.65 511.905 1138.74 514.775L1151.64 519.08C1172.77 519.08 1178.46 489.15 1178.67 474.185C1181.12 437.777 1169.45 410.225 1163.31 401C1156.76 391.775 1136.28 371.971 1106.8 366.559C1069.95 359.794 1065.65 367.174 1037.4 380.089C1014.79 390.422 1005.05 432.775 1003 452.66Z" fill="#5556AF"/>
<path d="M516.59 100.426C540.332 77.0603 580.89 83.6474 598.202 89.8617C603.354 91.1045 617.492 98.4373 632.825 117.826C648.159 137.214 653.228 163.604 653.847 174.375C659.288 198.238 644.16 221.603 635.917 230.303C622.315 237.76 592.019 246.46 540.703 243.353C499.649 240.868 481.554 210.832 477.639 196.125C476.402 195.918 474.671 188.544 477.639 160.704C480.606 132.864 504.843 108.919 516.59 100.426Z" fill="#E36785"/>
<path d="M721.538 340L746.418 373.043L768.983 340L772.455 385.797L804.278 360.87L789.234 403.188L828 411.884L794.441 429.275L828 451.884H784.605L794.441 487.246L760.883 465.797L764.355 500L737.161 465.797L714.595 491.884V451.884L681.037 472.754L697.816 437.971L655 426.377L689.716 411.884L659.05 395.652H705.338L689.716 356.232L727.324 379.42L721.538 340Z" fill="#B3B3B3"/>
<path d="M136.374 216.475C103.884 240.238 106.935 292.67 112.522 315.917C115.281 337.613 132.152 347.772 140.242 350.14C162.418 360.988 174.409 339.163 177.632 326.894C180.21 292.283 188.591 281.478 192.459 280.402C200.71 276.786 202.773 294.823 202.773 304.294L206.641 344.329C215.021 372.74 232.427 363.7 251.122 357.889C266.078 353.24 268.957 307.307 268.527 284.922C272.653 237.913 248.758 217.121 236.295 212.6C198.132 189.871 153.78 205.713 136.374 216.475Z" fill="#C76935"/>
<path d="M1179.06 205.402L1124 156.994L1215.04 99.052C1284.05 59.4458 1311.94 121.789 1317.82 130.59C1322.52 137.631 1323.2 165.796 1322.96 178.998C1321.73 199.779 1309.6 241.781 1270.83 243.541C1232.07 245.302 1193.5 218.849 1179.06 205.402Z" fill="#CD9EA1"/>
<path d="M1240.8 703.013H1282.9C1313.38 703.013 1322.33 731.246 1323 745.363L1318.32 821.323C1320.46 853.051 1297.38 862.328 1285.57 863L1229.43 860.983C1198.96 855.068 1196.24 829.389 1198.69 817.289V760.823C1198.69 713.5 1226.76 702.565 1240.8 703.013Z" fill="#2C5FB2"/>
<path d="M240 841H85C89.8111 820.003 102.947 769.945 117.004 737.693C134.575 697.378 143.36 681 162.186 681C181.012 681 199.838 709.346 214.271 751.551C225.818 785.315 236.235 825.252 240 841Z" fill="#7B9C4D"/>
</svg>
