<svg width="160" height="163" viewBox="0 0 160 163" fill="none" xmlns="http://www.w3.org/2000/svg">
<path d="M27.3742 15.4749C-5.1161 39.2376 -2.06476 91.6705 3.52219 114.917C6.2812 136.613 23.1518 146.772 31.2422 149.14C53.4182 159.988 65.4086 138.163 68.6318 125.894C71.2104 91.2832 79.5908 80.478 83.4587 79.4018C91.7102 75.7859 93.7731 93.8231 93.7731 103.294L97.641 143.329C106.021 171.74 123.427 162.7 142.122 156.889C157.078 152.24 159.957 106.307 159.527 83.9218C163.653 36.9129 139.758 16.1206 127.295 11.6005C89.1316 -11.1291 44.7797 4.71275 27.3742 15.4749Z" fill="#FF8B73"/>
</svg>
