<svg width="68" height="64" viewBox="0 0 68 64" fill="none" xmlns="http://www.w3.org/2000/svg">
<path d="M4.56545 12.7706C8.53187 0.80772 28.6598 -0.608938 38.2279 0.178094C41.7942 0.178094 50.3358 0.755243 55.9723 3.06384C63.0179 5.94959 65.3665 9.3601 67.1931 18.8045C68.6544 26.36 57.712 30.6974 52.0581 31.9217C54.9285 31.9217 65.3665 36.9062 67.1931 42.4154C68.6544 46.8228 67.802 51.0728 67.1931 52.6469C67.4019 59.3629 53.1889 62.6159 46.0563 63.403C39.0106 64.19 22.3099 64.8196 11.8719 61.0419C1.43395 57.2641 -0.30568 50.723 0.129253 47.9247C-1.33206 39.1099 9.95834 33.5832 15.7862 31.9217C10.0453 30.3476 7.17494 26.6748 4.56545 22.7396C2.47785 19.5915 3.69562 14.7819 4.56545 12.7706Z" fill="#FF8B73"/>
</svg>
